<ttFont>
    <TTGlyph name=".notdef" xMin="76" yMin="0" xMax="1213" yMax="1600">
      <contour>
        <pt x="442" y="1041" on="1"/>
        <pt x="442" y="1005" on="0"/>
        <pt x="391" y="955" on="0"/>
        <pt x="355" y="955" on="1"/>
        <pt x="319" y="955" on="0"/>
        <pt x="269" y="1005" on="0"/>
        <pt x="269" y="1041" on="1"/>
        <pt x="269" y="1119" on="0"/>
        <pt x="329" y="1256" on="0"/>
        <pt x="432" y="1358" on="0"/>
        <pt x="568" y="1417" on="0"/>
        <pt x="644" y="1417" on="1"/>
        <pt x="721" y="1417" on="0"/>
        <pt x="858" y="1357" on="0"/>
        <pt x="960" y="1255" on="0"/>
        <pt x="1020" y="1118" on="0"/>
        <pt x="1020" y="1041" on="1"/>
        <pt x="1020" y="886" on="0"/>
        <pt x="909" y="774" on="1"/>
        <pt x="790" y="663" on="1"/>
        <pt x="762" y="634" on="0"/>
        <pt x="731" y="563" on="0"/>
        <pt x="731" y="521" on="1"/>
        <pt x="731" y="485" on="0"/>
        <pt x="681" y="434" on="0"/>
        <pt x="644" y="434" on="1"/>
        <pt x="608" y="434" on="0"/>
        <pt x="558" y="485" on="0"/>
        <pt x="558" y="521" on="1"/>
        <pt x="558" y="677" on="0"/>
        <pt x="669" y="787" on="1"/>
        <pt x="789" y="899" on="1"/>
        <pt x="817" y="928" on="0"/>
        <pt x="847" y="999" on="0"/>
        <pt x="847" y="1041" on="1"/>
        <pt x="847" y="1083" on="0"/>
        <pt x="815" y="1157" on="0"/>
        <pt x="760" y="1212" on="0"/>
        <pt x="686" y="1244" on="0"/>
        <pt x="644" y="1244" on="1"/>
        <pt x="602" y="1244" on="0"/>
        <pt x="529" y="1212" on="0"/>
        <pt x="474" y="1157" on="0"/>
        <pt x="442" y="1083" on="0"/>
      </contour>
      <contour>
        <pt x="760" y="298" on="1"/>
        <pt x="760" y="275" on="0"/>
        <pt x="742" y="233" on="0"/>
        <pt x="711" y="201" on="0"/>
        <pt x="669" y="183" on="0"/>
        <pt x="644" y="183" on="1"/>
        <pt x="621" y="183" on="0"/>
        <pt x="579" y="201" on="0"/>
        <pt x="547" y="233" on="0"/>
        <pt x="529" y="275" on="0"/>
        <pt x="529" y="298" on="1"/>
        <pt x="529" y="323" on="0"/>
        <pt x="547" y="365" on="0"/>
        <pt x="579" y="396" on="0"/>
        <pt x="621" y="414" on="0"/>
        <pt x="644" y="414" on="1"/>
        <pt x="695" y="414" on="0"/>
        <pt x="760" y="349" on="0"/>
      </contour>
      <contour>
        <pt x="229" y="153" on="1"/>
        <pt x="1060" y="153" on="1"/>
        <pt x="1060" y="1447" on="1"/>
        <pt x="229" y="1447" on="1"/>
      </contour>
      <contour>
        <pt x="163" y="0" on="1"/>
        <pt x="126" y="0" on="0"/>
        <pt x="76" y="51" on="0"/>
        <pt x="76" y="87" on="1"/>
        <pt x="76" y="1513" on="1"/>
        <pt x="76" y="1549" on="0"/>
        <pt x="126" y="1600" on="0"/>
        <pt x="163" y="1600" on="1"/>
        <pt x="1126" y="1600" on="1"/>
        <pt x="1163" y="1600" on="0"/>
        <pt x="1213" y="1549" on="0"/>
        <pt x="1213" y="1513" on="1"/>
        <pt x="1213" y="87" on="1"/>
        <pt x="1213" y="51" on="0"/>
        <pt x="1163" y="0" on="0"/>
        <pt x="1126" y="0" on="1"/>
      </contour>
    </TTGlyph>
    <TTGlyph name="A" xMin="77" yMin="0" xMax="1368" yMax="1600">
      <contour>
        <pt x="897" y="752" on="1"/>
        <pt x="723" y="1201" on="1"/>
        <pt x="549" y="752" on="1"/>
      </contour>
      <contour>
        <pt x="88" y="154" on="1"/>
        <pt x="622" y="1528" on="1"/>
        <pt x="654" y="1600" on="0"/>
        <pt x="723" y="1600" on="1"/>
        <pt x="794" y="1600" on="0"/>
        <pt x="824" y="1528" on="1"/>
        <pt x="1360" y="149" on="1"/>
        <pt x="1368" y="129" on="0"/>
        <pt x="1368" y="106" on="1"/>
        <pt x="1368" y="62" on="0"/>
        <pt x="1306" y="0" on="0"/>
        <pt x="1262" y="0" on="1"/>
        <pt x="1218" y="0" on="0"/>
        <pt x="1188" y="31" on="1"/>
        <pt x="1172" y="47" on="0"/>
        <pt x="1164" y="65" on="1"/>
        <pt x="979" y="540" on="1"/>
        <pt x="467" y="540" on="1"/>
        <pt x="281" y="65" on="1"/>
        <pt x="273" y="47" on="0"/>
        <pt x="257" y="31" on="1"/>
        <pt x="226" y="0" on="0"/>
        <pt x="182" y="0" on="1"/>
        <pt x="138" y="0" on="0"/>
        <pt x="77" y="62" on="0"/>
        <pt x="77" y="106" on="1"/>
        <pt x="77" y="130" on="0"/>
      </contour>
    </TTGlyph>
    <TTGlyph name="AE" xMin="80" yMin="0" xMax="1680" yMax="1600">
      <contour>
        <pt x="851" y="1084" on="1"/>
        <pt x="710" y="829" on="1"/>
        <pt x="851" y="829" on="1"/>
      </contour>
      <contour>
        <pt x="1574" y="1600" on="1"/>
        <pt x="1596" y="1600" on="0"/>
        <pt x="1635" y="1584" on="0"/>
        <pt x="1664" y="1555" on="0"/>
        <pt x="1680" y="1516" on="0"/>
        <pt x="1680" y="1494" on="1"/>
        <pt x="1680" y="1471" on="0"/>
        <pt x="1664" y="1433" on="0"/>
        <pt x="1635" y="1404" on="0"/>
        <pt x="1596" y="1388" on="0"/>
        <pt x="1574" y="1388" on="1"/>
        <pt x="1063" y="1388" on="1"/>
        <pt x="1063" y="829" on="1"/>
        <pt x="1420" y="829" on="1"/>
        <pt x="1442" y="829" on="0"/>
        <pt x="1481" y="813" on="0"/>
        <pt x="1510" y="784" on="0"/>
        <pt x="1526" y="745" on="0"/>
        <pt x="1526" y="723" on="1"/>
        <pt x="1526" y="700" on="0"/>
        <pt x="1510" y="662" on="0"/>
        <pt x="1481" y="633" on="0"/>
        <pt x="1442" y="617" on="0"/>
        <pt x="1420" y="617" on="1"/>
        <pt x="1063" y="617" on="1"/>
        <pt x="1063" y="212" on="1"/>
        <pt x="1574" y="212" on="1"/>
        <pt x="1596" y="212" on="0"/>
        <pt x="1635" y="196" on="0"/>
        <pt x="1664" y="167" on="0"/>
        <pt x="1680" y="128" on="0"/>
        <pt x="1680" y="106" on="1"/>
        <pt x="1680" y="83" on="0"/>
        <pt x="1664" y="45" on="0"/>
        <pt x="1635" y="16" on="0"/>
        <pt x="1596" y="0" on="0"/>
        <pt x="1574" y="0" on="1"/>
        <pt x="957" y="0" on="1"/>
        <pt x="934" y="0" on="0"/>
        <pt x="896" y="16" on="0"/>
        <pt x="867" y="45" on="0"/>
        <pt x="851" y="83" on="0"/>
        <pt x="851" y="106" on="1"/>
        <pt x="851" y="617" on="1"/>
        <pt x="592" y="617" on="1"/>
        <pt x="275" y="47" on="1"/>
        <pt x="243" y="0" on="0"/>
        <pt x="186" y="0" on="1"/>
        <pt x="163" y="0" on="0"/>
        <pt x="125" y="16" on="0"/>
        <pt x="96" y="45" on="0"/>
        <pt x="80" y="83" on="0"/>
        <pt x="80" y="106" on="1"/>
        <pt x="80" y="135" on="0"/>
        <pt x="95" y="159" on="1"/>
        <pt x="867" y="1550" on="1"/>
        <pt x="894" y="1600" on="0"/>
        <pt x="957" y="1600" on="1"/>
      </contour>
    </TTGlyph>
    <TTGlyph name="AEacute" xMin="80" yMin="0" xMax="1680" yMax="2079">
      <component glyphName="AE" x="0" y="0" flags="0x200"/>
      <component glyphName="acute" x="800" y="480" flags="0x0"/>
    </TTGlyph>
    <TTGlyph name="Aacute" xMin="77" yMin="0" xMax="1368" yMax="2079">
      <component glyphName="A" x="0" y="0" flags="0x200"/>
      <component glyphName="acute" x="507" y="480" flags="0x0"/>
    </TTGlyph>
    <TTGlyph name="Abreve" xMin="77" yMin="0" xMax="1368" yMax="2080">
      <component glyphName="A" x="0" y="0" flags="0x200"/>
      <component glyphName="breve" x="326" y="480" flags="0x0"/>
    </TTGlyph>
    <TTGlyph name="Acircumflex" xMin="77" yMin="0" xMax="1368" yMax="2080">
      <component glyphName="A" x="0" y="0" flags="0x200"/>
      <component glyphName="circumflex" x="320" y="480" flags="0x0"/>
    </TTGlyph>
    <TTGlyph name="Adieresis" xMin="77" yMin="0" xMax="1368" yMax="1962">
      <component glyphName="A" x="0" y="0" flags="0x200"/>
      <component glyphName="dieresis" x="241" y="480" flags="0x0"/>
    </TTGlyph>
    <TTGlyph name="Agrave" xMin="77" yMin="0" xMax="1368" yMax="2079">
      <component glyphName="A" x="0" y="0" flags="0x200"/>
      <component glyphName="grave" x="373" y="480" flags="0x0"/>
    </TTGlyph>
    <TTGlyph name="Alpha" xMin="77" yMin="0" xMax="1368" yMax="1600">
      <component glyphName="A" x="0" y="0" flags="0x200"/>
    </TTGlyph>
    <TTGlyph name="Alphatonos" xMin="71" yMin="0" xMax="1362" yMax="1600">
      <contour>
        <pt x="474" y="1421" on="1"/>
        <pt x="274" y="1222" on="1"/>
        <pt x="246" y="1194" on="0"/>
        <pt x="202" y="1194" on="1"/>
        <pt x="157" y="1194" on="0"/>
        <pt x="98" y="1253" on="0"/>
        <pt x="98" y="1298" on="1"/>
        <pt x="98" y="1341" on="0"/>
        <pt x="124" y="1369" on="1"/>
        <pt x="324" y="1568" on="1"/>
        <pt x="356" y="1599" on="0"/>
        <pt x="398" y="1599" on="1"/>
        <pt x="443" y="1599" on="0"/>
        <pt x="502" y="1538" on="0"/>
        <pt x="502" y="1494" on="1"/>
        <pt x="502" y="1449" on="0"/>
      </contour>
      <contour>
        <pt x="891" y="752" on="1"/>
        <pt x="717" y="1201" on="1"/>
        <pt x="543" y="752" on="1"/>
      </contour>
      <contour>
        <pt x="82" y="154" on="1"/>
        <pt x="616" y="1528" on="1"/>
        <pt x="648" y="1600" on="0"/>
        <pt x="717" y="1600" on="1"/>
        <pt x="788" y="1600" on="0"/>
        <pt x="818" y="1528" on="1"/>
        <pt x="1354" y="149" on="1"/>
        <pt x="1362" y="129" on="0"/>
        <pt x="1362" y="106" on="1"/>
        <pt x="1362" y="62" on="0"/>
        <pt x="1300" y="0" on="0"/>
        <pt x="1256" y="0" on="1"/>
        <pt x="1212" y="0" on="0"/>
        <pt x="1182" y="31" on="1"/>
        <pt x="1166" y="47" on="0"/>
        <pt x="1158" y="65" on="1"/>
        <pt x="973" y="540" on="1"/>
        <pt x="461" y="540" on="1"/>
        <pt x="275" y="65" on="1"/>
        <pt x="267" y="47" on="0"/>
        <pt x="251" y="31" on="1"/>
        <pt x="220" y="0" on="0"/>
        <pt x="176" y="0" on="1"/>
        <pt x="132" y="0" on="0"/>
        <pt x="71" y="62" on="0"/>
        <pt x="71" y="106" on="1"/>
        <pt x="71" y="130" on="0"/>
      </contour>
    </TTGlyph>
    <TTGlyph name="Amacron" xMin="77" yMin="0" xMax="1368" yMax="1940">
      <component glyphName="A" x="0" y="0" flags="0x200"/>
      <component glyphName="uni02C9" x="320" y="480" flags="0x0"/>
    </TTGlyph>
    <TTGlyph name="Aogonek" xMin="77" yMin="-373" xMax="1520" yMax="1600">
      <component glyphName="A" x="0" y="0" flags="0x0"/>
      <component glyphName="ogonek" x="936" y="107" flags="0x0"/>
    </TTGlyph>
    <TTGlyph name="Aring" xMin="77" yMin="0" xMax="1368" yMax="2079">
      <component glyphName="A" x="0" y="0" flags="0x200"/>
      <component glyphName="ring" x="438" y="480" flags="0x0"/>
    </TTGlyph>
    <TTGlyph name="Aringacute" xMin="77" yMin="0" xMax="1378" yMax="2078">
      <contour>
        <pt x="903" y="757" on="1"/>
        <pt x="728" y="1210" on="1"/>
        <pt x="552" y="757" on="1"/>
      </contour>
      <contour>
        <pt x="727" y="1750" on="1"/>
        <pt x="697" y="1750" on="0"/>
        <pt x="658" y="1709" on="0"/>
        <pt x="658" y="1681" on="1"/>
        <pt x="658" y="1653" on="0"/>
        <pt x="697" y="1613" on="0"/>
        <pt x="727" y="1613" on="1"/>
        <pt x="755" y="1613" on="0"/>
        <pt x="794" y="1653" on="0"/>
        <pt x="794" y="1681" on="1"/>
        <pt x="794" y="1709" on="0"/>
        <pt x="755" y="1750" on="0"/>
      </contour>
      <contour>
        <pt x="1369" y="150" on="1"/>
        <pt x="1378" y="126" on="0"/>
        <pt x="1378" y="107" on="1"/>
        <pt x="1378" y="84" on="0"/>
        <pt x="1362" y="45" on="0"/>
        <pt x="1333" y="16" on="0"/>
        <pt x="1294" y="0" on="0"/>
        <pt x="1272" y="0" on="1"/>
        <pt x="1240" y="0" on="0"/>
        <pt x="1186" y="35" on="0"/>
        <pt x="1172" y="65" on="1"/>
        <pt x="986" y="544" on="1"/>
        <pt x="470" y="544" on="1"/>
        <pt x="282" y="65" on="1"/>
        <pt x="265" y="32" on="0"/>
        <pt x="214" y="0" on="0"/>
        <pt x="184" y="0" on="1"/>
        <pt x="161" y="0" on="0"/>
        <pt x="122" y="16" on="0"/>
        <pt x="93" y="45" on="0"/>
        <pt x="77" y="84" on="0"/>
        <pt x="77" y="107" on="1"/>
        <pt x="77" y="129" on="0"/>
        <pt x="86" y="150" on="1"/>
        <pt x="607" y="1491" on="1"/>
        <pt x="554" y="1522" on="0"/>
        <pt x="501" y="1627" on="0"/>
        <pt x="501" y="1681" on="1"/>
        <pt x="501" y="1766" on="0"/>
        <pt x="561" y="1834" on="1"/>
        <pt x="543" y="1862" on="0"/>
        <pt x="543" y="1894" on="1"/>
        <pt x="543" y="1935" on="0"/>
        <pt x="571" y="1965" on="1"/>
        <pt x="652" y="2047" on="1"/>
        <pt x="684" y="2078" on="0"/>
        <pt x="728" y="2078" on="1"/>
        <pt x="750" y="2078" on="0"/>
        <pt x="789" y="2061" on="0"/>
        <pt x="817" y="2032" on="0"/>
        <pt x="834" y="1993" on="0"/>
        <pt x="834" y="1971" on="1"/>
        <pt x="834" y="1930" on="0"/>
        <pt x="802" y="1894" on="1"/>
        <pt x="836" y="1882" on="0"/>
        <pt x="892" y="1837" on="0"/>
        <pt x="930" y="1781" on="0"/>
        <pt x="951" y="1715" on="0"/>
        <pt x="951" y="1681" on="1"/>
        <pt x="951" y="1625" on="0"/>
        <pt x="900" y="1524" on="0"/>
        <pt x="849" y="1491" on="1"/>
      </contour>
    </TTGlyph>
    <TTGlyph name="Atilde" xMin="77" yMin="0" xMax="1368" yMax="2029">
      <component glyphName="A" x="0" y="0" flags="0x200"/>
      <component glyphName="tilde" x="237" y="480" flags="0x0"/>
    </TTGlyph>
    <TTGlyph name="B" xMin="74" yMin="0" xMax="1057" yMax="1600">
      <contour>
        <pt x="286" y="1388" on="1"/>
        <pt x="286" y="983" on="1"/>
        <pt x="489" y="983" on="1"/>
        <pt x="531" y="983" on="0"/>
        <pt x="604" y="1015" on="0"/>
        <pt x="659" y="1071" on="0"/>
        <pt x="691" y="1144" on="0"/>
        <pt x="691" y="1186" on="1"/>
        <pt x="691" y="1227" on="0"/>
        <pt x="659" y="1300" on="0"/>
        <pt x="603" y="1356" on="0"/>
        <pt x="530" y="1388" on="0"/>
        <pt x="489" y="1388" on="1"/>
      </contour>
      <contour>
        <pt x="286" y="771" on="1"/>
        <pt x="286" y="212" on="1"/>
        <pt x="566" y="212" on="1"/>
        <pt x="624" y="212" on="0"/>
        <pt x="726" y="256" on="0"/>
        <pt x="801" y="332" on="0"/>
        <pt x="845" y="434" on="0"/>
        <pt x="845" y="492" on="1"/>
        <pt x="845" y="549" on="0"/>
        <pt x="801" y="651" on="0"/>
        <pt x="725" y="727" on="0"/>
        <pt x="623" y="771" on="0"/>
        <pt x="566" y="771" on="1"/>
      </contour>
      <contour>
        <pt x="489" y="1600" on="1"/>
        <pt x="574" y="1600" on="0"/>
        <pt x="725" y="1535" on="0"/>
        <pt x="838" y="1422" on="0"/>
        <pt x="903" y="1271" on="0"/>
        <pt x="903" y="1186" on="1"/>
        <pt x="903" y="1034" on="0"/>
        <pt x="809" y="921" on="1"/>
        <pt x="870" y="885" on="0"/>
        <pt x="962" y="791" on="0"/>
        <pt x="1025" y="680" on="0"/>
        <pt x="1057" y="557" on="0"/>
        <pt x="1057" y="492" on="1"/>
        <pt x="1057" y="391" on="0"/>
        <pt x="979" y="212" on="0"/>
        <pt x="846" y="78" on="0"/>
        <pt x="667" y="0" on="0"/>
        <pt x="566" y="0" on="1"/>
        <pt x="180" y="0" on="1"/>
        <pt x="158" y="0" on="0"/>
        <pt x="120" y="17" on="0"/>
        <pt x="91" y="45" on="0"/>
        <pt x="74" y="84" on="0"/>
        <pt x="74" y="106" on="1"/>
        <pt x="74" y="1494" on="1"/>
        <pt x="74" y="1516" on="0"/>
        <pt x="91" y="1555" on="0"/>
        <pt x="120" y="1583" on="0"/>
        <pt x="158" y="1600" on="0"/>
        <pt x="180" y="1600" on="1"/>
      </contour>
    </TTGlyph>
    <TTGlyph name="Beta" xMin="74" yMin="0" xMax="1057" yMax="1600">
      <component glyphName="B" x="0" y="0" flags="0x200"/>
    </TTGlyph>
    <TTGlyph name="C" xMin="78" yMin="0" xMax="1419" yMax="1600">
      <contour>
        <pt x="1308" y="360" on="1"/>
        <pt x="1330" y="360" on="0"/>
        <pt x="1368" y="343" on="0"/>
        <pt x="1397" y="315" on="0"/>
        <pt x="1414" y="276" on="0"/>
        <pt x="1414" y="254" on="1"/>
        <pt x="1414" y="212" on="0"/>
        <pt x="1381" y="178" on="1"/>
        <pt x="1158" y="0" on="0"/>
        <pt x="878" y="0" on="1"/>
        <pt x="546" y="0" on="0"/>
        <pt x="312" y="234" on="1"/>
        <pt x="78" y="468" on="0"/>
        <pt x="78" y="800" on="1"/>
        <pt x="78" y="1131" on="0"/>
        <pt x="312" y="1365" on="1"/>
        <pt x="547" y="1600" on="0"/>
        <pt x="878" y="1600" on="1"/>
        <pt x="1162" y="1600" on="0"/>
        <pt x="1391" y="1413" on="1"/>
        <pt x="1419" y="1386" on="0"/>
        <pt x="1419" y="1340" on="1"/>
        <pt x="1419" y="1317" on="0"/>
        <pt x="1403" y="1279" on="0"/>
        <pt x="1374" y="1250" on="0"/>
        <pt x="1335" y="1234" on="0"/>
        <pt x="1313" y="1234" on="1"/>
        <pt x="1274" y="1234" on="0"/>
        <pt x="1240" y="1264" on="1"/>
        <pt x="1164" y="1324" on="0"/>
        <pt x="981" y="1388" on="0"/>
        <pt x="878" y="1388" on="1"/>
        <pt x="634" y="1388" on="0"/>
        <pt x="461" y="1215" on="1"/>
        <pt x="290" y="1044" on="0"/>
        <pt x="290" y="800" on="1"/>
        <pt x="290" y="555" on="0"/>
        <pt x="461" y="384" on="1"/>
        <pt x="633" y="212" on="0"/>
        <pt x="878" y="212" on="1"/>
        <pt x="1087" y="212" on="0"/>
        <pt x="1246" y="341" on="1"/>
        <pt x="1272" y="359" on="0"/>
      </contour>
    </TTGlyph>
    <TTGlyph name="Cacute" xMin="78" yMin="0" xMax="1419" yMax="2079">
      <component glyphName="C" x="0" y="0" flags="0x200"/>
      <component glyphName="acute" x="641" y="480" flags="0x0"/>
    </TTGlyph>
    <TTGlyph name="Ccaron" xMin="78" yMin="0" xMax="1419" yMax="2080">
      <component glyphName="C" x="0" y="0" flags="0x200"/>
      <component glyphName="caron" x="479" y="480" flags="0x0"/>
    </TTGlyph>
    <TTGlyph name="Ccedilla" xMin="78" yMin="-479" xMax="1419" yMax="1600">
      <component glyphName="C" x="0" y="0" flags="0x200"/>
      <component glyphName="cedilla" x="426" y="0" flags="0x0"/>
    </TTGlyph>
    <TTGlyph name="Ccircumflex" xMin="78" yMin="0" xMax="1419" yMax="2080">
      <component glyphName="C" x="0" y="0" flags="0x200"/>
      <component glyphName="circumflex" x="481" y="480" flags="0x0"/>
    </TTGlyph>
    <TTGlyph name="Cdotaccent" xMin="78" yMin="0" xMax="1419" yMax="2001">
      <component glyphName="C" x="0" y="0" flags="0x200"/>
      <component glyphName="dotaccent" x="679" y="480" flags="0x0"/>
    </TTGlyph>
    <TTGlyph name="Chi" xMin="77" yMin="0" xMax="1370" yMax="1600">
      <component glyphName="X" x="1" y="0" flags="0x200"/>
    </TTGlyph>
    <TTGlyph name="D" xMin="76" yMin="0" xMax="1291" yMax="1600">
      <contour>
        <pt x="491" y="212" on="1"/>
        <pt x="734" y="212" on="0"/>
        <pt x="906" y="384" on="1"/>
        <pt x="993" y="471" on="0"/>
        <pt x="1079" y="676" on="0"/>
        <pt x="1079" y="800" on="1"/>
        <pt x="1079" y="1042" on="0"/>
        <pt x="906" y="1215" on="1"/>
        <pt x="733" y="1388" on="0"/>
        <pt x="491" y="1388" on="1"/>
        <pt x="289" y="1388" on="1"/>
        <pt x="289" y="212" on="1"/>
      </contour>
      <contour>
        <pt x="491" y="1600" on="1"/>
        <pt x="821" y="1600" on="0"/>
        <pt x="1056" y="1365" on="1"/>
        <pt x="1174" y="1247" on="0"/>
        <pt x="1291" y="968" on="0"/>
        <pt x="1291" y="800" on="1"/>
        <pt x="1291" y="469" on="0"/>
        <pt x="1056" y="234" on="1"/>
        <pt x="822" y="0" on="0"/>
        <pt x="491" y="0" on="1"/>
        <pt x="183" y="0" on="1"/>
        <pt x="161" y="0" on="0"/>
        <pt x="122" y="17" on="0"/>
        <pt x="93" y="45" on="0"/>
        <pt x="76" y="84" on="0"/>
        <pt x="76" y="106" on="1"/>
        <pt x="76" y="1494" on="1"/>
        <pt x="76" y="1516" on="0"/>
        <pt x="93" y="1555" on="0"/>
        <pt x="122" y="1583" on="0"/>
        <pt x="161" y="1600" on="0"/>
        <pt x="183" y="1600" on="1"/>
      </contour>
    </TTGlyph>
    <TTGlyph name="Dcaron" xMin="76" yMin="0" xMax="1291" yMax="2080">
      <component glyphName="D" x="0" y="0" flags="0x200"/>
      <component glyphName="caron" x="160" y="480" flags="0x0"/>
    </TTGlyph>
    <TTGlyph name="Dcroat" xMin="0" yMin="0" xMax="1445" yMax="1600">
      <component glyphName="Eth" x="0" y="0" flags="0x200"/>
    </TTGlyph>
    <TTGlyph name="Delta" xMin="82" yMin="0" xMax="1373" yMax="1600">
      <contour>
        <pt x="188" y="0" on="1"/>
        <pt x="165" y="0" on="0"/>
        <pt x="127" y="16" on="0"/>
        <pt x="98" y="46" on="0"/>
        <pt x="82" y="84" on="0"/>
        <pt x="82" y="106" on="1"/>
        <pt x="82" y="133" on="0"/>
        <pt x="93" y="160" on="1"/>
        <pt x="630" y="1533" on="1"/>
        <pt x="643" y="1562" on="0"/>
        <pt x="697" y="1600" on="0"/>
        <pt x="728" y="1600" on="1"/>
        <pt x="758" y="1600" on="0"/>
        <pt x="812" y="1564" on="0"/>
        <pt x="825" y="1533" on="1"/>
        <pt x="1361" y="160" on="1"/>
        <pt x="1373" y="130" on="0"/>
        <pt x="1373" y="106" on="1"/>
        <pt x="1373" y="84" on="0"/>
        <pt x="1356" y="46" on="0"/>
        <pt x="1327" y="16" on="0"/>
        <pt x="1289" y="0" on="0"/>
        <pt x="1266" y="0" on="1"/>
      </contour>
      <contour>
        <pt x="1111" y="212" on="1"/>
        <pt x="728" y="1200" on="1"/>
        <pt x="343" y="212" on="1"/>
      </contour>
    </TTGlyph>
    <TTGlyph name="E" xMin="76" yMin="0" xMax="1213" yMax="1600">
      <contour>
        <pt x="1107" y="212" on="1"/>
        <pt x="1151" y="212" on="0"/>
        <pt x="1213" y="150" on="0"/>
        <pt x="1213" y="106" on="1"/>
        <pt x="1213" y="62" on="0"/>
        <pt x="1151" y="0" on="0"/>
        <pt x="1107" y="0" on="1"/>
        <pt x="182" y="0" on="1"/>
        <pt x="159" y="0" on="0"/>
        <pt x="121" y="16" on="0"/>
        <pt x="92" y="45" on="0"/>
        <pt x="76" y="83" on="0"/>
        <pt x="76" y="106" on="1"/>
        <pt x="76" y="1494" on="1"/>
        <pt x="76" y="1516" on="0"/>
        <pt x="92" y="1555" on="0"/>
        <pt x="121" y="1584" on="0"/>
        <pt x="159" y="1600" on="0"/>
        <pt x="182" y="1600" on="1"/>
        <pt x="1107" y="1600" on="1"/>
        <pt x="1151" y="1600" on="0"/>
        <pt x="1213" y="1538" on="0"/>
        <pt x="1213" y="1494" on="1"/>
        <pt x="1213" y="1450" on="0"/>
        <pt x="1151" y="1388" on="0"/>
        <pt x="1107" y="1388" on="1"/>
        <pt x="288" y="1388" on="1"/>
        <pt x="288" y="906" on="1"/>
        <pt x="876" y="906" on="1"/>
        <pt x="920" y="906" on="0"/>
        <pt x="982" y="844" on="0"/>
        <pt x="982" y="800" on="1"/>
        <pt x="982" y="756" on="0"/>
        <pt x="920" y="694" on="0"/>
        <pt x="876" y="694" on="1"/>
        <pt x="288" y="694" on="1"/>
        <pt x="288" y="212" on="1"/>
      </contour>
    </TTGlyph>
    <TTGlyph name="Eacute" xMin="77" yMin="0" xMax="1214" yMax="2079">
      <component glyphName="E" x="1" y="0" flags="0x200"/>
      <component glyphName="acute" x="429" y="480" flags="0x0"/>
    </TTGlyph>
    <TTGlyph name="Ebreve" xMin="76" yMin="0" xMax="1213" yMax="2080">
      <component glyphName="E" x="0" y="0" flags="0x200"/>
      <component glyphName="breve" x="246" y="480" flags="0x0"/>
    </TTGlyph>
    <TTGlyph name="Ecaron" xMin="76" yMin="0" xMax="1213" yMax="2080">
      <component glyphName="E" x="0" y="0" flags="0x200"/>
      <component glyphName="caron" x="241" y="480" flags="0x0"/>
    </TTGlyph>
    <TTGlyph name="Ecircumflex" xMin="77" yMin="0" xMax="1214" yMax="2080">
      <component glyphName="E" x="1" y="0" flags="0x200"/>
      <component glyphName="circumflex" x="240" y="480" flags="0x0"/>
    </TTGlyph>
    <TTGlyph name="Edieresis" xMin="77" yMin="0" xMax="1214" yMax="1962">
      <component glyphName="E" x="1" y="0" flags="0x200"/>
      <component glyphName="dieresis" x="163" y="480" flags="0x0"/>
    </TTGlyph>
    <TTGlyph name="Edotaccent" xMin="76" yMin="0" xMax="1213" yMax="2001">
      <component glyphName="E" x="0" y="0" flags="0x200"/>
      <component glyphName="dotaccent" x="441" y="480" flags="0x0"/>
    </TTGlyph>
    <TTGlyph name="Egrave" xMin="77" yMin="0" xMax="1214" yMax="2079">
      <component glyphName="E" x="1" y="0" flags="0x200"/>
      <component glyphName="grave" x="295" y="480" flags="0x0"/>
    </TTGlyph>
    <TTGlyph name="Emacron" xMin="76" yMin="0" xMax="1213" yMax="1940">
      <component glyphName="E" x="0" y="0" flags="0x200"/>
      <component glyphName="uni02C9" x="241" y="480" flags="0x0"/>
    </TTGlyph>
    <TTGlyph name="Eng" xMin="77" yMin="0" xMax="1369" yMax="1600">
      <contour>
        <pt x="289" y="106" on="1"/>
        <pt x="289" y="83" on="0"/>
        <pt x="273" y="45" on="0"/>
        <pt x="244" y="16" on="0"/>
        <pt x="205" y="0" on="0"/>
        <pt x="183" y="0" on="1"/>
        <pt x="160" y="0" on="0"/>
        <pt x="122" y="16" on="0"/>
        <pt x="93" y="45" on="0"/>
        <pt x="77" y="83" on="0"/>
        <pt x="77" y="106" on="1"/>
        <pt x="77" y="1494" on="1"/>
        <pt x="77" y="1516" on="0"/>
        <pt x="93" y="1555" on="0"/>
        <pt x="122" y="1584" on="0"/>
        <pt x="160" y="1600" on="0"/>
        <pt x="183" y="1600" on="1"/>
        <pt x="205" y="1600" on="0"/>
        <pt x="244" y="1584" on="0"/>
        <pt x="273" y="1555" on="0"/>
        <pt x="289" y="1516" on="0"/>
        <pt x="289" y="1494" on="1"/>
        <pt x="289" y="1432" on="1"/>
        <pt x="472" y="1600" on="0"/>
        <pt x="723" y="1600" on="1"/>
        <pt x="989" y="1600" on="0"/>
        <pt x="1179" y="1410" on="1"/>
        <pt x="1369" y="1220" on="0"/>
        <pt x="1369" y="954" on="1"/>
        <pt x="1369" y="492" on="1"/>
        <pt x="1369" y="391" on="0"/>
        <pt x="1291" y="213" on="0"/>
        <pt x="1158" y="78" on="0"/>
        <pt x="979" y="0" on="0"/>
        <pt x="877" y="0" on="1"/>
        <pt x="673" y="0" on="0"/>
        <pt x="530" y="145" on="1"/>
        <pt x="498" y="175" on="0"/>
        <pt x="498" y="220" on="1"/>
        <pt x="498" y="242" on="0"/>
        <pt x="515" y="281" on="0"/>
        <pt x="544" y="309" on="0"/>
        <pt x="582" y="326" on="0"/>
        <pt x="604" y="326" on="1"/>
        <pt x="647" y="326" on="0"/>
        <pt x="680" y="295" on="1"/>
        <pt x="722" y="253" on="0"/>
        <pt x="819" y="212" on="0"/>
        <pt x="877" y="212" on="1"/>
        <pt x="935" y="212" on="0"/>
        <pt x="1038" y="256" on="0"/>
        <pt x="1113" y="333" on="0"/>
        <pt x="1157" y="435" on="0"/>
        <pt x="1157" y="492" on="1"/>
        <pt x="1157" y="954" on="1"/>
        <pt x="1157" y="1043" on="0"/>
        <pt x="1089" y="1201" on="0"/>
        <pt x="971" y="1319" on="0"/>
        <pt x="813" y="1388" on="0"/>
        <pt x="723" y="1388" on="1"/>
        <pt x="633" y="1388" on="0"/>
        <pt x="474" y="1319" on="0"/>
        <pt x="357" y="1201" on="0"/>
        <pt x="289" y="1043" on="0"/>
        <pt x="289" y="954" on="1"/>
      </contour>
    </TTGlyph>
    <TTGlyph name="Eogonek" xMin="76" yMin="-480" xMax="1225" yMax="1600">
      <component glyphName="E" x="0" y="0" flags="0x200"/>
      <component glyphName="ogonek" x="641" y="0" flags="0x0"/>
    </TTGlyph>
    <TTGlyph name="Epsilon" xMin="76" yMin="0" xMax="1213" yMax="1600">
      <component glyphName="E" x="0" y="0" flags="0x200"/>
    </TTGlyph>
    <TTGlyph name="Epsilontonos" xMin="-39" yMin="0" xMax="1556" yMax="1600">
      <contour>
        <pt x="337" y="1421" on="1"/>
        <pt x="137" y="1222" on="1"/>
        <pt x="109" y="1194" on="0"/>
        <pt x="65" y="1194" on="1"/>
        <pt x="20" y="1194" on="0"/>
        <pt x="-39" y="1253" on="0"/>
        <pt x="-39" y="1298" on="1"/>
        <pt x="-39" y="1341" on="0"/>
        <pt x="-13" y="1369" on="1"/>
        <pt x="187" y="1568" on="1"/>
        <pt x="219" y="1599" on="0"/>
        <pt x="261" y="1599" on="1"/>
        <pt x="306" y="1599" on="0"/>
        <pt x="365" y="1538" on="0"/>
        <pt x="365" y="1494" on="1"/>
        <pt x="365" y="1449" on="0"/>
      </contour>
      <contour>
        <pt x="1450" y="212" on="1"/>
        <pt x="1494" y="212" on="0"/>
        <pt x="1556" y="150" on="0"/>
        <pt x="1556" y="106" on="1"/>
        <pt x="1556" y="62" on="0"/>
        <pt x="1494" y="0" on="0"/>
        <pt x="1450" y="0" on="1"/>
        <pt x="525" y="0" on="1"/>
        <pt x="502" y="0" on="0"/>
        <pt x="464" y="16" on="0"/>
        <pt x="435" y="45" on="0"/>
        <pt x="419" y="83" on="0"/>
        <pt x="419" y="106" on="1"/>
        <pt x="419" y="1494" on="1"/>
        <pt x="419" y="1516" on="0"/>
        <pt x="435" y="1555" on="0"/>
        <pt x="464" y="1584" on="0"/>
        <pt x="502" y="1600" on="0"/>
        <pt x="525" y="1600" on="1"/>
        <pt x="1450" y="1600" on="1"/>
        <pt x="1494" y="1600" on="0"/>
        <pt x="1556" y="1538" on="0"/>
        <pt x="1556" y="1494" on="1"/>
        <pt x="1556" y="1450" on="0"/>
        <pt x="1494" y="1388" on="0"/>
        <pt x="1450" y="1388" on="1"/>
        <pt x="631" y="1388" on="1"/>
        <pt x="631" y="906" on="1"/>
        <pt x="1219" y="906" on="1"/>
        <pt x="1263" y="906" on="0"/>
        <pt x="1325" y="844" on="0"/>
        <pt x="1325" y="800" on="1"/>
        <pt x="1325" y="756" on="0"/>
        <pt x="1263" y="694" on="0"/>
        <pt x="1219" y="694" on="1"/>
        <pt x="631" y="694" on="1"/>
        <pt x="631" y="212" on="1"/>
      </contour>
    </TTGlyph>
    <TTGlyph name="Eta" xMin="76" yMin="0" xMax="1213" yMax="1600">
      <component glyphName="H" x="0" y="0" flags="0x200"/>
    </TTGlyph>
    <TTGlyph name="Etatonos" xMin="-41" yMin="0" xMax="1553" yMax="1600">
      <contour>
        <pt x="335" y="1421" on="1"/>
        <pt x="135" y="1222" on="1"/>
        <pt x="107" y="1194" on="0"/>
        <pt x="63" y="1194" on="1"/>
        <pt x="18" y="1194" on="0"/>
        <pt x="-41" y="1253" on="0"/>
        <pt x="-41" y="1298" on="1"/>
        <pt x="-41" y="1341" on="0"/>
        <pt x="-15" y="1369" on="1"/>
        <pt x="185" y="1568" on="1"/>
        <pt x="217" y="1599" on="0"/>
        <pt x="259" y="1599" on="1"/>
        <pt x="304" y="1599" on="0"/>
        <pt x="363" y="1538" on="0"/>
        <pt x="363" y="1494" on="1"/>
        <pt x="363" y="1449" on="0"/>
      </contour>
      <contour>
        <pt x="1553" y="106" on="1"/>
        <pt x="1553" y="62" on="0"/>
        <pt x="1491" y="0" on="0"/>
        <pt x="1447" y="0" on="1"/>
        <pt x="1403" y="0" on="0"/>
        <pt x="1341" y="62" on="0"/>
        <pt x="1341" y="106" on="1"/>
        <pt x="1341" y="694" on="1"/>
        <pt x="628" y="694" on="1"/>
        <pt x="628" y="106" on="1"/>
        <pt x="628" y="62" on="0"/>
        <pt x="566" y="0" on="0"/>
        <pt x="522" y="0" on="1"/>
        <pt x="478" y="0" on="0"/>
        <pt x="416" y="62" on="0"/>
        <pt x="416" y="106" on="1"/>
        <pt x="416" y="1494" on="1"/>
        <pt x="416" y="1538" on="0"/>
        <pt x="478" y="1600" on="0"/>
        <pt x="522" y="1600" on="1"/>
        <pt x="566" y="1600" on="0"/>
        <pt x="628" y="1538" on="0"/>
        <pt x="628" y="1494" on="1"/>
        <pt x="628" y="906" on="1"/>
        <pt x="1341" y="906" on="1"/>
        <pt x="1341" y="1494" on="1"/>
        <pt x="1341" y="1538" on="0"/>
        <pt x="1403" y="1600" on="0"/>
        <pt x="1447" y="1600" on="1"/>
        <pt x="1491" y="1600" on="0"/>
        <pt x="1553" y="1538" on="0"/>
        <pt x="1553" y="1494" on="1"/>
      </contour>
    </TTGlyph>
    <TTGlyph name="Eth" xMin="0" yMin="0" xMax="1445" yMax="1600">
      <contour>
        <pt x="230" y="906" on="1"/>
        <pt x="230" y="1494" on="1"/>
        <pt x="230" y="1516" on="0"/>
        <pt x="247" y="1555" on="0"/>
        <pt x="276" y="1583" on="0"/>
        <pt x="314" y="1600" on="0"/>
        <pt x="336" y="1600" on="1"/>
        <pt x="645" y="1600" on="1"/>
        <pt x="975" y="1600" on="0"/>
        <pt x="1210" y="1365" on="1"/>
        <pt x="1328" y="1247" on="0"/>
        <pt x="1445" y="968" on="0"/>
        <pt x="1445" y="800" on="1"/>
        <pt x="1445" y="469" on="0"/>
        <pt x="1210" y="234" on="1"/>
        <pt x="976" y="0" on="0"/>
        <pt x="645" y="0" on="1"/>
        <pt x="336" y="0" on="1"/>
        <pt x="314" y="0" on="0"/>
        <pt x="276" y="17" on="0"/>
        <pt x="247" y="45" on="0"/>
        <pt x="230" y="84" on="0"/>
        <pt x="230" y="106" on="1"/>
        <pt x="230" y="694" on="1"/>
        <pt x="106" y="694" on="1"/>
        <pt x="83" y="694" on="0"/>
        <pt x="45" y="710" on="0"/>
        <pt x="16" y="739" on="0"/>
        <pt x="0" y="777" on="0"/>
        <pt x="0" y="800" on="1"/>
        <pt x="0" y="822" on="0"/>
        <pt x="16" y="861" on="0"/>
        <pt x="45" y="890" on="0"/>
        <pt x="83" y="906" on="0"/>
        <pt x="106" y="906" on="1"/>
      </contour>
      <contour>
        <pt x="442" y="906" on="1"/>
        <pt x="722" y="906" on="1"/>
        <pt x="767" y="906" on="0"/>
        <pt x="828" y="845" on="0"/>
        <pt x="828" y="800" on="1"/>
        <pt x="828" y="777" on="0"/>
        <pt x="812" y="739" on="0"/>
        <pt x="783" y="710" on="0"/>
        <pt x="744" y="694" on="0"/>
        <pt x="722" y="694" on="1"/>
        <pt x="442" y="694" on="1"/>
        <pt x="442" y="212" on="1"/>
        <pt x="645" y="212" on="1"/>
        <pt x="888" y="212" on="0"/>
        <pt x="1060" y="384" on="1"/>
        <pt x="1147" y="471" on="0"/>
        <pt x="1233" y="676" on="0"/>
        <pt x="1233" y="800" on="1"/>
        <pt x="1233" y="1042" on="0"/>
        <pt x="1060" y="1215" on="1"/>
        <pt x="887" y="1388" on="0"/>
        <pt x="645" y="1388" on="1"/>
        <pt x="442" y="1388" on="1"/>
      </contour>
    </TTGlyph>
    <TTGlyph name="Euro" xMin="82" yMin="0" xMax="1423" yMax="1599">
      <contour>
        <pt x="1190" y="1059" on="1"/>
        <pt x="1235" y="1059" on="0"/>
        <pt x="1295" y="999" on="0"/>
        <pt x="1295" y="954" on="1"/>
        <pt x="1295" y="908" on="0"/>
        <pt x="1235" y="847" on="0"/>
        <pt x="1190" y="847" on="1"/>
        <pt x="295" y="847" on="1"/>
        <pt x="291" y="799" on="0"/>
        <pt x="295" y="751" on="1"/>
        <pt x="1190" y="751" on="1"/>
        <pt x="1235" y="751" on="0"/>
        <pt x="1295" y="691" on="0"/>
        <pt x="1295" y="645" on="1"/>
        <pt x="1295" y="599" on="0"/>
        <pt x="1235" y="540" on="0"/>
        <pt x="1190" y="540" on="1"/>
        <pt x="353" y="540" on="1"/>
        <pt x="392" y="462" on="0"/>
        <pt x="506" y="339" on="0"/>
        <pt x="644" y="256" on="0"/>
        <pt x="800" y="212" on="0"/>
        <pt x="881" y="212" on="1"/>
        <pt x="1090" y="212" on="0"/>
        <pt x="1250" y="341" on="1"/>
        <pt x="1278" y="360" on="0"/>
        <pt x="1311" y="360" on="1"/>
        <pt x="1333" y="360" on="0"/>
        <pt x="1371" y="344" on="0"/>
        <pt x="1401" y="314" on="0"/>
        <pt x="1417" y="276" on="0"/>
        <pt x="1417" y="255" on="1"/>
        <pt x="1417" y="209" on="0"/>
        <pt x="1384" y="179" on="1"/>
        <pt x="1161" y="0" on="0"/>
        <pt x="881" y="0" on="1"/>
        <pt x="552" y="0" on="0"/>
        <pt x="316" y="234" on="1"/>
        <pt x="82" y="467" on="0"/>
        <pt x="82" y="799" on="1"/>
        <pt x="82" y="1129" on="0"/>
        <pt x="316" y="1363" on="1"/>
        <pt x="552" y="1599" on="0"/>
        <pt x="881" y="1599" on="1"/>
        <pt x="1164" y="1599" on="0"/>
        <pt x="1395" y="1411" on="1"/>
        <pt x="1423" y="1383" on="0"/>
        <pt x="1423" y="1338" on="1"/>
        <pt x="1423" y="1292" on="0"/>
        <pt x="1361" y="1232" on="0"/>
        <pt x="1316" y="1232" on="1"/>
        <pt x="1275" y="1232" on="0"/>
        <pt x="1243" y="1262" on="1"/>
        <pt x="1167" y="1323" on="0"/>
        <pt x="983" y="1387" on="0"/>
        <pt x="881" y="1387" on="1"/>
        <pt x="799" y="1387" on="0"/>
        <pt x="644" y="1344" on="0"/>
        <pt x="507" y="1261" on="0"/>
        <pt x="393" y="1138" on="0"/>
        <pt x="353" y="1059" on="1"/>
      </contour>
    </TTGlyph>
    <TTGlyph name="F" xMin="76" yMin="0" xMax="1213" yMax="1600">
      <contour>
        <pt x="76" y="106" on="1"/>
        <pt x="76" y="1494" on="1"/>
        <pt x="76" y="1516" on="0"/>
        <pt x="92" y="1555" on="0"/>
        <pt x="121" y="1584" on="0"/>
        <pt x="159" y="1600" on="0"/>
        <pt x="182" y="1600" on="1"/>
        <pt x="1107" y="1600" on="1"/>
        <pt x="1151" y="1600" on="0"/>
        <pt x="1213" y="1538" on="0"/>
        <pt x="1213" y="1494" on="1"/>
        <pt x="1213" y="1450" on="0"/>
        <pt x="1151" y="1388" on="0"/>
        <pt x="1107" y="1388" on="1"/>
        <pt x="288" y="1388" on="1"/>
        <pt x="288" y="906" on="1"/>
        <pt x="876" y="906" on="1"/>
        <pt x="920" y="906" on="0"/>
        <pt x="982" y="844" on="0"/>
        <pt x="982" y="800" on="1"/>
        <pt x="982" y="756" on="0"/>
        <pt x="920" y="694" on="0"/>
        <pt x="876" y="694" on="1"/>
        <pt x="288" y="694" on="1"/>
        <pt x="288" y="106" on="1"/>
        <pt x="288" y="62" on="0"/>
        <pt x="226" y="0" on="0"/>
        <pt x="182" y="0" on="1"/>
        <pt x="138" y="0" on="0"/>
        <pt x="76" y="62" on="0"/>
      </contour>
    </TTGlyph>
    <TTGlyph name="G" xMin="78" yMin="0" xMax="1419" yMax="1600">
      <contour>
        <pt x="1414" y="254" on="1"/>
        <pt x="1414" y="212" on="0"/>
        <pt x="1381" y="178" on="1"/>
        <pt x="1158" y="0" on="0"/>
        <pt x="878" y="0" on="1"/>
        <pt x="546" y="0" on="0"/>
        <pt x="312" y="234" on="1"/>
        <pt x="78" y="468" on="0"/>
        <pt x="78" y="800" on="1"/>
        <pt x="78" y="1131" on="0"/>
        <pt x="312" y="1365" on="1"/>
        <pt x="547" y="1600" on="0"/>
        <pt x="878" y="1600" on="1"/>
        <pt x="1162" y="1600" on="0"/>
        <pt x="1391" y="1413" on="1"/>
        <pt x="1419" y="1387" on="0"/>
        <pt x="1419" y="1340" on="1"/>
        <pt x="1419" y="1317" on="0"/>
        <pt x="1403" y="1279" on="0"/>
        <pt x="1374" y="1250" on="0"/>
        <pt x="1335" y="1234" on="0"/>
        <pt x="1313" y="1234" on="1"/>
        <pt x="1272" y="1234" on="0"/>
        <pt x="1240" y="1264" on="1"/>
        <pt x="1164" y="1324" on="0"/>
        <pt x="981" y="1388" on="0"/>
        <pt x="878" y="1388" on="1"/>
        <pt x="634" y="1388" on="0"/>
        <pt x="461" y="1215" on="1"/>
        <pt x="290" y="1044" on="0"/>
        <pt x="290" y="800" on="1"/>
        <pt x="290" y="555" on="0"/>
        <pt x="461" y="384" on="1"/>
        <pt x="633" y="212" on="0"/>
        <pt x="878" y="212" on="1"/>
        <pt x="1059" y="212" on="0"/>
        <pt x="1202" y="307" on="1"/>
        <pt x="1202" y="617" on="1"/>
        <pt x="926" y="617" on="1"/>
        <pt x="881" y="617" on="0"/>
        <pt x="820" y="678" on="0"/>
        <pt x="820" y="723" on="1"/>
        <pt x="820" y="745" on="0"/>
        <pt x="836" y="784" on="0"/>
        <pt x="865" y="813" on="0"/>
        <pt x="903" y="829" on="0"/>
        <pt x="926" y="829" on="1"/>
        <pt x="1309" y="829" on="1"/>
        <pt x="1330" y="829" on="0"/>
        <pt x="1368" y="812" on="0"/>
        <pt x="1397" y="783" on="0"/>
        <pt x="1414" y="744" on="0"/>
        <pt x="1414" y="723" on="1"/>
      </contour>
    </TTGlyph>
    <TTGlyph name="Gamma" xMin="76" yMin="0" xMax="1214" yMax="1600">
      <contour>
        <pt x="76" y="1494" on="1"/>
        <pt x="76" y="1516" on="0"/>
        <pt x="93" y="1554" on="0"/>
        <pt x="122" y="1583" on="0"/>
        <pt x="161" y="1600" on="0"/>
        <pt x="183" y="1600" on="1"/>
        <pt x="1108" y="1600" on="1"/>
        <pt x="1130" y="1600" on="0"/>
        <pt x="1169" y="1584" on="0"/>
        <pt x="1198" y="1555" on="0"/>
        <pt x="1214" y="1516" on="0"/>
        <pt x="1214" y="1494" on="1"/>
        <pt x="1214" y="1471" on="0"/>
        <pt x="1198" y="1433" on="0"/>
        <pt x="1169" y="1404" on="0"/>
        <pt x="1130" y="1388" on="0"/>
        <pt x="1108" y="1388" on="1"/>
        <pt x="288" y="1388" on="1"/>
        <pt x="288" y="106" on="1"/>
        <pt x="288" y="83" on="0"/>
        <pt x="272" y="45" on="0"/>
        <pt x="243" y="16" on="0"/>
        <pt x="204" y="0" on="0"/>
        <pt x="182" y="0" on="1"/>
        <pt x="159" y="0" on="0"/>
        <pt x="121" y="16" on="0"/>
        <pt x="92" y="45" on="0"/>
        <pt x="76" y="83" on="0"/>
        <pt x="76" y="106" on="1"/>
      </contour>
    </TTGlyph>
    <TTGlyph name="Gbreve" xMin="78" yMin="0" xMax="1419" yMax="2080">
      <component glyphName="G" x="0" y="0" flags="0x200"/>
      <component glyphName="breve" x="485" y="480" flags="0x0"/>
    </TTGlyph>
    <TTGlyph name="Gcircumflex" xMin="78" yMin="0" xMax="1419" yMax="2080">
      <component glyphName="G" x="0" y="0" flags="0x200"/>
      <component glyphName="circumflex" x="480" y="480" flags="0x0"/>
    </TTGlyph>
    <TTGlyph name="Gcommaaccent" xMin="78" yMin="-479" xMax="1419" yMax="1600">
      <component glyphName="G" x="0" y="0" flags="0x200"/>
      <component glyphName="commaaccent" x="559" y="1" flags="0x0"/>
    </TTGlyph>
    <TTGlyph name="Gdotaccent" xMin="78" yMin="0" xMax="1419" yMax="2001">
      <component glyphName="G" x="0" y="0" flags="0x200"/>
      <component glyphName="dotaccent" x="680" y="480" flags="0x0"/>
    </TTGlyph>
    <TTGlyph name="H" xMin="76" yMin="0" xMax="1213" yMax="1600">
      <contour>
        <pt x="1213" y="106" on="1"/>
        <pt x="1213" y="62" on="0"/>
        <pt x="1151" y="0" on="0"/>
        <pt x="1107" y="0" on="1"/>
        <pt x="1063" y="0" on="0"/>
        <pt x="1001" y="62" on="0"/>
        <pt x="1001" y="106" on="1"/>
        <pt x="1001" y="694" on="1"/>
        <pt x="288" y="694" on="1"/>
        <pt x="288" y="106" on="1"/>
        <pt x="288" y="62" on="0"/>
        <pt x="226" y="0" on="0"/>
        <pt x="182" y="0" on="1"/>
        <pt x="138" y="0" on="0"/>
        <pt x="76" y="62" on="0"/>
        <pt x="76" y="106" on="1"/>
        <pt x="76" y="1494" on="1"/>
        <pt x="76" y="1538" on="0"/>
        <pt x="138" y="1600" on="0"/>
        <pt x="182" y="1600" on="1"/>
        <pt x="226" y="1600" on="0"/>
        <pt x="288" y="1538" on="0"/>
        <pt x="288" y="1494" on="1"/>
        <pt x="288" y="906" on="1"/>
        <pt x="1001" y="906" on="1"/>
        <pt x="1001" y="1494" on="1"/>
        <pt x="1001" y="1538" on="0"/>
        <pt x="1063" y="1600" on="0"/>
        <pt x="1107" y="1600" on="1"/>
        <pt x="1151" y="1600" on="0"/>
        <pt x="1213" y="1538" on="0"/>
        <pt x="1213" y="1494" on="1"/>
      </contour>
    </TTGlyph>
    <TTGlyph name="Hbar" xMin="79" yMin="0" xMax="1524" yMax="1600">
      <contour>
        <pt x="233" y="1330" on="1"/>
        <pt x="233" y="1494" on="1"/>
        <pt x="233" y="1516" on="0"/>
        <pt x="249" y="1555" on="0"/>
        <pt x="278" y="1584" on="0"/>
        <pt x="316" y="1600" on="0"/>
        <pt x="339" y="1600" on="1"/>
        <pt x="361" y="1600" on="0"/>
        <pt x="400" y="1584" on="0"/>
        <pt x="429" y="1555" on="0"/>
        <pt x="445" y="1516" on="0"/>
        <pt x="445" y="1494" on="1"/>
        <pt x="445" y="1330" on="1"/>
        <pt x="1158" y="1330" on="1"/>
        <pt x="1158" y="1494" on="1"/>
        <pt x="1158" y="1516" on="0"/>
        <pt x="1174" y="1555" on="0"/>
        <pt x="1203" y="1584" on="0"/>
        <pt x="1241" y="1600" on="0"/>
        <pt x="1264" y="1600" on="1"/>
        <pt x="1286" y="1600" on="0"/>
        <pt x="1325" y="1584" on="0"/>
        <pt x="1354" y="1555" on="0"/>
        <pt x="1370" y="1516" on="0"/>
        <pt x="1370" y="1494" on="1"/>
        <pt x="1370" y="1330" on="1"/>
        <pt x="1418" y="1330" on="1"/>
        <pt x="1440" y="1330" on="0"/>
        <pt x="1479" y="1314" on="0"/>
        <pt x="1508" y="1285" on="0"/>
        <pt x="1524" y="1246" on="0"/>
        <pt x="1524" y="1224" on="1"/>
        <pt x="1524" y="1201" on="0"/>
        <pt x="1508" y="1163" on="0"/>
        <pt x="1479" y="1134" on="0"/>
        <pt x="1440" y="1118" on="0"/>
        <pt x="1418" y="1118" on="1"/>
        <pt x="1370" y="1118" on="1"/>
        <pt x="1370" y="106" on="1"/>
        <pt x="1370" y="83" on="0"/>
        <pt x="1354" y="45" on="0"/>
        <pt x="1325" y="16" on="0"/>
        <pt x="1286" y="0" on="0"/>
        <pt x="1264" y="0" on="1"/>
        <pt x="1241" y="0" on="0"/>
        <pt x="1203" y="16" on="0"/>
        <pt x="1174" y="45" on="0"/>
        <pt x="1158" y="83" on="0"/>
        <pt x="1158" y="106" on="1"/>
        <pt x="1158" y="694" on="1"/>
        <pt x="445" y="694" on="1"/>
        <pt x="445" y="106" on="1"/>
        <pt x="445" y="83" on="0"/>
        <pt x="429" y="45" on="0"/>
        <pt x="400" y="16" on="0"/>
        <pt x="361" y="0" on="0"/>
        <pt x="339" y="0" on="1"/>
        <pt x="316" y="0" on="0"/>
        <pt x="278" y="16" on="0"/>
        <pt x="249" y="45" on="0"/>
        <pt x="233" y="83" on="0"/>
        <pt x="233" y="106" on="1"/>
        <pt x="233" y="1118" on="1"/>
        <pt x="185" y="1118" on="1"/>
        <pt x="162" y="1118" on="0"/>
        <pt x="124" y="1134" on="0"/>
        <pt x="95" y="1163" on="0"/>
        <pt x="79" y="1201" on="0"/>
        <pt x="79" y="1224" on="1"/>
        <pt x="79" y="1246" on="0"/>
        <pt x="95" y="1285" on="0"/>
        <pt x="124" y="1314" on="0"/>
        <pt x="162" y="1330" on="0"/>
        <pt x="185" y="1330" on="1"/>
      </contour>
      <contour>
        <pt x="445" y="1118" on="1"/>
        <pt x="445" y="906" on="1"/>
        <pt x="1158" y="906" on="1"/>
        <pt x="1158" y="1118" on="1"/>
      </contour>
    </TTGlyph>
    <TTGlyph name="Hcircumflex" xMin="76" yMin="0" xMax="1213" yMax="2080">
      <component glyphName="H" x="0" y="0" flags="0x200"/>
      <component glyphName="circumflex" x="240" y="480" flags="0x0"/>
    </TTGlyph>
    <TTGlyph name="I" xMin="146" yMin="0" xMax="358" yMax="1600">
      <contour>
        <pt x="358" y="106" on="1"/>
        <pt x="358" y="62" on="0"/>
        <pt x="296" y="0" on="0"/>
        <pt x="252" y="0" on="1"/>
        <pt x="208" y="0" on="0"/>
        <pt x="146" y="62" on="0"/>
        <pt x="146" y="106" on="1"/>
        <pt x="146" y="1494" on="1"/>
        <pt x="146" y="1538" on="0"/>
        <pt x="208" y="1600" on="0"/>
        <pt x="252" y="1600" on="1"/>
        <pt x="296" y="1600" on="0"/>
        <pt x="358" y="1538" on="0"/>
        <pt x="358" y="1494" on="1"/>
      </contour>
    </TTGlyph>
    <TTGlyph name="IJ" xMin="146" yMin="0" xMax="1457" yMax="1600">
      <component glyphName="I" x="0" y="0" flags="0x0"/>
      <component glyphName="J" x="400" y="0" flags="0x0"/>
    </TTGlyph>
    <TTGlyph name="Iacute" xMin="72" yMin="0" xMax="476" yMax="2079">
      <component glyphName="I" x="-9" y="0" flags="0x200"/>
      <component glyphName="acute" x="-32" y="480" flags="0x0"/>
    </TTGlyph>
    <TTGlyph name="Ibreve" xMin="-83" yMin="0" xMax="583" yMax="2080">
      <component glyphName="I" x="7" y="0" flags="0x200"/>
      <component glyphName="breve" x="-147" y="480" flags="0x0"/>
    </TTGlyph>
    <TTGlyph name="Icircumflex" xMin="-83" yMin="0" xMax="581" yMax="2080">
      <component glyphName="I" x="-9" y="0" flags="0x200"/>
      <component glyphName="circumflex" x="-147" y="480" flags="0x0"/>
    </TTGlyph>
    <TTGlyph name="Idieresis" xMin="-104" yMin="0" xMax="597" yMax="1962">
      <component glyphName="I" x="-9" y="0" flags="0x200"/>
      <component glyphName="dieresis" x="-236" y="480" flags="0x0"/>
    </TTGlyph>
    <TTGlyph name="Idotaccent" xMin="99" yMin="0" xMax="383" yMax="2001">
      <component glyphName="I" x="0" y="0" flags="0x200"/>
      <component glyphName="dotaccent" x="40" y="480" flags="0x0"/>
    </TTGlyph>
    <TTGlyph name="Igrave" xMin="-3" yMin="0" xMax="401" yMax="2079">
      <component glyphName="I" x="-9" y="0" flags="0x200"/>
      <component glyphName="grave" x="-74" y="480" flags="0x0"/>
    </TTGlyph>
    <TTGlyph name="Imacron" xMin="-83" yMin="0" xMax="581" yMax="1940">
      <component glyphName="I" x="10" y="0" flags="0x200"/>
      <component glyphName="uni02C9" x="-147" y="480" flags="0x0"/>
    </TTGlyph>
    <TTGlyph name="Iogonek" xMin="-1" yMin="-381" xMax="511" yMax="1600">
      <component glyphName="I" x="0" y="0" flags="0x200"/>
      <component glyphName="ogonek" x="-73" y="99" flags="0x0"/>
    </TTGlyph>
    <TTGlyph name="Iota" xMin="146" yMin="0" xMax="358" yMax="1600">
      <component glyphName="I" x="0" y="0" flags="0x200"/>
    </TTGlyph>
    <TTGlyph name="Iotadieresis" xMin="-98" yMin="0" xMax="603" yMax="1962">
      <contour>
        <pt x="359" y="106" on="1"/>
        <pt x="359" y="62" on="0"/>
        <pt x="297" y="0" on="0"/>
        <pt x="253" y="0" on="1"/>
        <pt x="209" y="0" on="0"/>
        <pt x="147" y="62" on="0"/>
        <pt x="147" y="106" on="1"/>
        <pt x="147" y="1494" on="1"/>
        <pt x="147" y="1538" on="0"/>
        <pt x="209" y="1600" on="0"/>
        <pt x="253" y="1600" on="1"/>
        <pt x="297" y="1600" on="0"/>
        <pt x="359" y="1538" on="0"/>
        <pt x="359" y="1494" on="1"/>
      </contour>
      <contour>
        <pt x="148" y="1839" on="1"/>
        <pt x="148" y="1788" on="0"/>
        <pt x="76" y="1716" on="0"/>
        <pt x="25" y="1716" on="1"/>
        <pt x="-26" y="1716" on="0"/>
        <pt x="-98" y="1788" on="0"/>
        <pt x="-98" y="1839" on="1"/>
        <pt x="-98" y="1890" on="0"/>
        <pt x="-26" y="1962" on="0"/>
        <pt x="25" y="1962" on="1"/>
        <pt x="76" y="1962" on="0"/>
        <pt x="148" y="1890" on="0"/>
      </contour>
      <contour>
        <pt x="603" y="1839" on="1"/>
        <pt x="603" y="1788" on="0"/>
        <pt x="531" y="1716" on="0"/>
        <pt x="480" y="1716" on="1"/>
        <pt x="429" y="1716" on="0"/>
        <pt x="357" y="1788" on="0"/>
        <pt x="357" y="1839" on="1"/>
        <pt x="357" y="1890" on="0"/>
        <pt x="429" y="1962" on="0"/>
        <pt x="480" y="1962" on="1"/>
        <pt x="531" y="1962" on="0"/>
        <pt x="603" y="1890" on="0"/>
      </contour>
    </TTGlyph>
    <TTGlyph name="Iotatonos" xMin="-41" yMin="0" xMax="639" yMax="1600">
      <contour>
        <pt x="335" y="1421" on="1"/>
        <pt x="135" y="1222" on="1"/>
        <pt x="107" y="1194" on="0"/>
        <pt x="63" y="1194" on="1"/>
        <pt x="18" y="1194" on="0"/>
        <pt x="-41" y="1253" on="0"/>
        <pt x="-41" y="1298" on="1"/>
        <pt x="-41" y="1341" on="0"/>
        <pt x="-15" y="1369" on="1"/>
        <pt x="185" y="1568" on="1"/>
        <pt x="217" y="1599" on="0"/>
        <pt x="259" y="1599" on="1"/>
        <pt x="304" y="1599" on="0"/>
        <pt x="363" y="1538" on="0"/>
        <pt x="363" y="1494" on="1"/>
        <pt x="363" y="1449" on="0"/>
      </contour>
      <contour>
        <pt x="639" y="106" on="1"/>
        <pt x="639" y="62" on="0"/>
        <pt x="577" y="0" on="0"/>
        <pt x="533" y="0" on="1"/>
        <pt x="489" y="0" on="0"/>
        <pt x="427" y="62" on="0"/>
        <pt x="427" y="106" on="1"/>
        <pt x="427" y="1494" on="1"/>
        <pt x="427" y="1538" on="0"/>
        <pt x="489" y="1600" on="0"/>
        <pt x="533" y="1600" on="1"/>
        <pt x="577" y="1600" on="0"/>
        <pt x="639" y="1538" on="0"/>
        <pt x="639" y="1494" on="1"/>
      </contour>
    </TTGlyph>
    <TTGlyph name="Itilde" xMin="-86" yMin="0" xMax="740" yMax="2029">
      <component glyphName="I" x="80" y="0" flags="0x0"/>
      <component glyphName="tilde" x="-153" y="480" flags="0x0"/>
    </TTGlyph>
    <TTGlyph name="J" xMin="74" yMin="0" xMax="1057" yMax="1600">
      <contour>
        <pt x="286" y="492" on="1"/>
        <pt x="286" y="433" on="0"/>
        <pt x="330" y="331" on="0"/>
        <pt x="405" y="256" on="0"/>
        <pt x="507" y="212" on="0"/>
        <pt x="566" y="212" on="1"/>
        <pt x="624" y="212" on="0"/>
        <pt x="726" y="256" on="0"/>
        <pt x="801" y="332" on="0"/>
        <pt x="845" y="434" on="0"/>
        <pt x="845" y="492" on="1"/>
        <pt x="845" y="1494" on="1"/>
        <pt x="845" y="1538" on="0"/>
        <pt x="907" y="1600" on="0"/>
        <pt x="951" y="1600" on="1"/>
        <pt x="995" y="1600" on="0"/>
        <pt x="1057" y="1538" on="0"/>
        <pt x="1057" y="1494" on="1"/>
        <pt x="1057" y="492" on="1"/>
        <pt x="1057" y="391" on="0"/>
        <pt x="979" y="212" on="0"/>
        <pt x="846" y="78" on="0"/>
        <pt x="667" y="0" on="0"/>
        <pt x="566" y="0" on="1"/>
        <pt x="464" y="0" on="0"/>
        <pt x="285" y="78" on="0"/>
        <pt x="152" y="213" on="0"/>
        <pt x="74" y="391" on="0"/>
        <pt x="74" y="492" on="1"/>
        <pt x="74" y="536" on="0"/>
        <pt x="136" y="598" on="0"/>
        <pt x="180" y="598" on="1"/>
        <pt x="224" y="598" on="0"/>
        <pt x="286" y="536" on="0"/>
      </contour>
    </TTGlyph>
    <TTGlyph name="Jcircumflex" xMin="74" yMin="0" xMax="1288" yMax="2080">
      <component glyphName="J" x="0" y="0" flags="0x0"/>
      <component glyphName="circumflex" x="560" y="480" flags="0x0"/>
    </TTGlyph>
    <TTGlyph name="K" xMin="75" yMin="0" xMax="1135" yMax="1600">
      <contour>
        <pt x="75" y="1494" on="1"/>
        <pt x="75" y="1538" on="0"/>
        <pt x="137" y="1600" on="0"/>
        <pt x="181" y="1600" on="1"/>
        <pt x="225" y="1600" on="0"/>
        <pt x="287" y="1538" on="0"/>
        <pt x="287" y="1494" on="1"/>
        <pt x="287" y="902" on="1"/>
        <pt x="952" y="1567" on="1"/>
        <pt x="985" y="1600" on="0"/>
        <pt x="1029" y="1600" on="1"/>
        <pt x="1051" y="1600" on="0"/>
        <pt x="1090" y="1584" on="0"/>
        <pt x="1119" y="1555" on="0"/>
        <pt x="1135" y="1516" on="0"/>
        <pt x="1135" y="1494" on="1"/>
        <pt x="1135" y="1450" on="0"/>
        <pt x="1104" y="1419" on="1"/>
        <pt x="580" y="894" on="1"/>
        <pt x="1115" y="169" on="1"/>
        <pt x="1135" y="141" on="0"/>
        <pt x="1135" y="109" on="1"/>
        <pt x="1135" y="88" on="0"/>
        <pt x="1119" y="48" on="0"/>
        <pt x="1091" y="18" on="0"/>
        <pt x="1053" y="0" on="0"/>
        <pt x="1031" y="0" on="1"/>
        <pt x="972" y="0" on="0"/>
        <pt x="942" y="45" on="1"/>
        <pt x="428" y="742" on="1"/>
        <pt x="287" y="601" on="1"/>
        <pt x="287" y="106" on="1"/>
        <pt x="287" y="62" on="0"/>
        <pt x="225" y="0" on="0"/>
        <pt x="181" y="0" on="1"/>
        <pt x="137" y="0" on="0"/>
        <pt x="75" y="62" on="0"/>
        <pt x="75" y="106" on="1"/>
      </contour>
    </TTGlyph>
    <TTGlyph name="Kappa" xMin="75" yMin="0" xMax="1135" yMax="1600">
      <component glyphName="K" x="0" y="0" flags="0x200"/>
    </TTGlyph>
    <TTGlyph name="Kcommaaccent" xMin="75" yMin="-480" xMax="1135" yMax="1600">
      <component glyphName="K" x="0" y="0" flags="0x200"/>
      <component glyphName="commaaccent" x="241" y="0" flags="0x0"/>
    </TTGlyph>
    <TTGlyph name="L" xMin="75" yMin="0" xMax="1135" yMax="1600">
      <contour>
        <pt x="75" y="1494" on="1"/>
        <pt x="75" y="1538" on="0"/>
        <pt x="137" y="1600" on="0"/>
        <pt x="181" y="1600" on="1"/>
        <pt x="225" y="1600" on="0"/>
        <pt x="287" y="1538" on="0"/>
        <pt x="287" y="1494" on="1"/>
        <pt x="287" y="212" on="1"/>
        <pt x="1029" y="212" on="1"/>
        <pt x="1073" y="212" on="0"/>
        <pt x="1135" y="150" on="0"/>
        <pt x="1135" y="106" on="1"/>
        <pt x="1135" y="62" on="0"/>
        <pt x="1073" y="0" on="0"/>
        <pt x="1029" y="0" on="1"/>
        <pt x="181" y="0" on="1"/>
        <pt x="158" y="0" on="0"/>
        <pt x="120" y="16" on="0"/>
        <pt x="91" y="45" on="0"/>
        <pt x="75" y="83" on="0"/>
        <pt x="75" y="106" on="1"/>
      </contour>
    </TTGlyph>
    <TTGlyph name="Lacute" xMin="75" yMin="0" xMax="1135" yMax="2079">
      <component glyphName="L" x="0" y="0" flags="0x200"/>
      <component glyphName="acute" x="161" y="480" flags="0x0"/>
    </TTGlyph>
    <TTGlyph name="Lambda" xMin="77" yMin="0" xMax="1369" yMax="1600">
      <contour>
        <pt x="281" y="65" on="1"/>
        <pt x="250" y="0" on="0"/>
        <pt x="183" y="0" on="1"/>
        <pt x="160" y="0" on="0"/>
        <pt x="122" y="16" on="0"/>
        <pt x="93" y="45" on="0"/>
        <pt x="77" y="83" on="0"/>
        <pt x="77" y="106" on="1"/>
        <pt x="77" y="127" on="0"/>
        <pt x="86" y="149" on="1"/>
        <pt x="622" y="1526" on="1"/>
        <pt x="654" y="1600" on="0"/>
        <pt x="723" y="1600" on="1"/>
        <pt x="792" y="1600" on="0"/>
        <pt x="824" y="1526" on="1"/>
        <pt x="1360" y="149" on="1"/>
        <pt x="1369" y="128" on="0"/>
        <pt x="1369" y="106" on="1"/>
        <pt x="1369" y="83" on="0"/>
        <pt x="1353" y="45" on="0"/>
        <pt x="1324" y="16" on="0"/>
        <pt x="1285" y="0" on="0"/>
        <pt x="1263" y="0" on="1"/>
        <pt x="1193" y="0" on="0"/>
        <pt x="1164" y="65" on="1"/>
        <pt x="723" y="1201" on="1"/>
      </contour>
    </TTGlyph>
    <TTGlyph name="Lcaron" xMin="75" yMin="0" xMax="1135" yMax="1600">
      <component glyphName="L" x="0" y="0" flags="0x200"/>
      <component glyphName="quoteright" x="359" y="0" flags="0x0"/>
    </TTGlyph>
    <TTGlyph name="Lcommaaccent" xMin="75" yMin="-480" xMax="1135" yMax="1600">
      <component glyphName="L" x="0" y="0" flags="0x200"/>
      <component glyphName="commaaccent" x="280" y="0" flags="0x0"/>
    </TTGlyph>
    <TTGlyph name="Ldot" xMin="75" yMin="0" xMax="1135" yMax="1600">
      <component glyphName="L" x="0" y="0" flags="0x200"/>
      <component glyphName="periodcentered" x="461" y="40" flags="0x0"/>
    </TTGlyph>
    <TTGlyph name="Lslash" xMin="23" yMin="0" xMax="1290" yMax="1600">
      <contour>
        <pt x="230" y="847" on="1"/>
        <pt x="230" y="1494" on="1"/>
        <pt x="230" y="1516" on="0"/>
        <pt x="246" y="1555" on="0"/>
        <pt x="275" y="1584" on="0"/>
        <pt x="313" y="1600" on="0"/>
        <pt x="336" y="1600" on="1"/>
        <pt x="358" y="1600" on="0"/>
        <pt x="397" y="1584" on="0"/>
        <pt x="426" y="1555" on="0"/>
        <pt x="442" y="1516" on="0"/>
        <pt x="442" y="1494" on="1"/>
        <pt x="442" y="1056" on="1"/>
        <pt x="492" y="1107" on="1"/>
        <pt x="523" y="1138" on="0"/>
        <pt x="568" y="1138" on="1"/>
        <pt x="590" y="1138" on="0"/>
        <pt x="628" y="1120" on="0"/>
        <pt x="657" y="1090" on="0"/>
        <pt x="674" y="1052" on="0"/>
        <pt x="674" y="1031" on="1"/>
        <pt x="674" y="988" on="0"/>
        <pt x="643" y="957" on="1"/>
        <pt x="442" y="759" on="1"/>
        <pt x="442" y="212" on="1"/>
        <pt x="1184" y="212" on="1"/>
        <pt x="1206" y="212" on="0"/>
        <pt x="1245" y="196" on="0"/>
        <pt x="1274" y="167" on="0"/>
        <pt x="1290" y="128" on="0"/>
        <pt x="1290" y="106" on="1"/>
        <pt x="1290" y="83" on="0"/>
        <pt x="1274" y="45" on="0"/>
        <pt x="1245" y="16" on="0"/>
        <pt x="1206" y="0" on="0"/>
        <pt x="1184" y="0" on="1"/>
        <pt x="336" y="0" on="1"/>
        <pt x="313" y="0" on="0"/>
        <pt x="275" y="16" on="0"/>
        <pt x="246" y="45" on="0"/>
        <pt x="230" y="83" on="0"/>
        <pt x="230" y="106" on="1"/>
        <pt x="230" y="549" on="1"/>
        <pt x="204" y="522" on="1"/>
        <pt x="175" y="491" on="0"/>
        <pt x="129" y="491" on="1"/>
        <pt x="107" y="491" on="0"/>
        <pt x="68" y="508" on="0"/>
        <pt x="40" y="537" on="0"/>
        <pt x="23" y="576" on="0"/>
        <pt x="23" y="598" on="1"/>
        <pt x="23" y="641" on="0"/>
        <pt x="54" y="672" on="1"/>
      </contour>
    </TTGlyph>
    <TTGlyph name="M" xMin="80" yMin="0" xMax="1680" yMax="1600">
      <contour>
        <pt x="80" y="106" on="1"/>
        <pt x="80" y="1494" on="1"/>
        <pt x="80" y="1516" on="0"/>
        <pt x="96" y="1555" on="0"/>
        <pt x="125" y="1584" on="0"/>
        <pt x="163" y="1600" on="0"/>
        <pt x="186" y="1600" on="1"/>
        <pt x="248" y="1600" on="0"/>
        <pt x="280" y="1543" on="1"/>
        <pt x="880" y="344" on="1"/>
        <pt x="1480" y="1543" on="1"/>
        <pt x="1516" y="1600" on="0"/>
        <pt x="1574" y="1600" on="1"/>
        <pt x="1596" y="1600" on="0"/>
        <pt x="1635" y="1584" on="0"/>
        <pt x="1664" y="1555" on="0"/>
        <pt x="1680" y="1516" on="0"/>
        <pt x="1680" y="1494" on="1"/>
        <pt x="1680" y="106" on="1"/>
        <pt x="1680" y="62" on="0"/>
        <pt x="1618" y="0" on="0"/>
        <pt x="1574" y="0" on="1"/>
        <pt x="1530" y="0" on="0"/>
        <pt x="1468" y="62" on="0"/>
        <pt x="1468" y="106" on="1"/>
        <pt x="1468" y="1044" on="1"/>
        <pt x="972" y="53" on="1"/>
        <pt x="941" y="0" on="0"/>
        <pt x="880" y="0" on="1"/>
        <pt x="814" y="0" on="0"/>
        <pt x="783" y="64" on="1"/>
        <pt x="292" y="1044" on="1"/>
        <pt x="292" y="106" on="1"/>
        <pt x="292" y="62" on="0"/>
        <pt x="230" y="0" on="0"/>
        <pt x="186" y="0" on="1"/>
        <pt x="142" y="0" on="0"/>
        <pt x="80" y="62" on="0"/>
      </contour>
    </TTGlyph>
    <TTGlyph name="Mu" xMin="80" yMin="0" xMax="1680" yMax="1600">
      <component glyphName="M" x="0" y="0" flags="0x200"/>
    </TTGlyph>
    <TTGlyph name="N" xMin="77" yMin="0" xMax="1369" yMax="1600">
      <contour>
        <pt x="77" y="106" on="1"/>
        <pt x="77" y="1494" on="1"/>
        <pt x="77" y="1516" on="0"/>
        <pt x="93" y="1555" on="0"/>
        <pt x="122" y="1584" on="0"/>
        <pt x="160" y="1600" on="0"/>
        <pt x="183" y="1600" on="1"/>
        <pt x="230" y="1600" on="0"/>
        <pt x="265" y="1561" on="1"/>
        <pt x="1157" y="414" on="1"/>
        <pt x="1157" y="1494" on="1"/>
        <pt x="1157" y="1538" on="0"/>
        <pt x="1219" y="1600" on="0"/>
        <pt x="1263" y="1600" on="1"/>
        <pt x="1307" y="1600" on="0"/>
        <pt x="1369" y="1538" on="0"/>
        <pt x="1369" y="1494" on="1"/>
        <pt x="1369" y="106" on="1"/>
        <pt x="1369" y="83" on="0"/>
        <pt x="1353" y="45" on="0"/>
        <pt x="1324" y="16" on="0"/>
        <pt x="1285" y="0" on="0"/>
        <pt x="1263" y="0" on="1"/>
        <pt x="1216" y="0" on="0"/>
        <pt x="1182" y="37" on="1"/>
        <pt x="289" y="1184" on="1"/>
        <pt x="289" y="106" on="1"/>
        <pt x="289" y="62" on="0"/>
        <pt x="227" y="0" on="0"/>
        <pt x="183" y="0" on="1"/>
        <pt x="139" y="0" on="0"/>
        <pt x="77" y="62" on="0"/>
      </contour>
    </TTGlyph>
    <TTGlyph name="Nacute" xMin="77" yMin="0" xMax="1369" yMax="2079">
      <component glyphName="N" x="0" y="0" flags="0x200"/>
      <component glyphName="acute" x="507" y="480" flags="0x0"/>
    </TTGlyph>
    <TTGlyph name="Ncaron" xMin="77" yMin="0" xMax="1369" yMax="2080">
      <component glyphName="N" x="0" y="0" flags="0x200"/>
      <component glyphName="caron" x="320" y="480" flags="0x0"/>
    </TTGlyph>
    <TTGlyph name="Ncommaaccent" xMin="77" yMin="-480" xMax="1369" yMax="1600">
      <component glyphName="N" x="0" y="0" flags="0x200"/>
      <component glyphName="commaaccent" x="400" y="0" flags="0x0"/>
    </TTGlyph>
    <TTGlyph name="Ntilde" xMin="77" yMin="0" xMax="1369" yMax="2029">
      <component glyphName="N" x="0" y="0" flags="0x200"/>
      <component glyphName="tilde" x="237" y="480" flags="0x0"/>
    </TTGlyph>
    <TTGlyph name="Nu" xMin="77" yMin="0" xMax="1369" yMax="1600">
      <component glyphName="N" x="0" y="0" flags="0x200"/>
    </TTGlyph>
    <TTGlyph name="O" xMin="80" yMin="0" xMax="1680" yMax="1600">
      <contour>
        <pt x="880" y="1388" on="1"/>
        <pt x="756" y="1388" on="0"/>
        <pt x="551" y="1302" on="0"/>
        <pt x="464" y="1215" on="1"/>
        <pt x="377" y="1128" on="0"/>
        <pt x="292" y="924" on="0"/>
        <pt x="292" y="800" on="1"/>
        <pt x="292" y="556" on="0"/>
        <pt x="464" y="384" on="1"/>
        <pt x="636" y="212" on="0"/>
        <pt x="880" y="212" on="1"/>
        <pt x="1124" y="212" on="0"/>
        <pt x="1296" y="384" on="1"/>
        <pt x="1468" y="556" on="0"/>
        <pt x="1468" y="800" on="1"/>
        <pt x="1468" y="1043" on="0"/>
        <pt x="1296" y="1215" on="1"/>
        <pt x="1123" y="1388" on="0"/>
      </contour>
      <contour>
        <pt x="1680" y="800" on="1"/>
        <pt x="1680" y="469" on="0"/>
        <pt x="1445" y="234" on="1"/>
        <pt x="1211" y="0" on="0"/>
        <pt x="880" y="0" on="1"/>
        <pt x="548" y="0" on="0"/>
        <pt x="314" y="234" on="1"/>
        <pt x="80" y="468" on="0"/>
        <pt x="80" y="800" on="1"/>
        <pt x="80" y="1131" on="0"/>
        <pt x="314" y="1365" on="1"/>
        <pt x="549" y="1600" on="0"/>
        <pt x="880" y="1600" on="1"/>
        <pt x="1210" y="1600" on="0"/>
        <pt x="1445" y="1365" on="1"/>
        <pt x="1563" y="1247" on="0"/>
        <pt x="1680" y="967" on="0"/>
      </contour>
    </TTGlyph>
    <TTGlyph name="OE" xMin="84" yMin="0" xMax="2070" yMax="1600">
      <contour>
        <pt x="884" y="1388" on="1"/>
        <pt x="640" y="1388" on="0"/>
        <pt x="467" y="1215" on="1"/>
        <pt x="296" y="1044" on="0"/>
        <pt x="296" y="800" on="1"/>
        <pt x="296" y="555" on="0"/>
        <pt x="467" y="384" on="1"/>
        <pt x="639" y="212" on="0"/>
        <pt x="884" y="212" on="1"/>
        <pt x="932" y="212" on="1"/>
        <pt x="932" y="1388" on="1"/>
      </contour>
      <contour>
        <pt x="884" y="0" on="1"/>
        <pt x="552" y="0" on="0"/>
        <pt x="318" y="234" on="1"/>
        <pt x="84" y="468" on="0"/>
        <pt x="84" y="800" on="1"/>
        <pt x="84" y="1131" on="0"/>
        <pt x="318" y="1365" on="1"/>
        <pt x="553" y="1600" on="0"/>
        <pt x="884" y="1600" on="1"/>
        <pt x="1964" y="1600" on="1"/>
        <pt x="1986" y="1600" on="0"/>
        <pt x="2025" y="1584" on="0"/>
        <pt x="2054" y="1555" on="0"/>
        <pt x="2070" y="1516" on="0"/>
        <pt x="2070" y="1494" on="1"/>
        <pt x="2070" y="1471" on="0"/>
        <pt x="2054" y="1433" on="0"/>
        <pt x="2025" y="1404" on="0"/>
        <pt x="1986" y="1388" on="0"/>
        <pt x="1964" y="1388" on="1"/>
        <pt x="1144" y="1388" on="1"/>
        <pt x="1144" y="906" on="1"/>
        <pt x="1733" y="906" on="1"/>
        <pt x="1755" y="906" on="0"/>
        <pt x="1794" y="890" on="0"/>
        <pt x="1823" y="861" on="0"/>
        <pt x="1839" y="822" on="0"/>
        <pt x="1839" y="800" on="1"/>
        <pt x="1839" y="777" on="0"/>
        <pt x="1822" y="738" on="0"/>
        <pt x="1794" y="710" on="0"/>
        <pt x="1755" y="693" on="0"/>
        <pt x="1733" y="693" on="1"/>
        <pt x="1144" y="693" on="1"/>
        <pt x="1144" y="212" on="1"/>
        <pt x="1963" y="212" on="1"/>
        <pt x="1985" y="212" on="0"/>
        <pt x="2024" y="196" on="0"/>
        <pt x="2053" y="167" on="0"/>
        <pt x="2069" y="128" on="0"/>
        <pt x="2069" y="106" on="1"/>
        <pt x="2069" y="83" on="0"/>
        <pt x="2053" y="45" on="0"/>
        <pt x="2024" y="16" on="0"/>
        <pt x="1985" y="0" on="0"/>
        <pt x="1963" y="0" on="1"/>
      </contour>
    </TTGlyph>
    <TTGlyph name="Oacute" xMin="80" yMin="0" xMax="1680" yMax="2079">
      <component glyphName="O" x="0" y="0" flags="0x200"/>
      <component glyphName="acute" x="597" y="480" flags="0x0"/>
    </TTGlyph>
    <TTGlyph name="Obreve" xMin="80" yMin="0" xMax="1680" yMax="2080">
      <component glyphName="O" x="0" y="0" flags="0x200"/>
      <component glyphName="breve" x="486" y="480" flags="0x0"/>
    </TTGlyph>
    <TTGlyph name="Ocircumflex" xMin="80" yMin="0" xMax="1680" yMax="2080">
      <component glyphName="O" x="0" y="0" flags="0x200"/>
      <component glyphName="circumflex" x="480" y="480" flags="0x0"/>
    </TTGlyph>
    <TTGlyph name="Odieresis" xMin="80" yMin="0" xMax="1680" yMax="1962">
      <component glyphName="O" x="0" y="0" flags="0x200"/>
      <component glyphName="dieresis" x="401" y="480" flags="0x0"/>
    </TTGlyph>
    <TTGlyph name="Ograve" xMin="80" yMin="0" xMax="1680" yMax="2079">
      <component glyphName="O" x="0" y="0" flags="0x200"/>
      <component glyphName="grave" x="613" y="480" flags="0x0"/>
    </TTGlyph>
    <TTGlyph name="Ohungarumlaut" xMin="80" yMin="0" xMax="1680" yMax="2079">
      <component glyphName="O" x="0" y="0" flags="0x200"/>
      <component glyphName="hungarumlaut" x="520" y="479" flags="0x0"/>
    </TTGlyph>
    <TTGlyph name="Omacron" xMin="80" yMin="0" xMax="1680" yMax="1940">
      <component glyphName="O" x="0" y="0" flags="0x200"/>
      <component glyphName="uni02C9" x="480" y="480" flags="0x0"/>
    </TTGlyph>
    <TTGlyph name="Omega" xMin="80" yMin="0" xMax="1680" yMax="1600">
      <component glyphName="uni03A9" x="0" y="0" flags="0x200"/>
    </TTGlyph>
    <TTGlyph name="Omegatonos" xMin="-42" yMin="0" xMax="1727" yMax="1600">
      <contour>
        <pt x="334" y="1421" on="1"/>
        <pt x="134" y="1222" on="1"/>
        <pt x="106" y="1194" on="0"/>
        <pt x="62" y="1194" on="1"/>
        <pt x="17" y="1194" on="0"/>
        <pt x="-42" y="1253" on="0"/>
        <pt x="-42" y="1298" on="1"/>
        <pt x="-42" y="1341" on="0"/>
        <pt x="-16" y="1369" on="1"/>
        <pt x="184" y="1568" on="1"/>
        <pt x="216" y="1599" on="0"/>
        <pt x="258" y="1599" on="1"/>
        <pt x="303" y="1599" on="0"/>
        <pt x="362" y="1538" on="0"/>
        <pt x="362" y="1494" on="1"/>
        <pt x="362" y="1449" on="0"/>
      </contour>
      <contour>
        <pt x="696" y="212" on="1"/>
        <pt x="718" y="212" on="0"/>
        <pt x="757" y="196" on="0"/>
        <pt x="786" y="167" on="0"/>
        <pt x="802" y="128" on="0"/>
        <pt x="802" y="106" on="1"/>
        <pt x="802" y="83" on="0"/>
        <pt x="786" y="45" on="0"/>
        <pt x="757" y="16" on="0"/>
        <pt x="718" y="0" on="0"/>
        <pt x="696" y="0" on="1"/>
        <pt x="233" y="0" on="1"/>
        <pt x="210" y="0" on="0"/>
        <pt x="172" y="16" on="0"/>
        <pt x="143" y="45" on="0"/>
        <pt x="127" y="83" on="0"/>
        <pt x="127" y="106" on="1"/>
        <pt x="127" y="128" on="0"/>
        <pt x="143" y="167" on="0"/>
        <pt x="172" y="196" on="0"/>
        <pt x="210" y="212" on="0"/>
        <pt x="233" y="212" on="1"/>
        <pt x="309" y="212" on="1"/>
        <pt x="218" y="333" on="0"/>
        <pt x="127" y="624" on="0"/>
        <pt x="127" y="800" on="1"/>
        <pt x="127" y="1131" on="0"/>
        <pt x="361" y="1365" on="1"/>
        <pt x="596" y="1600" on="0"/>
        <pt x="927" y="1600" on="1"/>
        <pt x="1257" y="1600" on="0"/>
        <pt x="1492" y="1365" on="1"/>
        <pt x="1610" y="1247" on="0"/>
        <pt x="1727" y="968" on="0"/>
        <pt x="1727" y="800" on="1"/>
        <pt x="1727" y="633" on="0"/>
        <pt x="1645" y="352" on="0"/>
        <pt x="1545" y="212" on="1"/>
        <pt x="1621" y="212" on="1"/>
        <pt x="1643" y="212" on="0"/>
        <pt x="1682" y="196" on="0"/>
        <pt x="1711" y="167" on="0"/>
        <pt x="1727" y="128" on="0"/>
        <pt x="1727" y="106" on="1"/>
        <pt x="1727" y="83" on="0"/>
        <pt x="1711" y="45" on="0"/>
        <pt x="1682" y="16" on="0"/>
        <pt x="1643" y="0" on="0"/>
        <pt x="1621" y="0" on="1"/>
        <pt x="1158" y="0" on="1"/>
        <pt x="1136" y="0" on="0"/>
        <pt x="1098" y="17" on="0"/>
        <pt x="1069" y="45" on="0"/>
        <pt x="1052" y="84" on="0"/>
        <pt x="1052" y="106" on="1"/>
        <pt x="1052" y="128" on="0"/>
        <pt x="1069" y="167" on="0"/>
        <pt x="1098" y="195" on="0"/>
        <pt x="1136" y="212" on="0"/>
        <pt x="1158" y="212" on="1"/>
        <pt x="1232" y="212" on="0"/>
        <pt x="1362" y="306" on="0"/>
        <pt x="1459" y="467" on="0"/>
        <pt x="1515" y="681" on="0"/>
        <pt x="1515" y="800" on="1"/>
        <pt x="1515" y="1043" on="0"/>
        <pt x="1343" y="1215" on="1"/>
        <pt x="1170" y="1388" on="0"/>
        <pt x="927" y="1388" on="1"/>
        <pt x="803" y="1388" on="0"/>
        <pt x="598" y="1302" on="0"/>
        <pt x="511" y="1215" on="1"/>
        <pt x="424" y="1128" on="0"/>
        <pt x="339" y="924" on="0"/>
        <pt x="339" y="800" on="1"/>
        <pt x="339" y="681" on="0"/>
        <pt x="395" y="467" on="0"/>
        <pt x="491" y="306" on="0"/>
        <pt x="621" y="212" on="0"/>
      </contour>
    </TTGlyph>
    <TTGlyph name="Omicron" xMin="80" yMin="0" xMax="1680" yMax="1600">
      <component glyphName="O" x="0" y="0" flags="0x200"/>
    </TTGlyph>
    <TTGlyph name="Omicrontonos" xMin="-41" yMin="0" xMax="1728" yMax="1600">
      <contour>
        <pt x="335" y="1421" on="1"/>
        <pt x="135" y="1222" on="1"/>
        <pt x="107" y="1194" on="0"/>
        <pt x="63" y="1194" on="1"/>
        <pt x="18" y="1194" on="0"/>
        <pt x="-41" y="1253" on="0"/>
        <pt x="-41" y="1298" on="1"/>
        <pt x="-41" y="1341" on="0"/>
        <pt x="-15" y="1369" on="1"/>
        <pt x="185" y="1568" on="1"/>
        <pt x="217" y="1599" on="0"/>
        <pt x="259" y="1599" on="1"/>
        <pt x="304" y="1599" on="0"/>
        <pt x="363" y="1538" on="0"/>
        <pt x="363" y="1494" on="1"/>
        <pt x="363" y="1449" on="0"/>
      </contour>
      <contour>
        <pt x="928" y="1388" on="1"/>
        <pt x="804" y="1388" on="0"/>
        <pt x="599" y="1302" on="0"/>
        <pt x="512" y="1215" on="1"/>
        <pt x="425" y="1128" on="0"/>
        <pt x="340" y="924" on="0"/>
        <pt x="340" y="800" on="1"/>
        <pt x="340" y="556" on="0"/>
        <pt x="512" y="384" on="1"/>
        <pt x="684" y="212" on="0"/>
        <pt x="928" y="212" on="1"/>
        <pt x="1172" y="212" on="0"/>
        <pt x="1344" y="384" on="1"/>
        <pt x="1516" y="556" on="0"/>
        <pt x="1516" y="800" on="1"/>
        <pt x="1516" y="1043" on="0"/>
        <pt x="1344" y="1215" on="1"/>
        <pt x="1171" y="1388" on="0"/>
      </contour>
      <contour>
        <pt x="1728" y="800" on="1"/>
        <pt x="1728" y="469" on="0"/>
        <pt x="1493" y="234" on="1"/>
        <pt x="1259" y="0" on="0"/>
        <pt x="928" y="0" on="1"/>
        <pt x="596" y="0" on="0"/>
        <pt x="362" y="234" on="1"/>
        <pt x="128" y="468" on="0"/>
        <pt x="128" y="800" on="1"/>
        <pt x="128" y="1131" on="0"/>
        <pt x="362" y="1365" on="1"/>
        <pt x="597" y="1600" on="0"/>
        <pt x="928" y="1600" on="1"/>
        <pt x="1258" y="1600" on="0"/>
        <pt x="1493" y="1365" on="1"/>
        <pt x="1611" y="1247" on="0"/>
        <pt x="1728" y="967" on="0"/>
      </contour>
    </TTGlyph>
    <TTGlyph name="Oslash" xMin="80" yMin="0" xMax="1680" yMax="1600">
      <contour>
        <pt x="1516" y="1286" on="1"/>
        <pt x="1600" y="1180" on="0"/>
        <pt x="1680" y="940" on="0"/>
        <pt x="1680" y="800" on="1"/>
        <pt x="1680" y="469" on="0"/>
        <pt x="1445" y="234" on="1"/>
        <pt x="1211" y="0" on="0"/>
        <pt x="880" y="0" on="1"/>
        <pt x="740" y="0" on="0"/>
        <pt x="500" y="80" on="0"/>
        <pt x="394" y="164" on="1"/>
        <pt x="261" y="30" on="1"/>
        <pt x="229" y="0" on="0"/>
        <pt x="186" y="0" on="1"/>
        <pt x="163" y="0" on="0"/>
        <pt x="125" y="16" on="0"/>
        <pt x="96" y="45" on="0"/>
        <pt x="80" y="83" on="0"/>
        <pt x="80" y="106" on="1"/>
        <pt x="80" y="150" on="0"/>
        <pt x="108" y="178" on="1"/>
        <pt x="244" y="314" on="1"/>
        <pt x="160" y="420" on="0"/>
        <pt x="80" y="660" on="0"/>
        <pt x="80" y="800" on="1"/>
        <pt x="80" y="1131" on="0"/>
        <pt x="314" y="1365" on="1"/>
        <pt x="549" y="1600" on="0"/>
        <pt x="880" y="1600" on="1"/>
        <pt x="1020" y="1600" on="0"/>
        <pt x="1260" y="1520" on="0"/>
        <pt x="1366" y="1436" on="1"/>
        <pt x="1499" y="1569" on="1"/>
        <pt x="1530" y="1600" on="0"/>
        <pt x="1574" y="1600" on="1"/>
        <pt x="1596" y="1600" on="0"/>
        <pt x="1635" y="1584" on="0"/>
        <pt x="1664" y="1555" on="0"/>
        <pt x="1680" y="1516" on="0"/>
        <pt x="1680" y="1494" on="1"/>
        <pt x="1680" y="1455" on="0"/>
        <pt x="1656" y="1427" on="1"/>
      </contour>
      <contour>
        <pt x="1215" y="1285" on="1"/>
        <pt x="1069" y="1388" on="0"/>
        <pt x="880" y="1388" on="1"/>
        <pt x="756" y="1388" on="0"/>
        <pt x="551" y="1302" on="0"/>
        <pt x="464" y="1215" on="1"/>
        <pt x="377" y="1128" on="0"/>
        <pt x="292" y="924" on="0"/>
        <pt x="292" y="800" on="1"/>
        <pt x="292" y="611" on="0"/>
        <pt x="395" y="466" on="1"/>
      </contour>
      <contour>
        <pt x="546" y="315" on="1"/>
        <pt x="691" y="212" on="0"/>
        <pt x="880" y="212" on="1"/>
        <pt x="1124" y="212" on="0"/>
        <pt x="1296" y="384" on="1"/>
        <pt x="1468" y="556" on="0"/>
        <pt x="1468" y="800" on="1"/>
        <pt x="1468" y="985" on="0"/>
        <pt x="1364" y="1134" on="1"/>
      </contour>
    </TTGlyph>
    <TTGlyph name="Oslashacute" xMin="80" yMin="0" xMax="1680" yMax="2079">
      <component glyphName="Oslash" x="0" y="0" flags="0x200"/>
      <component glyphName="acute" x="640" y="480" flags="0x0"/>
    </TTGlyph>
    <TTGlyph name="Otilde" xMin="80" yMin="0" xMax="1680" yMax="2029">
      <component glyphName="O" x="0" y="0" flags="0x200"/>
      <component glyphName="tilde" x="397" y="480" flags="0x0"/>
    </TTGlyph>
    <TTGlyph name="P" xMin="74" yMin="0" xMax="1019" yMax="1600">
      <contour>
        <pt x="286" y="1388" on="1"/>
        <pt x="286" y="752" on="1"/>
        <pt x="488" y="752" on="1"/>
        <pt x="553" y="752" on="0"/>
        <pt x="668" y="802" on="0"/>
        <pt x="755" y="888" on="0"/>
        <pt x="806" y="1004" on="0"/>
        <pt x="806" y="1070" on="1"/>
        <pt x="806" y="1137" on="0"/>
        <pt x="755" y="1253" on="0"/>
        <pt x="668" y="1339" on="0"/>
        <pt x="552" y="1388" on="0"/>
        <pt x="488" y="1388" on="1"/>
      </contour>
      <contour>
        <pt x="74" y="106" on="1"/>
        <pt x="74" y="1494" on="1"/>
        <pt x="74" y="1516" on="0"/>
        <pt x="90" y="1555" on="0"/>
        <pt x="119" y="1584" on="0"/>
        <pt x="157" y="1600" on="0"/>
        <pt x="180" y="1600" on="1"/>
        <pt x="488" y="1600" on="1"/>
        <pt x="560" y="1600" on="0"/>
        <pt x="695" y="1562" on="0"/>
        <pt x="813" y="1492" on="0"/>
        <pt x="911" y="1395" on="0"/>
        <pt x="980" y="1277" on="0"/>
        <pt x="1019" y="1142" on="0"/>
        <pt x="1019" y="1070" on="1"/>
        <pt x="1019" y="852" on="0"/>
        <pt x="862" y="695" on="1"/>
        <pt x="707" y="540" on="0"/>
        <pt x="488" y="540" on="1"/>
        <pt x="286" y="540" on="1"/>
        <pt x="286" y="106" on="1"/>
        <pt x="286" y="62" on="0"/>
        <pt x="224" y="0" on="0"/>
        <pt x="180" y="0" on="1"/>
        <pt x="136" y="0" on="0"/>
        <pt x="74" y="62" on="0"/>
      </contour>
    </TTGlyph>
    <TTGlyph name="Phi" xMin="80" yMin="0" xMax="1680" yMax="1600">
      <contour>
        <pt x="774" y="1228" on="1"/>
        <pt x="671" y="1215" on="0"/>
        <pt x="494" y="1135" on="0"/>
        <pt x="365" y="1020" on="0"/>
        <pt x="292" y="877" on="0"/>
        <pt x="292" y="800" on="1"/>
        <pt x="292" y="723" on="0"/>
        <pt x="366" y="580" on="0"/>
        <pt x="495" y="464" on="0"/>
        <pt x="671" y="385" on="0"/>
        <pt x="774" y="372" on="1"/>
      </contour>
      <contour>
        <pt x="986" y="372" on="1"/>
        <pt x="1089" y="385" on="0"/>
        <pt x="1266" y="464" on="0"/>
        <pt x="1395" y="579" on="0"/>
        <pt x="1468" y="723" on="0"/>
        <pt x="1468" y="800" on="1"/>
        <pt x="1468" y="878" on="0"/>
        <pt x="1394" y="1021" on="0"/>
        <pt x="1264" y="1136" on="0"/>
        <pt x="1088" y="1215" on="0"/>
        <pt x="986" y="1228" on="1"/>
      </contour>
      <contour>
        <pt x="774" y="1494" on="1"/>
        <pt x="774" y="1516" on="0"/>
        <pt x="790" y="1555" on="0"/>
        <pt x="819" y="1584" on="0"/>
        <pt x="857" y="1600" on="0"/>
        <pt x="880" y="1600" on="1"/>
        <pt x="902" y="1600" on="0"/>
        <pt x="941" y="1584" on="0"/>
        <pt x="970" y="1555" on="0"/>
        <pt x="986" y="1516" on="0"/>
        <pt x="986" y="1494" on="1"/>
        <pt x="986" y="1441" on="1"/>
        <pt x="1122" y="1430" on="0"/>
        <pt x="1343" y="1339" on="0"/>
        <pt x="1444" y="1259" on="1"/>
        <pt x="1680" y="1070" on="0"/>
        <pt x="1680" y="800" on="1"/>
        <pt x="1680" y="719" on="0"/>
        <pt x="1629" y="566" on="0"/>
        <pt x="1538" y="429" on="0"/>
        <pt x="1410" y="312" on="0"/>
        <pt x="1256" y="223" on="0"/>
        <pt x="1080" y="167" on="0"/>
        <pt x="986" y="159" on="1"/>
        <pt x="986" y="106" on="1"/>
        <pt x="986" y="83" on="0"/>
        <pt x="970" y="45" on="0"/>
        <pt x="941" y="16" on="0"/>
        <pt x="902" y="0" on="0"/>
        <pt x="880" y="0" on="1"/>
        <pt x="857" y="0" on="0"/>
        <pt x="819" y="16" on="0"/>
        <pt x="790" y="45" on="0"/>
        <pt x="774" y="83" on="0"/>
        <pt x="774" y="106" on="1"/>
        <pt x="774" y="159" on="1"/>
        <pt x="714" y="167" on="0"/>
        <pt x="590" y="200" on="0"/>
        <pt x="472" y="247" on="0"/>
        <pt x="363" y="307" on="0"/>
        <pt x="317" y="342" on="1"/>
        <pt x="206" y="436" on="0"/>
        <pt x="80" y="668" on="0"/>
        <pt x="80" y="800" on="1"/>
        <pt x="80" y="921" on="0"/>
        <pt x="191" y="1142" on="0"/>
        <pt x="381" y="1316" on="0"/>
        <pt x="633" y="1429" on="0"/>
        <pt x="774" y="1441" on="1"/>
      </contour>
    </TTGlyph>
    <TTGlyph name="Pi" xMin="76" yMin="0" xMax="1291" yMax="1600">
      <contour>
        <pt x="1185" y="1600" on="1"/>
        <pt x="1207" y="1600" on="0"/>
        <pt x="1246" y="1584" on="0"/>
        <pt x="1275" y="1555" on="0"/>
        <pt x="1291" y="1516" on="0"/>
        <pt x="1291" y="1494" on="1"/>
        <pt x="1291" y="106" on="1"/>
        <pt x="1291" y="83" on="0"/>
        <pt x="1275" y="45" on="0"/>
        <pt x="1246" y="16" on="0"/>
        <pt x="1207" y="0" on="0"/>
        <pt x="1185" y="0" on="1"/>
        <pt x="1162" y="0" on="0"/>
        <pt x="1124" y="16" on="0"/>
        <pt x="1095" y="45" on="0"/>
        <pt x="1079" y="83" on="0"/>
        <pt x="1079" y="106" on="1"/>
        <pt x="1079" y="1388" on="1"/>
        <pt x="289" y="1388" on="1"/>
        <pt x="289" y="106" on="1"/>
        <pt x="289" y="84" on="0"/>
        <pt x="272" y="45" on="0"/>
        <pt x="243" y="17" on="0"/>
        <pt x="205" y="0" on="0"/>
        <pt x="183" y="0" on="1"/>
        <pt x="161" y="0" on="0"/>
        <pt x="122" y="17" on="0"/>
        <pt x="93" y="45" on="0"/>
        <pt x="76" y="84" on="0"/>
        <pt x="76" y="106" on="1"/>
        <pt x="76" y="1494" on="1"/>
        <pt x="76" y="1516" on="0"/>
        <pt x="93" y="1555" on="0"/>
        <pt x="122" y="1583" on="0"/>
        <pt x="161" y="1600" on="0"/>
        <pt x="183" y="1600" on="1"/>
      </contour>
    </TTGlyph>
    <TTGlyph name="Psi" xMin="77" yMin="0" xMax="1369" yMax="1600">
      <contour>
        <pt x="77" y="1494" on="1"/>
        <pt x="77" y="1516" on="0"/>
        <pt x="93" y="1555" on="0"/>
        <pt x="122" y="1584" on="0"/>
        <pt x="160" y="1600" on="0"/>
        <pt x="183" y="1600" on="1"/>
        <pt x="205" y="1600" on="0"/>
        <pt x="244" y="1584" on="0"/>
        <pt x="273" y="1555" on="0"/>
        <pt x="289" y="1516" on="0"/>
        <pt x="289" y="1494" on="1"/>
        <pt x="289" y="1108" on="1"/>
        <pt x="289" y="1035" on="0"/>
        <pt x="338" y="898" on="0"/>
        <pt x="425" y="785" on="0"/>
        <pt x="546" y="703" on="0"/>
        <pt x="617" y="686" on="1"/>
        <pt x="617" y="1494" on="1"/>
        <pt x="617" y="1516" on="0"/>
        <pt x="633" y="1555" on="0"/>
        <pt x="662" y="1584" on="0"/>
        <pt x="700" y="1600" on="0"/>
        <pt x="723" y="1600" on="1"/>
        <pt x="745" y="1600" on="0"/>
        <pt x="784" y="1584" on="0"/>
        <pt x="813" y="1555" on="0"/>
        <pt x="829" y="1516" on="0"/>
        <pt x="829" y="1494" on="1"/>
        <pt x="829" y="686" on="1"/>
        <pt x="899" y="702" on="0"/>
        <pt x="1020" y="784" on="0"/>
        <pt x="1107" y="898" on="0"/>
        <pt x="1157" y="1036" on="0"/>
        <pt x="1157" y="1108" on="1"/>
        <pt x="1157" y="1494" on="1"/>
        <pt x="1157" y="1516" on="0"/>
        <pt x="1173" y="1555" on="0"/>
        <pt x="1202" y="1584" on="0"/>
        <pt x="1240" y="1600" on="0"/>
        <pt x="1263" y="1600" on="1"/>
        <pt x="1285" y="1600" on="0"/>
        <pt x="1324" y="1584" on="0"/>
        <pt x="1353" y="1555" on="0"/>
        <pt x="1369" y="1516" on="0"/>
        <pt x="1369" y="1494" on="1"/>
        <pt x="1369" y="1108" on="1"/>
        <pt x="1369" y="842" on="0"/>
        <pt x="1180" y="653" on="1"/>
        <pt x="1105" y="578" on="0"/>
        <pt x="929" y="487" on="0"/>
        <pt x="829" y="470" on="1"/>
        <pt x="829" y="106" on="1"/>
        <pt x="829" y="83" on="0"/>
        <pt x="813" y="45" on="0"/>
        <pt x="784" y="16" on="0"/>
        <pt x="745" y="0" on="0"/>
        <pt x="723" y="0" on="1"/>
        <pt x="700" y="0" on="0"/>
        <pt x="662" y="16" on="0"/>
        <pt x="633" y="45" on="0"/>
        <pt x="617" y="83" on="0"/>
        <pt x="617" y="106" on="1"/>
        <pt x="617" y="470" on="1"/>
        <pt x="517" y="487" on="0"/>
        <pt x="342" y="578" on="0"/>
        <pt x="267" y="653" on="1"/>
        <pt x="77" y="843" on="0"/>
        <pt x="77" y="1108" on="1"/>
      </contour>
    </TTGlyph>
    <TTGlyph name="Q" xMin="80" yMin="0" xMax="1680" yMax="1600">
      <contour>
        <pt x="1366" y="164" on="1"/>
        <pt x="1260" y="80" on="0"/>
        <pt x="1020" y="0" on="0"/>
        <pt x="880" y="0" on="1"/>
        <pt x="548" y="0" on="0"/>
        <pt x="314" y="234" on="1"/>
        <pt x="80" y="468" on="0"/>
        <pt x="80" y="800" on="1"/>
        <pt x="80" y="1131" on="0"/>
        <pt x="314" y="1365" on="1"/>
        <pt x="549" y="1600" on="0"/>
        <pt x="880" y="1600" on="1"/>
        <pt x="1210" y="1600" on="0"/>
        <pt x="1445" y="1365" on="1"/>
        <pt x="1563" y="1247" on="0"/>
        <pt x="1680" y="968" on="0"/>
        <pt x="1680" y="800" on="1"/>
        <pt x="1680" y="660" on="0"/>
        <pt x="1600" y="420" on="0"/>
        <pt x="1516" y="314" on="1"/>
        <pt x="1650" y="180" on="1"/>
        <pt x="1680" y="147" on="0"/>
        <pt x="1680" y="106" on="1"/>
        <pt x="1680" y="83" on="0"/>
        <pt x="1664" y="45" on="0"/>
        <pt x="1635" y="16" on="0"/>
        <pt x="1596" y="0" on="0"/>
        <pt x="1574" y="0" on="1"/>
        <pt x="1528" y="0" on="0"/>
        <pt x="1498" y="31" on="1"/>
      </contour>
      <contour>
        <pt x="1074" y="455" on="1"/>
        <pt x="1044" y="490" on="0"/>
        <pt x="1044" y="530" on="1"/>
        <pt x="1044" y="552" on="0"/>
        <pt x="1060" y="591" on="0"/>
        <pt x="1089" y="620" on="0"/>
        <pt x="1127" y="636" on="0"/>
        <pt x="1150" y="636" on="1"/>
        <pt x="1194" y="636" on="0"/>
        <pt x="1225" y="605" on="1"/>
        <pt x="1365" y="466" on="1"/>
        <pt x="1468" y="611" on="0"/>
        <pt x="1468" y="800" on="1"/>
        <pt x="1468" y="1043" on="0"/>
        <pt x="1296" y="1215" on="1"/>
        <pt x="1123" y="1388" on="0"/>
        <pt x="880" y="1388" on="1"/>
        <pt x="756" y="1388" on="0"/>
        <pt x="551" y="1302" on="0"/>
        <pt x="464" y="1215" on="1"/>
        <pt x="377" y="1128" on="0"/>
        <pt x="292" y="924" on="0"/>
        <pt x="292" y="800" on="1"/>
        <pt x="292" y="556" on="0"/>
        <pt x="464" y="384" on="1"/>
        <pt x="636" y="212" on="0"/>
        <pt x="880" y="212" on="1"/>
        <pt x="1069" y="212" on="0"/>
        <pt x="1215" y="315" on="1"/>
      </contour>
    </TTGlyph>
    <TTGlyph name="R" xMin="75" yMin="0" xMax="1135" yMax="1600">
      <contour>
        <pt x="287" y="1388" on="1"/>
        <pt x="287" y="829" on="1"/>
        <pt x="567" y="829" on="1"/>
        <pt x="625" y="829" on="0"/>
        <pt x="727" y="873" on="0"/>
        <pt x="802" y="950" on="0"/>
        <pt x="846" y="1051" on="0"/>
        <pt x="846" y="1108" on="1"/>
        <pt x="846" y="1166" on="0"/>
        <pt x="802" y="1268" on="0"/>
        <pt x="726" y="1344" on="0"/>
        <pt x="624" y="1388" on="0"/>
        <pt x="567" y="1388" on="1"/>
      </contour>
      <contour>
        <pt x="75" y="106" on="1"/>
        <pt x="75" y="1494" on="1"/>
        <pt x="75" y="1516" on="0"/>
        <pt x="91" y="1555" on="0"/>
        <pt x="120" y="1584" on="0"/>
        <pt x="158" y="1600" on="0"/>
        <pt x="181" y="1600" on="1"/>
        <pt x="567" y="1600" on="1"/>
        <pt x="668" y="1600" on="0"/>
        <pt x="847" y="1522" on="0"/>
        <pt x="980" y="1388" on="0"/>
        <pt x="1058" y="1209" on="0"/>
        <pt x="1058" y="1108" on="1"/>
        <pt x="1058" y="1042" on="0"/>
        <pt x="1025" y="917" on="0"/>
        <pt x="960" y="806" on="0"/>
        <pt x="863" y="711" on="0"/>
        <pt x="799" y="675" on="1"/>
        <pt x="1118" y="164" on="1"/>
        <pt x="1135" y="136" on="0"/>
        <pt x="1135" y="106" on="1"/>
        <pt x="1135" y="83" on="0"/>
        <pt x="1119" y="45" on="0"/>
        <pt x="1090" y="16" on="0"/>
        <pt x="1051" y="0" on="0"/>
        <pt x="1029" y="0" on="1"/>
        <pt x="973" y="0" on="0"/>
        <pt x="938" y="52" on="1"/>
        <pt x="585" y="617" on="1"/>
        <pt x="287" y="617" on="1"/>
        <pt x="287" y="106" on="1"/>
        <pt x="287" y="62" on="0"/>
        <pt x="225" y="0" on="0"/>
        <pt x="181" y="0" on="1"/>
        <pt x="137" y="0" on="0"/>
        <pt x="75" y="62" on="0"/>
      </contour>
    </TTGlyph>
    <TTGlyph name="Racute" xMin="75" yMin="0" xMax="1135" yMax="2079">
      <component glyphName="R" x="0" y="0" flags="0x200"/>
      <component glyphName="acute" x="240" y="480" flags="0x0"/>
    </TTGlyph>
    <TTGlyph name="Rcaron" xMin="75" yMin="0" xMax="1135" yMax="2080">
      <component glyphName="R" x="0" y="0" flags="0x200"/>
      <component glyphName="caron" x="81" y="480" flags="0x0"/>
    </TTGlyph>
    <TTGlyph name="Rcommaaccent" xMin="75" yMin="-480" xMax="1135" yMax="1600">
      <component glyphName="R" x="0" y="0" flags="0x200"/>
      <component glyphName="commaaccent" x="280" y="0" flags="0x0"/>
    </TTGlyph>
    <TTGlyph name="Rho" xMin="74" yMin="0" xMax="1019" yMax="1600">
      <component glyphName="P" x="0" y="0" flags="0x200"/>
    </TTGlyph>
    <TTGlyph name="S" xMin="74" yMin="0" xMax="999" yMax="1600">
      <contour>
        <pt x="95" y="222" on="1"/>
        <pt x="74" y="249" on="0"/>
        <pt x="74" y="286" on="1"/>
        <pt x="74" y="308" on="0"/>
        <pt x="90" y="347" on="0"/>
        <pt x="119" y="376" on="0"/>
        <pt x="157" y="392" on="0"/>
        <pt x="180" y="392" on="1"/>
        <pt x="239" y="392" on="0"/>
        <pt x="269" y="343" on="1"/>
        <pt x="311" y="278" on="0"/>
        <pt x="437" y="212" on="0"/>
        <pt x="510" y="212" on="1"/>
        <pt x="567" y="212" on="0"/>
        <pt x="668" y="257" on="0"/>
        <pt x="743" y="333" on="0"/>
        <pt x="787" y="436" on="0"/>
        <pt x="787" y="494" on="1"/>
        <pt x="787" y="549" on="0"/>
        <pt x="746" y="646" on="0"/>
        <pt x="676" y="719" on="0"/>
        <pt x="583" y="765" on="0"/>
        <pt x="531" y="770" on="1"/>
        <pt x="451" y="777" on="0"/>
        <pt x="313" y="847" on="0"/>
        <pt x="209" y="958" on="0"/>
        <pt x="150" y="1101" on="0"/>
        <pt x="150" y="1181" on="1"/>
        <pt x="150" y="1279" on="0"/>
        <pt x="224" y="1438" on="0"/>
        <pt x="296" y="1500" on="1"/>
        <pt x="295" y="1500" on="1"/>
        <pt x="410" y="1600" on="0"/>
        <pt x="565" y="1600" on="1"/>
        <pt x="615" y="1600" on="0"/>
        <pt x="715" y="1575" on="0"/>
        <pt x="808" y="1524" on="0"/>
        <pt x="889" y="1448" on="0"/>
        <pt x="921" y="1397" on="1"/>
        <pt x="936" y="1371" on="0"/>
        <pt x="936" y="1340" on="1"/>
        <pt x="936" y="1317" on="0"/>
        <pt x="920" y="1279" on="0"/>
        <pt x="891" y="1250" on="0"/>
        <pt x="852" y="1234" on="0"/>
        <pt x="830" y="1234" on="1"/>
        <pt x="810" y="1234" on="0"/>
        <pt x="779" y="1246" on="0"/>
        <pt x="754" y="1268" on="0"/>
        <pt x="731" y="1297" on="0"/>
        <pt x="718" y="1316" on="1"/>
        <pt x="694" y="1351" on="0"/>
        <pt x="611" y="1386" on="0"/>
        <pt x="563" y="1386" on="1"/>
        <pt x="525" y="1386" on="0"/>
        <pt x="453" y="1355" on="0"/>
        <pt x="397" y="1301" on="0"/>
        <pt x="362" y="1227" on="0"/>
        <pt x="362" y="1184" on="1"/>
        <pt x="362" y="1145" on="0"/>
        <pt x="391" y="1075" on="0"/>
        <pt x="441" y="1020" on="0"/>
        <pt x="508" y="985" on="0"/>
        <pt x="547" y="982" on="1"/>
        <pt x="640" y="975" on="0"/>
        <pt x="804" y="893" on="0"/>
        <pt x="927" y="762" on="0"/>
        <pt x="999" y="592" on="0"/>
        <pt x="999" y="498" on="1"/>
        <pt x="999" y="264" on="0"/>
        <pt x="826" y="118" on="1"/>
        <pt x="827" y="118" on="1"/>
        <pt x="688" y="0" on="0"/>
        <pt x="511" y="0" on="1"/>
        <pt x="452" y="0" on="0"/>
        <pt x="334" y="29" on="0"/>
        <pt x="225" y="85" on="0"/>
        <pt x="130" y="169" on="0"/>
      </contour>
    </TTGlyph>
    <TTGlyph name="Sacute" xMin="74" yMin="0" xMax="999" yMax="2079">
      <component glyphName="S" x="0" y="0" flags="0x200"/>
      <component glyphName="acute" x="317" y="480" flags="0x0"/>
    </TTGlyph>
    <TTGlyph name="Scaron" xMin="74" yMin="0" xMax="999" yMax="2080">
      <component glyphName="S" x="0" y="0" flags="0x200"/>
      <component glyphName="caron" x="160" y="480" flags="0x0"/>
    </TTGlyph>
    <TTGlyph name="Scedilla" xMin="74" yMin="-479" xMax="999" yMax="1600">
      <component glyphName="S" x="0" y="0" flags="0x200"/>
      <component glyphName="cedilla" x="150" y="0" flags="0x0"/>
    </TTGlyph>
    <TTGlyph name="Scircumflex" xMin="74" yMin="0" xMax="999" yMax="2080">
      <component glyphName="S" x="0" y="0" flags="0x200"/>
      <component glyphName="circumflex" x="160" y="480" flags="0x0"/>
    </TTGlyph>
    <TTGlyph name="Sigma" xMin="76" yMin="0" xMax="1213" yMax="1600">
      <contour>
        <pt x="1107" y="1600" on="1"/>
        <pt x="1129" y="1600" on="0"/>
        <pt x="1168" y="1584" on="0"/>
        <pt x="1197" y="1555" on="0"/>
        <pt x="1213" y="1516" on="0"/>
        <pt x="1213" y="1494" on="1"/>
        <pt x="1213" y="1471" on="0"/>
        <pt x="1197" y="1433" on="0"/>
        <pt x="1168" y="1404" on="0"/>
        <pt x="1129" y="1388" on="0"/>
        <pt x="1107" y="1388" on="1"/>
        <pt x="399" y="1388" on="1"/>
        <pt x="807" y="862" on="1"/>
        <pt x="828" y="833" on="0"/>
        <pt x="828" y="800" on="1"/>
        <pt x="827" y="764" on="0"/>
        <pt x="807" y="737" on="1"/>
        <pt x="399" y="212" on="1"/>
        <pt x="1107" y="212" on="1"/>
        <pt x="1129" y="212" on="0"/>
        <pt x="1168" y="196" on="0"/>
        <pt x="1197" y="167" on="0"/>
        <pt x="1213" y="128" on="0"/>
        <pt x="1213" y="106" on="1"/>
        <pt x="1213" y="83" on="0"/>
        <pt x="1197" y="45" on="0"/>
        <pt x="1168" y="16" on="0"/>
        <pt x="1129" y="0" on="0"/>
        <pt x="1107" y="0" on="1"/>
        <pt x="182" y="0" on="1"/>
        <pt x="159" y="0" on="0"/>
        <pt x="121" y="16" on="0"/>
        <pt x="92" y="45" on="0"/>
        <pt x="76" y="83" on="0"/>
        <pt x="76" y="106" on="1"/>
        <pt x="76" y="142" on="0"/>
        <pt x="93" y="165" on="1"/>
        <pt x="587" y="800" on="1"/>
        <pt x="93" y="1434" on="1"/>
        <pt x="76" y="1463" on="0"/>
        <pt x="76" y="1494" on="1"/>
        <pt x="76" y="1516" on="0"/>
        <pt x="92" y="1555" on="0"/>
        <pt x="121" y="1584" on="0"/>
        <pt x="159" y="1600" on="0"/>
        <pt x="182" y="1600" on="1"/>
      </contour>
    </TTGlyph>
    <TTGlyph name="T" xMin="77" yMin="0" xMax="1291" yMax="1600">
      <contour>
        <pt x="1185" y="1388" on="1"/>
        <pt x="790" y="1388" on="1"/>
        <pt x="790" y="106" on="1"/>
        <pt x="790" y="62" on="0"/>
        <pt x="728" y="0" on="0"/>
        <pt x="684" y="0" on="1"/>
        <pt x="640" y="0" on="0"/>
        <pt x="578" y="62" on="0"/>
        <pt x="578" y="106" on="1"/>
        <pt x="578" y="1388" on="1"/>
        <pt x="183" y="1388" on="1"/>
        <pt x="139" y="1388" on="0"/>
        <pt x="77" y="1450" on="0"/>
        <pt x="77" y="1494" on="1"/>
        <pt x="77" y="1538" on="0"/>
        <pt x="139" y="1600" on="0"/>
        <pt x="183" y="1600" on="1"/>
        <pt x="1185" y="1600" on="1"/>
        <pt x="1229" y="1600" on="0"/>
        <pt x="1291" y="1538" on="0"/>
        <pt x="1291" y="1494" on="1"/>
        <pt x="1291" y="1450" on="0"/>
        <pt x="1229" y="1388" on="0"/>
      </contour>
    </TTGlyph>
    <TTGlyph name="Tau" xMin="77" yMin="0" xMax="1291" yMax="1600">
      <component glyphName="T" x="0" y="0" flags="0x200"/>
    </TTGlyph>
    <TTGlyph name="Tbar" xMin="76" yMin="0" xMax="1291" yMax="1600">
      <contour>
        <pt x="578" y="829" on="1"/>
        <pt x="578" y="1388" on="1"/>
        <pt x="183" y="1388" on="1"/>
        <pt x="161" y="1388" on="0"/>
        <pt x="122" y="1405" on="0"/>
        <pt x="93" y="1433" on="0"/>
        <pt x="76" y="1472" on="0"/>
        <pt x="76" y="1494" on="1"/>
        <pt x="76" y="1516" on="0"/>
        <pt x="93" y="1555" on="0"/>
        <pt x="122" y="1583" on="0"/>
        <pt x="161" y="1600" on="0"/>
        <pt x="183" y="1600" on="1"/>
        <pt x="1185" y="1600" on="1"/>
        <pt x="1207" y="1600" on="0"/>
        <pt x="1246" y="1584" on="0"/>
        <pt x="1275" y="1555" on="0"/>
        <pt x="1291" y="1516" on="0"/>
        <pt x="1291" y="1494" on="1"/>
        <pt x="1291" y="1471" on="0"/>
        <pt x="1275" y="1433" on="0"/>
        <pt x="1246" y="1404" on="0"/>
        <pt x="1207" y="1388" on="0"/>
        <pt x="1185" y="1388" on="1"/>
        <pt x="790" y="1388" on="1"/>
        <pt x="790" y="829" on="1"/>
        <pt x="1069" y="829" on="1"/>
        <pt x="1091" y="829" on="0"/>
        <pt x="1130" y="813" on="0"/>
        <pt x="1159" y="784" on="0"/>
        <pt x="1175" y="745" on="0"/>
        <pt x="1175" y="723" on="1"/>
        <pt x="1175" y="700" on="0"/>
        <pt x="1159" y="662" on="0"/>
        <pt x="1130" y="633" on="0"/>
        <pt x="1091" y="617" on="0"/>
        <pt x="1069" y="617" on="1"/>
        <pt x="790" y="617" on="1"/>
        <pt x="790" y="106" on="1"/>
        <pt x="790" y="83" on="0"/>
        <pt x="774" y="45" on="0"/>
        <pt x="745" y="16" on="0"/>
        <pt x="706" y="0" on="0"/>
        <pt x="684" y="0" on="1"/>
        <pt x="661" y="0" on="0"/>
        <pt x="623" y="16" on="0"/>
        <pt x="594" y="45" on="0"/>
        <pt x="578" y="83" on="0"/>
        <pt x="578" y="106" on="1"/>
        <pt x="578" y="617" on="1"/>
        <pt x="298" y="617" on="1"/>
        <pt x="275" y="617" on="0"/>
        <pt x="237" y="633" on="0"/>
        <pt x="208" y="662" on="0"/>
        <pt x="192" y="700" on="0"/>
        <pt x="192" y="723" on="1"/>
        <pt x="192" y="745" on="0"/>
        <pt x="208" y="784" on="0"/>
        <pt x="237" y="813" on="0"/>
        <pt x="275" y="829" on="0"/>
        <pt x="298" y="829" on="1"/>
      </contour>
    </TTGlyph>
    <TTGlyph name="Tcaron" xMin="77" yMin="0" xMax="1291" yMax="2080">
      <component glyphName="T" x="0" y="0" flags="0x200"/>
      <component glyphName="caron" x="279" y="480" flags="0x0"/>
    </TTGlyph>
    <TTGlyph name="Tcommaaccent" xMin="77" yMin="-388" xMax="1291" yMax="1600">
      <component glyphName="T" x="0" y="0" flags="0x200"/>
      <component glyphName="cedilla" x="319" y="91" flags="0x0"/>
    </TTGlyph>
    <TTGlyph name="Theta" xMin="80" yMin="0" xMax="1680" yMax="1600">
      <component glyphName="O" x="0" y="0" flags="0x200"/>
      <component glyphName="macron" x="320" y="-971" flags="0x0"/>
    </TTGlyph>
    <TTGlyph name="Thorn" xMin="76" yMin="0" xMax="1213" yMax="1600">
      <contour>
        <pt x="76" y="1494" on="1"/>
        <pt x="76" y="1516" on="0"/>
        <pt x="92" y="1555" on="0"/>
        <pt x="121" y="1584" on="0"/>
        <pt x="159" y="1600" on="0"/>
        <pt x="182" y="1600" on="1"/>
        <pt x="204" y="1600" on="0"/>
        <pt x="243" y="1584" on="0"/>
        <pt x="272" y="1555" on="0"/>
        <pt x="288" y="1516" on="0"/>
        <pt x="288" y="1494" on="1"/>
        <pt x="288" y="1292" on="1"/>
        <pt x="722" y="1292" on="1"/>
        <pt x="822" y="1292" on="0"/>
        <pt x="1001" y="1214" on="0"/>
        <pt x="1135" y="1080" on="0"/>
        <pt x="1213" y="901" on="0"/>
        <pt x="1213" y="800" on="1"/>
        <pt x="1213" y="698" on="0"/>
        <pt x="1134" y="519" on="0"/>
        <pt x="1000" y="385" on="0"/>
        <pt x="822" y="308" on="0"/>
        <pt x="722" y="308" on="1"/>
        <pt x="288" y="308" on="1"/>
        <pt x="288" y="106" on="1"/>
        <pt x="288" y="83" on="0"/>
        <pt x="272" y="45" on="0"/>
        <pt x="243" y="16" on="0"/>
        <pt x="204" y="0" on="0"/>
        <pt x="182" y="0" on="1"/>
        <pt x="159" y="0" on="0"/>
        <pt x="121" y="16" on="0"/>
        <pt x="92" y="45" on="0"/>
        <pt x="76" y="83" on="0"/>
        <pt x="76" y="106" on="1"/>
      </contour>
      <contour>
        <pt x="722" y="520" on="1"/>
        <pt x="780" y="520" on="0"/>
        <pt x="882" y="564" on="0"/>
        <pt x="957" y="640" on="0"/>
        <pt x="1001" y="742" on="0"/>
        <pt x="1001" y="800" on="1"/>
        <pt x="1001" y="858" on="0"/>
        <pt x="957" y="960" on="0"/>
        <pt x="881" y="1036" on="0"/>
        <pt x="779" y="1080" on="0"/>
        <pt x="722" y="1080" on="1"/>
        <pt x="288" y="1080" on="1"/>
        <pt x="288" y="520" on="1"/>
      </contour>
    </TTGlyph>
    <TTGlyph name="U" xMin="76" yMin="0" xMax="1213" yMax="1600">
      <contour>
        <pt x="288" y="1494" on="1"/>
        <pt x="288" y="569" on="1"/>
        <pt x="288" y="496" on="0"/>
        <pt x="344" y="366" on="0"/>
        <pt x="440" y="269" on="0"/>
        <pt x="570" y="212" on="0"/>
        <pt x="644" y="212" on="1"/>
        <pt x="718" y="212" on="0"/>
        <pt x="848" y="268" on="0"/>
        <pt x="945" y="366" on="0"/>
        <pt x="1001" y="495" on="0"/>
        <pt x="1001" y="569" on="1"/>
        <pt x="1001" y="1494" on="1"/>
        <pt x="1001" y="1538" on="0"/>
        <pt x="1063" y="1600" on="0"/>
        <pt x="1107" y="1600" on="1"/>
        <pt x="1151" y="1600" on="0"/>
        <pt x="1213" y="1538" on="0"/>
        <pt x="1213" y="1494" on="1"/>
        <pt x="1213" y="569" on="1"/>
        <pt x="1213" y="491" on="0"/>
        <pt x="1172" y="347" on="0"/>
        <pt x="1098" y="220" on="0"/>
        <pt x="994" y="116" on="0"/>
        <pt x="867" y="41" on="0"/>
        <pt x="722" y="0" on="0"/>
        <pt x="644" y="0" on="1"/>
        <pt x="408" y="0" on="0"/>
        <pt x="243" y="167" on="1"/>
        <pt x="76" y="334" on="0"/>
        <pt x="76" y="569" on="1"/>
        <pt x="76" y="1494" on="1"/>
        <pt x="76" y="1538" on="0"/>
        <pt x="138" y="1600" on="0"/>
        <pt x="182" y="1600" on="1"/>
        <pt x="226" y="1600" on="0"/>
        <pt x="288" y="1538" on="0"/>
      </contour>
    </TTGlyph>
    <TTGlyph name="Uacute" xMin="76" yMin="0" xMax="1213" yMax="2079">
      <component glyphName="U" x="0" y="0" flags="0x200"/>
      <component glyphName="acute" x="427" y="480" flags="0x0"/>
    </TTGlyph>
    <TTGlyph name="Ubreve" xMin="76" yMin="0" xMax="1213" yMax="2080">
      <component glyphName="U" x="0" y="0" flags="0x200"/>
      <component glyphName="breve" x="246" y="480" flags="0x0"/>
    </TTGlyph>
    <TTGlyph name="Ucircumflex" xMin="76" yMin="0" xMax="1213" yMax="2080">
      <component glyphName="U" x="0" y="0" flags="0x200"/>
      <component glyphName="circumflex" x="240" y="480" flags="0x0"/>
    </TTGlyph>
    <TTGlyph name="Udieresis" xMin="76" yMin="0" xMax="1213" yMax="1962">
      <component glyphName="U" x="0" y="0" flags="0x200"/>
      <component glyphName="dieresis" x="161" y="480" flags="0x0"/>
    </TTGlyph>
    <TTGlyph name="Ugrave" xMin="76" yMin="0" xMax="1213" yMax="2079">
      <component glyphName="U" x="0" y="0" flags="0x200"/>
      <component glyphName="grave" x="293" y="480" flags="0x0"/>
    </TTGlyph>
    <TTGlyph name="Uhungarumlaut" xMin="76" yMin="0" xMax="1213" yMax="2080">
      <component glyphName="U" x="0" y="0" flags="0x200"/>
      <component glyphName="hungarumlaut" x="280" y="480" flags="0x0"/>
    </TTGlyph>
    <TTGlyph name="Umacron" xMin="76" yMin="0" xMax="1213" yMax="1940">
      <component glyphName="U" x="0" y="0" flags="0x200"/>
      <component glyphName="uni02C9" x="240" y="480" flags="0x0"/>
    </TTGlyph>
    <TTGlyph name="Uogonek" xMin="76" yMin="-477" xMax="1213" yMax="1600">
      <component glyphName="U" x="0" y="0" flags="0x200"/>
      <component glyphName="ogonek" x="320" y="3" flags="0x0"/>
    </TTGlyph>
    <TTGlyph name="Upsilon" xMin="76" yMin="0" xMax="1212" yMax="1600">
      <component glyphName="Y" x="0" y="0" flags="0x200"/>
    </TTGlyph>
    <TTGlyph name="Upsilondieresis" xMin="76" yMin="0" xMax="1212" yMax="1962">
      <contour>
        <pt x="268" y="1556" on="1"/>
        <pt x="644" y="993" on="1"/>
        <pt x="1020" y="1556" on="1"/>
        <pt x="1051" y="1600" on="0"/>
        <pt x="1107" y="1600" on="1"/>
        <pt x="1151" y="1600" on="0"/>
        <pt x="1212" y="1538" on="0"/>
        <pt x="1212" y="1494" on="1"/>
        <pt x="1212" y="1458" on="0"/>
        <pt x="1196" y="1434" on="1"/>
        <pt x="750" y="768" on="1"/>
        <pt x="750" y="106" on="1"/>
        <pt x="750" y="62" on="0"/>
        <pt x="688" y="0" on="0"/>
        <pt x="644" y="0" on="1"/>
        <pt x="601" y="0" on="0"/>
        <pt x="538" y="62" on="0"/>
        <pt x="538" y="106" on="1"/>
        <pt x="538" y="768" on="1"/>
        <pt x="93" y="1434" on="1"/>
        <pt x="76" y="1460" on="0"/>
        <pt x="76" y="1494" on="1"/>
        <pt x="76" y="1538" on="0"/>
        <pt x="138" y="1600" on="0"/>
        <pt x="182" y="1600" on="1"/>
        <pt x="238" y="1600" on="0"/>
      </contour>
      <contour>
        <pt x="540" y="1839" on="1"/>
        <pt x="540" y="1788" on="0"/>
        <pt x="468" y="1716" on="0"/>
        <pt x="417" y="1716" on="1"/>
        <pt x="366" y="1716" on="0"/>
        <pt x="294" y="1788" on="0"/>
        <pt x="294" y="1839" on="1"/>
        <pt x="294" y="1890" on="0"/>
        <pt x="366" y="1962" on="0"/>
        <pt x="417" y="1962" on="1"/>
        <pt x="468" y="1962" on="0"/>
        <pt x="540" y="1890" on="0"/>
      </contour>
      <contour>
        <pt x="995" y="1839" on="1"/>
        <pt x="995" y="1788" on="0"/>
        <pt x="923" y="1716" on="0"/>
        <pt x="872" y="1716" on="1"/>
        <pt x="821" y="1716" on="0"/>
        <pt x="749" y="1788" on="0"/>
        <pt x="749" y="1839" on="1"/>
        <pt x="749" y="1890" on="0"/>
        <pt x="821" y="1962" on="0"/>
        <pt x="872" y="1962" on="1"/>
        <pt x="923" y="1962" on="0"/>
        <pt x="995" y="1890" on="0"/>
      </contour>
    </TTGlyph>
    <TTGlyph name="Upsilontonos" xMin="-41" yMin="0" xMax="1553" yMax="1600">
      <contour>
        <pt x="335" y="1421" on="1"/>
        <pt x="135" y="1222" on="1"/>
        <pt x="107" y="1194" on="0"/>
        <pt x="63" y="1194" on="1"/>
        <pt x="18" y="1194" on="0"/>
        <pt x="-41" y="1253" on="0"/>
        <pt x="-41" y="1298" on="1"/>
        <pt x="-41" y="1341" on="0"/>
        <pt x="-15" y="1369" on="1"/>
        <pt x="185" y="1568" on="1"/>
        <pt x="217" y="1599" on="0"/>
        <pt x="259" y="1599" on="1"/>
        <pt x="304" y="1599" on="0"/>
        <pt x="363" y="1538" on="0"/>
        <pt x="363" y="1494" on="1"/>
        <pt x="363" y="1449" on="0"/>
      </contour>
      <contour>
        <pt x="609" y="1556" on="1"/>
        <pt x="985" y="993" on="1"/>
        <pt x="1361" y="1556" on="1"/>
        <pt x="1392" y="1600" on="0"/>
        <pt x="1448" y="1600" on="1"/>
        <pt x="1492" y="1600" on="0"/>
        <pt x="1553" y="1538" on="0"/>
        <pt x="1553" y="1494" on="1"/>
        <pt x="1553" y="1458" on="0"/>
        <pt x="1537" y="1434" on="1"/>
        <pt x="1091" y="768" on="1"/>
        <pt x="1091" y="106" on="1"/>
        <pt x="1091" y="62" on="0"/>
        <pt x="1029" y="0" on="0"/>
        <pt x="985" y="0" on="1"/>
        <pt x="942" y="0" on="0"/>
        <pt x="879" y="62" on="0"/>
        <pt x="879" y="106" on="1"/>
        <pt x="879" y="768" on="1"/>
        <pt x="434" y="1434" on="1"/>
        <pt x="417" y="1460" on="0"/>
        <pt x="417" y="1494" on="1"/>
        <pt x="417" y="1538" on="0"/>
        <pt x="479" y="1600" on="0"/>
        <pt x="523" y="1600" on="1"/>
        <pt x="579" y="1600" on="0"/>
      </contour>
    </TTGlyph>
    <TTGlyph name="Uring" xMin="76" yMin="0" xMax="1213" yMax="2079">
      <component glyphName="U" x="0" y="0" flags="0x200"/>
      <component glyphName="ring" x="359" y="480" flags="0x0"/>
    </TTGlyph>
    <TTGlyph name="Utilde" xMin="76" yMin="0" xMax="1213" yMax="2029">
      <component glyphName="U" x="0" y="0" flags="0x200"/>
      <component glyphName="tilde" x="164" y="480" flags="0x0"/>
    </TTGlyph>
    <TTGlyph name="V" xMin="77" yMin="0" xMax="1369" yMax="1600">
      <contour>
        <pt x="723" y="0" on="1"/>
        <pt x="653" y="0" on="0"/>
        <pt x="626" y="67" on="1"/>
        <pt x="89" y="1440" on="1"/>
        <pt x="77" y="1471" on="0"/>
        <pt x="77" y="1494" on="1"/>
        <pt x="77" y="1516" on="0"/>
        <pt x="93" y="1555" on="0"/>
        <pt x="122" y="1584" on="0"/>
        <pt x="160" y="1600" on="0"/>
        <pt x="183" y="1600" on="1"/>
        <pt x="253" y="1600" on="0"/>
        <pt x="281" y="1537" on="1"/>
        <pt x="723" y="400" on="1"/>
        <pt x="1165" y="1537" on="1"/>
        <pt x="1189" y="1600" on="0"/>
        <pt x="1263" y="1600" on="1"/>
        <pt x="1285" y="1600" on="0"/>
        <pt x="1324" y="1584" on="0"/>
        <pt x="1353" y="1555" on="0"/>
        <pt x="1369" y="1516" on="0"/>
        <pt x="1369" y="1494" on="1"/>
        <pt x="1369" y="1468" on="0"/>
        <pt x="1357" y="1440" on="1"/>
        <pt x="820" y="67" on="1"/>
        <pt x="793" y="0" on="0"/>
      </contour>
    </TTGlyph>
    <TTGlyph name="W" xMin="82" yMin="0" xMax="1835" yMax="1600">
      <contour>
        <pt x="288" y="1529" on="1"/>
        <pt x="573" y="502" on="1"/>
        <pt x="857" y="1528" on="1"/>
        <pt x="865" y="1559" on="0"/>
        <pt x="922" y="1600" on="0"/>
        <pt x="959" y="1600" on="1"/>
        <pt x="991" y="1600" on="0"/>
        <pt x="1048" y="1563" on="0"/>
        <pt x="1059" y="1529" on="1"/>
        <pt x="1344" y="502" on="1"/>
        <pt x="1630" y="1529" on="1"/>
        <pt x="1637" y="1551" on="0"/>
        <pt x="1655" y="1569" on="1"/>
        <pt x="1686" y="1600" on="0"/>
        <pt x="1730" y="1600" on="1"/>
        <pt x="1774" y="1600" on="0"/>
        <pt x="1835" y="1538" on="0"/>
        <pt x="1835" y="1494" on="1"/>
        <pt x="1834" y="1474" on="0"/>
        <pt x="1828" y="1452" on="1"/>
        <pt x="1451" y="86" on="1"/>
        <pt x="1437" y="47" on="0"/>
        <pt x="1381" y="0" on="0"/>
        <pt x="1344" y="0" on="1"/>
        <pt x="1299" y="0" on="0"/>
        <pt x="1270" y="32" on="1"/>
        <pt x="1249" y="54" on="0"/>
        <pt x="1238" y="84" on="1"/>
        <pt x="959" y="1095" on="1"/>
        <pt x="680" y="86" on="1"/>
        <pt x="666" y="47" on="0"/>
        <pt x="610" y="0" on="0"/>
        <pt x="573" y="0" on="1"/>
        <pt x="528" y="0" on="0"/>
        <pt x="498" y="32" on="1"/>
        <pt x="478" y="52" on="0"/>
        <pt x="467" y="84" on="1"/>
        <pt x="88" y="1453" on="1"/>
        <pt x="82" y="1476" on="0"/>
        <pt x="82" y="1494" on="1"/>
        <pt x="82" y="1538" on="0"/>
        <pt x="144" y="1600" on="0"/>
        <pt x="188" y="1600" on="1"/>
        <pt x="232" y="1600" on="0"/>
        <pt x="263" y="1569" on="1"/>
        <pt x="280" y="1551" on="0"/>
      </contour>
    </TTGlyph>
    <TTGlyph name="Wacute" xMin="82" yMin="0" xMax="1835" yMax="2079">
      <component glyphName="W" x="0" y="0" flags="0x200"/>
      <component glyphName="acute" x="747" y="480" flags="0x0"/>
    </TTGlyph>
    <TTGlyph name="Wcircumflex" xMin="82" yMin="0" xMax="1835" yMax="2080">
      <component glyphName="W" x="0" y="0" flags="0x200"/>
      <component glyphName="circumflex" x="560" y="480" flags="0x0"/>
    </TTGlyph>
    <TTGlyph name="Wdieresis" xMin="82" yMin="0" xMax="1835" yMax="1962">
      <component glyphName="W" x="0" y="0" flags="0x200"/>
      <component glyphName="dieresis" x="481" y="480" flags="0x0"/>
    </TTGlyph>
    <TTGlyph name="Wgrave" xMin="82" yMin="0" xMax="1835" yMax="2079">
      <component glyphName="W" x="0" y="0" flags="0x200"/>
      <component glyphName="grave" x="613" y="480" flags="0x0"/>
    </TTGlyph>
    <TTGlyph name="X" xMin="76" yMin="0" xMax="1369" yMax="1600">
      <contour>
        <pt x="257" y="31" on="1"/>
        <pt x="226" y="0" on="0"/>
        <pt x="182" y="0" on="1"/>
        <pt x="138" y="0" on="0"/>
        <pt x="76" y="61" on="0"/>
        <pt x="76" y="105" on="1"/>
        <pt x="76" y="143" on="0"/>
        <pt x="99" y="172" on="1"/>
        <pt x="588" y="800" on="1"/>
        <pt x="96" y="1432" on="1"/>
        <pt x="77" y="1459" on="0"/>
        <pt x="77" y="1494" on="1"/>
        <pt x="77" y="1538" on="0"/>
        <pt x="139" y="1600" on="0"/>
        <pt x="183" y="1600" on="1"/>
        <pt x="231" y="1600" on="0"/>
        <pt x="258" y="1569" on="1"/>
        <pt x="723" y="973" on="1"/>
        <pt x="1188" y="1569" on="1"/>
        <pt x="1216" y="1600" on="0"/>
        <pt x="1263" y="1600" on="1"/>
        <pt x="1307" y="1600" on="0"/>
        <pt x="1368" y="1538" on="0"/>
        <pt x="1368" y="1494" on="1"/>
        <pt x="1368" y="1459" on="0"/>
        <pt x="1349" y="1432" on="1"/>
        <pt x="858" y="800" on="1"/>
        <pt x="1347" y="172" on="1"/>
        <pt x="1369" y="143" on="0"/>
        <pt x="1369" y="105" on="1"/>
        <pt x="1369" y="61" on="0"/>
        <pt x="1308" y="0" on="0"/>
        <pt x="1264" y="0" on="1"/>
        <pt x="1211" y="0" on="0"/>
        <pt x="1181" y="38" on="1"/>
        <pt x="723" y="627" on="1"/>
      </contour>
    </TTGlyph>
    <TTGlyph name="Xi" xMin="76" yMin="0" xMax="1213" yMax="1600">
      <contour>
        <pt x="1107" y="1600" on="1"/>
        <pt x="1129" y="1600" on="0"/>
        <pt x="1168" y="1584" on="0"/>
        <pt x="1197" y="1555" on="0"/>
        <pt x="1213" y="1516" on="0"/>
        <pt x="1213" y="1494" on="1"/>
        <pt x="1213" y="1471" on="0"/>
        <pt x="1197" y="1433" on="0"/>
        <pt x="1168" y="1404" on="0"/>
        <pt x="1129" y="1388" on="0"/>
        <pt x="1107" y="1388" on="1"/>
        <pt x="182" y="1388" on="1"/>
        <pt x="159" y="1388" on="0"/>
        <pt x="121" y="1404" on="0"/>
        <pt x="92" y="1433" on="0"/>
        <pt x="76" y="1471" on="0"/>
        <pt x="76" y="1494" on="1"/>
        <pt x="76" y="1516" on="0"/>
        <pt x="92" y="1555" on="0"/>
        <pt x="121" y="1584" on="0"/>
        <pt x="159" y="1600" on="0"/>
        <pt x="182" y="1600" on="1"/>
      </contour>
      <contour>
        <pt x="1107" y="212" on="1"/>
        <pt x="1129" y="212" on="0"/>
        <pt x="1168" y="196" on="0"/>
        <pt x="1197" y="167" on="0"/>
        <pt x="1213" y="128" on="0"/>
        <pt x="1213" y="106" on="1"/>
        <pt x="1213" y="83" on="0"/>
        <pt x="1197" y="45" on="0"/>
        <pt x="1168" y="16" on="0"/>
        <pt x="1129" y="0" on="0"/>
        <pt x="1107" y="0" on="1"/>
        <pt x="182" y="0" on="1"/>
        <pt x="159" y="0" on="0"/>
        <pt x="121" y="16" on="0"/>
        <pt x="92" y="45" on="0"/>
        <pt x="76" y="83" on="0"/>
        <pt x="76" y="106" on="1"/>
        <pt x="76" y="128" on="0"/>
        <pt x="92" y="167" on="0"/>
        <pt x="121" y="196" on="0"/>
        <pt x="159" y="212" on="0"/>
        <pt x="182" y="212" on="1"/>
      </contour>
      <contour>
        <pt x="1030" y="906" on="1"/>
        <pt x="1052" y="906" on="0"/>
        <pt x="1091" y="890" on="0"/>
        <pt x="1120" y="861" on="0"/>
        <pt x="1136" y="822" on="0"/>
        <pt x="1136" y="800" on="1"/>
        <pt x="1136" y="777" on="0"/>
        <pt x="1120" y="739" on="0"/>
        <pt x="1091" y="710" on="0"/>
        <pt x="1052" y="694" on="0"/>
        <pt x="1030" y="694" on="1"/>
        <pt x="258" y="694" on="1"/>
        <pt x="221" y="695" on="0"/>
        <pt x="187" y="725" on="1"/>
        <pt x="155" y="754" on="0"/>
        <pt x="155" y="800" on="1"/>
        <pt x="155" y="820" on="0"/>
        <pt x="171" y="858" on="0"/>
        <pt x="199" y="887" on="0"/>
        <pt x="236" y="905" on="0"/>
        <pt x="258" y="906" on="1"/>
      </contour>
    </TTGlyph>
    <TTGlyph name="Y" xMin="76" yMin="0" xMax="1212" yMax="1600">
      <contour>
        <pt x="268" y="1556" on="1"/>
        <pt x="644" y="993" on="1"/>
        <pt x="1020" y="1556" on="1"/>
        <pt x="1051" y="1600" on="0"/>
        <pt x="1107" y="1600" on="1"/>
        <pt x="1151" y="1600" on="0"/>
        <pt x="1212" y="1538" on="0"/>
        <pt x="1212" y="1494" on="1"/>
        <pt x="1212" y="1458" on="0"/>
        <pt x="1196" y="1434" on="1"/>
        <pt x="750" y="768" on="1"/>
        <pt x="750" y="106" on="1"/>
        <pt x="750" y="62" on="0"/>
        <pt x="688" y="0" on="0"/>
        <pt x="644" y="0" on="1"/>
        <pt x="601" y="0" on="0"/>
        <pt x="538" y="62" on="0"/>
        <pt x="538" y="106" on="1"/>
        <pt x="538" y="768" on="1"/>
        <pt x="93" y="1434" on="1"/>
        <pt x="76" y="1460" on="0"/>
        <pt x="76" y="1494" on="1"/>
        <pt x="76" y="1538" on="0"/>
        <pt x="138" y="1600" on="0"/>
        <pt x="182" y="1600" on="1"/>
        <pt x="238" y="1600" on="0"/>
      </contour>
    </TTGlyph>
    <TTGlyph name="Yacute" xMin="76" yMin="0" xMax="1212" yMax="2079">
      <component glyphName="Y" x="0" y="0" flags="0x200"/>
      <component glyphName="acute" x="427" y="480" flags="0x0"/>
    </TTGlyph>
    <TTGlyph name="Ycircumflex" xMin="76" yMin="0" xMax="1212" yMax="2080">
      <component glyphName="Y" x="0" y="0" flags="0x200"/>
      <component glyphName="circumflex" x="240" y="480" flags="0x0"/>
    </TTGlyph>
    <TTGlyph name="Ydieresis" xMin="76" yMin="0" xMax="1212" yMax="1962">
      <component glyphName="Y" x="0" y="0" flags="0x200"/>
      <component glyphName="dieresis" x="161" y="480" flags="0x0"/>
    </TTGlyph>
    <TTGlyph name="Ygrave" xMin="76" yMin="0" xMax="1212" yMax="2079">
      <component glyphName="Y" x="0" y="0" flags="0x200"/>
      <component glyphName="grave" x="293" y="480" flags="0x0"/>
    </TTGlyph>
    <TTGlyph name="Z" xMin="77" yMin="0" xMax="1369" yMax="1600">
      <contour>
        <pt x="183" y="1600" on="1"/>
        <pt x="1263" y="1600" on="1"/>
        <pt x="1285" y="1600" on="0"/>
        <pt x="1324" y="1584" on="0"/>
        <pt x="1353" y="1555" on="0"/>
        <pt x="1369" y="1516" on="0"/>
        <pt x="1369" y="1494" on="1"/>
        <pt x="1369" y="1461" on="0"/>
        <pt x="1349" y="1432" on="1"/>
        <pt x="400" y="212" on="1"/>
        <pt x="1263" y="212" on="1"/>
        <pt x="1308" y="211" on="0"/>
        <pt x="1369" y="149" on="0"/>
        <pt x="1369" y="105" on="1"/>
        <pt x="1369" y="61" on="0"/>
        <pt x="1308" y="0" on="0"/>
        <pt x="1264" y="0" on="1"/>
        <pt x="183" y="0" on="1"/>
        <pt x="160" y="0" on="0"/>
        <pt x="122" y="16" on="0"/>
        <pt x="93" y="45" on="0"/>
        <pt x="77" y="83" on="0"/>
        <pt x="77" y="106" on="1"/>
        <pt x="78" y="144" on="0"/>
        <pt x="99" y="172" on="1"/>
        <pt x="1046" y="1388" on="1"/>
        <pt x="183" y="1388" on="1"/>
        <pt x="140" y="1388" on="0"/>
        <pt x="77" y="1450" on="0"/>
        <pt x="77" y="1494" on="1"/>
        <pt x="77" y="1538" on="0"/>
        <pt x="140" y="1600" on="0"/>
      </contour>
    </TTGlyph>
    <TTGlyph name="Zacute" xMin="77" yMin="0" xMax="1369" yMax="2079">
      <component glyphName="Z" x="0" y="0" flags="0x200"/>
      <component glyphName="acute" x="507" y="480" flags="0x0"/>
    </TTGlyph>
    <TTGlyph name="Zcaron" xMin="77" yMin="0" xMax="1369" yMax="2080">
      <component glyphName="Z" x="0" y="0" flags="0x200"/>
      <component glyphName="caron" x="320" y="480" flags="0x0"/>
    </TTGlyph>
    <TTGlyph name="Zdotaccent" xMin="77" yMin="0" xMax="1369" yMax="2001">
      <component glyphName="Z" x="0" y="0" flags="0x200"/>
      <component glyphName="dotaccent" x="520" y="480" flags="0x0"/>
    </TTGlyph>
    <TTGlyph name="Zeta" xMin="77" yMin="0" xMax="1369" yMax="1600">
      <component glyphName="Z" x="0" y="0" flags="0x200"/>
    </TTGlyph>
    <TTGlyph name="a" xMin="80" yMin="0" xMax="1200" yMax="1120">
      <contour>
        <pt x="640" y="911" on="1"/>
        <pt x="566" y="911" on="0"/>
        <pt x="438" y="855" on="0"/>
        <pt x="344" y="760" on="0"/>
        <pt x="289" y="632" on="0"/>
        <pt x="289" y="560" on="1"/>
        <pt x="289" y="488" on="0"/>
        <pt x="344" y="360" on="0"/>
        <pt x="438" y="265" on="0"/>
        <pt x="566" y="209" on="0"/>
        <pt x="640" y="209" on="1"/>
        <pt x="713" y="209" on="0"/>
        <pt x="841" y="265" on="0"/>
        <pt x="936" y="361" on="0"/>
        <pt x="991" y="488" on="0"/>
        <pt x="991" y="560" on="1"/>
        <pt x="991" y="632" on="0"/>
        <pt x="936" y="759" on="0"/>
        <pt x="841" y="855" on="0"/>
        <pt x="713" y="911" on="0"/>
      </contour>
      <contour>
        <pt x="991" y="104" on="1"/>
        <pt x="991" y="124" on="1"/>
        <pt x="916" y="64" on="0"/>
        <pt x="740" y="0" on="0"/>
        <pt x="640" y="0" on="1"/>
        <pt x="408" y="0" on="0"/>
        <pt x="244" y="164" on="1"/>
        <pt x="80" y="328" on="0"/>
        <pt x="80" y="560" on="1"/>
        <pt x="80" y="792" on="0"/>
        <pt x="244" y="956" on="1"/>
        <pt x="408" y="1120" on="0"/>
        <pt x="640" y="1120" on="1"/>
        <pt x="870" y="1120" on="0"/>
        <pt x="1036" y="956" on="1"/>
        <pt x="1200" y="792" on="0"/>
        <pt x="1200" y="560" on="1"/>
        <pt x="1200" y="104" on="1"/>
        <pt x="1200" y="61" on="0"/>
        <pt x="1139" y="0" on="0"/>
        <pt x="1096" y="0" on="1"/>
        <pt x="1052" y="0" on="0"/>
        <pt x="991" y="61" on="0"/>
      </contour>
    </TTGlyph>
    <TTGlyph name="aacute" xMin="80" yMin="0" xMax="1200" yMax="1599">
      <component glyphName="a" x="0" y="0" flags="0x200"/>
      <component glyphName="acute" x="376" y="0" flags="0x0"/>
    </TTGlyph>
    <TTGlyph name="abreve" xMin="80" yMin="0" xMax="1200" yMax="1600">
      <component glyphName="a" x="0" y="0" flags="0x200"/>
      <component glyphName="breve" x="246" y="0" flags="0x0"/>
    </TTGlyph>
    <TTGlyph name="acircumflex" xMin="80" yMin="0" xMax="1200" yMax="1600">
      <component glyphName="a" x="0" y="0" flags="0x200"/>
      <component glyphName="circumflex" x="240" y="0" flags="0x0"/>
    </TTGlyph>
    <TTGlyph name="acute" xMin="104" yMin="1194" xMax="508" yMax="1599">
      <contour>
        <pt x="480" y="1421" on="1"/>
        <pt x="280" y="1222" on="1"/>
        <pt x="252" y="1194" on="0"/>
        <pt x="208" y="1194" on="1"/>
        <pt x="163" y="1194" on="0"/>
        <pt x="104" y="1253" on="0"/>
        <pt x="104" y="1298" on="1"/>
        <pt x="104" y="1341" on="0"/>
        <pt x="130" y="1369" on="1"/>
        <pt x="330" y="1568" on="1"/>
        <pt x="362" y="1599" on="0"/>
        <pt x="404" y="1599" on="1"/>
        <pt x="449" y="1599" on="0"/>
        <pt x="508" y="1538" on="0"/>
        <pt x="508" y="1494" on="1"/>
        <pt x="508" y="1449" on="0"/>
      </contour>
    </TTGlyph>
    <TTGlyph name="adieresis" xMin="80" yMin="0" xMax="1200" yMax="1482">
      <component glyphName="a" x="0" y="0" flags="0x200"/>
      <component glyphName="dieresis" x="161" y="0" flags="0x0"/>
    </TTGlyph>
    <TTGlyph name="ae" xMin="92" yMin="0" xMax="2123" yMax="1120">
      <contour>
        <pt x="652" y="911" on="1"/>
        <pt x="579" y="911" on="0"/>
        <pt x="451" y="856" on="0"/>
        <pt x="356" y="761" on="0"/>
        <pt x="301" y="633" on="0"/>
        <pt x="301" y="560" on="1"/>
        <pt x="301" y="487" on="0"/>
        <pt x="356" y="359" on="0"/>
        <pt x="451" y="264" on="0"/>
        <pt x="579" y="209" on="0"/>
        <pt x="652" y="209" on="1"/>
        <pt x="725" y="209" on="0"/>
        <pt x="853" y="264" on="0"/>
        <pt x="948" y="359" on="0"/>
        <pt x="1003" y="487" on="0"/>
        <pt x="1003" y="560" on="1"/>
        <pt x="1003" y="633" on="0"/>
        <pt x="948" y="761" on="0"/>
        <pt x="853" y="856" on="0"/>
        <pt x="725" y="911" on="0"/>
      </contour>
      <contour>
        <pt x="1900" y="664" on="1"/>
        <pt x="1883" y="719" on="0"/>
        <pt x="1816" y="811" on="0"/>
        <pt x="1726" y="875" on="0"/>
        <pt x="1620" y="911" on="0"/>
        <pt x="1563" y="911" on="1"/>
        <pt x="1507" y="911" on="0"/>
        <pt x="1399" y="875" on="0"/>
        <pt x="1309" y="810" on="0"/>
        <pt x="1242" y="719" on="0"/>
        <pt x="1226" y="664" on="1"/>
      </contour>
      <contour>
        <pt x="1212" y="104" on="1"/>
        <pt x="1212" y="83" on="0"/>
        <pt x="1196" y="45" on="0"/>
        <pt x="1167" y="16" on="0"/>
        <pt x="1129" y="0" on="0"/>
        <pt x="1108" y="0" on="1"/>
        <pt x="1086" y="0" on="0"/>
        <pt x="1048" y="16" on="0"/>
        <pt x="1019" y="45" on="0"/>
        <pt x="1003" y="83" on="0"/>
        <pt x="1003" y="104" on="1"/>
        <pt x="1003" y="124" on="1"/>
        <pt x="928" y="64" on="0"/>
        <pt x="752" y="0" on="0"/>
        <pt x="652" y="0" on="1"/>
        <pt x="420" y="0" on="0"/>
        <pt x="256" y="164" on="1"/>
        <pt x="92" y="328" on="0"/>
        <pt x="92" y="560" on="1"/>
        <pt x="92" y="792" on="0"/>
        <pt x="256" y="956" on="1"/>
        <pt x="420" y="1120" on="0"/>
        <pt x="652" y="1120" on="1"/>
        <pt x="793" y="1120" on="0"/>
        <pt x="1014" y="1003" on="0"/>
        <pt x="1108" y="887" on="1"/>
        <pt x="1156" y="945" on="0"/>
        <pt x="1257" y="1032" on="0"/>
        <pt x="1368" y="1091" on="0"/>
        <pt x="1492" y="1120" on="0"/>
        <pt x="1563" y="1120" on="1"/>
        <pt x="1795" y="1120" on="0"/>
        <pt x="1959" y="956" on="1"/>
        <pt x="2123" y="792" on="0"/>
        <pt x="2123" y="560" on="1"/>
        <pt x="2123" y="515" on="0"/>
        <pt x="2064" y="456" on="0"/>
        <pt x="2019" y="456" on="1"/>
        <pt x="1226" y="456" on="1"/>
        <pt x="1244" y="399" on="0"/>
        <pt x="1311" y="308" on="0"/>
        <pt x="1400" y="244" on="0"/>
        <pt x="1506" y="209" on="0"/>
        <pt x="1563" y="209" on="1"/>
        <pt x="1629" y="209" on="0"/>
        <pt x="1739" y="249" on="0"/>
        <pt x="1786" y="289" on="1"/>
        <pt x="1818" y="315" on="0"/>
        <pt x="1855" y="315" on="1"/>
        <pt x="1899" y="315" on="0"/>
        <pt x="1960" y="256" on="0"/>
        <pt x="1960" y="211" on="1"/>
        <pt x="1960" y="166" on="0"/>
        <pt x="1929" y="136" on="1"/>
        <pt x="1774" y="0" on="0"/>
        <pt x="1563" y="0" on="1"/>
        <pt x="1463" y="0" on="0"/>
        <pt x="1287" y="64" on="0"/>
        <pt x="1212" y="124" on="1"/>
      </contour>
    </TTGlyph>
    <TTGlyph name="aeacute" xMin="92" yMin="0" xMax="2123" yMax="1599">
      <component glyphName="ae" x="0" y="0" flags="0x200"/>
      <component glyphName="acute" x="907" y="0" flags="0x0"/>
    </TTGlyph>
    <TTGlyph name="afii00208" xMin="-103" yMin="456" xMax="1545" yMax="664">
      <contour>
        <pt x="1" y="456" on="1"/>
        <pt x="-44" y="456" on="0"/>
        <pt x="-103" y="515" on="0"/>
        <pt x="-103" y="560" on="1"/>
        <pt x="-103" y="605" on="0"/>
        <pt x="-44" y="664" on="0"/>
        <pt x="1" y="664" on="1"/>
        <pt x="1441" y="664" on="1"/>
        <pt x="1486" y="664" on="0"/>
        <pt x="1545" y="605" on="0"/>
        <pt x="1545" y="560" on="1"/>
        <pt x="1545" y="515" on="0"/>
        <pt x="1486" y="456" on="0"/>
        <pt x="1441" y="456" on="1"/>
      </contour>
    </TTGlyph>
    <TTGlyph name="afii10017" xMin="77" yMin="0" xMax="1368" yMax="1600">
      <component glyphName="A" x="0" y="0" flags="0x200"/>
    </TTGlyph>
    <TTGlyph name="afii10018" xMin="74" yMin="0" xMax="1057" yMax="1600">
      <contour>
        <pt x="566" y="212" on="1"/>
        <pt x="624" y="212" on="0"/>
        <pt x="726" y="256" on="0"/>
        <pt x="801" y="332" on="0"/>
        <pt x="845" y="434" on="0"/>
        <pt x="845" y="492" on="1"/>
        <pt x="845" y="549" on="0"/>
        <pt x="801" y="651" on="0"/>
        <pt x="725" y="727" on="0"/>
        <pt x="623" y="771" on="0"/>
        <pt x="566" y="771" on="1"/>
        <pt x="286" y="771" on="1"/>
        <pt x="286" y="212" on="1"/>
      </contour>
      <contour>
        <pt x="566" y="983" on="1"/>
        <pt x="668" y="983" on="0"/>
        <pt x="846" y="905" on="0"/>
        <pt x="980" y="771" on="0"/>
        <pt x="1057" y="592" on="0"/>
        <pt x="1057" y="492" on="1"/>
        <pt x="1057" y="391" on="0"/>
        <pt x="979" y="212" on="0"/>
        <pt x="846" y="78" on="0"/>
        <pt x="667" y="0" on="0"/>
        <pt x="566" y="0" on="1"/>
        <pt x="180" y="0" on="1"/>
        <pt x="158" y="0" on="0"/>
        <pt x="120" y="17" on="0"/>
        <pt x="91" y="45" on="0"/>
        <pt x="74" y="84" on="0"/>
        <pt x="74" y="106" on="1"/>
        <pt x="74" y="1494" on="1"/>
        <pt x="74" y="1516" on="0"/>
        <pt x="91" y="1555" on="0"/>
        <pt x="120" y="1583" on="0"/>
        <pt x="158" y="1600" on="0"/>
        <pt x="180" y="1600" on="1"/>
        <pt x="797" y="1600" on="1"/>
        <pt x="819" y="1600" on="0"/>
        <pt x="858" y="1584" on="0"/>
        <pt x="887" y="1555" on="0"/>
        <pt x="903" y="1516" on="0"/>
        <pt x="903" y="1494" on="1"/>
        <pt x="903" y="1471" on="0"/>
        <pt x="887" y="1433" on="0"/>
        <pt x="858" y="1404" on="0"/>
        <pt x="819" y="1388" on="0"/>
        <pt x="797" y="1388" on="1"/>
        <pt x="286" y="1388" on="1"/>
        <pt x="286" y="983" on="1"/>
      </contour>
    </TTGlyph>
    <TTGlyph name="afii10019" xMin="74" yMin="0" xMax="1057" yMax="1600">
      <component glyphName="B" x="0" y="0" flags="0x200"/>
    </TTGlyph>
    <TTGlyph name="afii10020" xMin="74" yMin="0" xMax="1135" yMax="1600">
      <contour>
        <pt x="76" y="1494" on="1"/>
        <pt x="76" y="1516" on="0"/>
        <pt x="92" y="1555" on="0"/>
        <pt x="121" y="1584" on="0"/>
        <pt x="159" y="1600" on="0"/>
        <pt x="182" y="1600" on="1"/>
        <pt x="1029" y="1600" on="1"/>
        <pt x="1051" y="1600" on="0"/>
        <pt x="1090" y="1584" on="0"/>
        <pt x="1119" y="1555" on="0"/>
        <pt x="1135" y="1516" on="0"/>
        <pt x="1135" y="1494" on="1"/>
        <pt x="1135" y="1471" on="0"/>
        <pt x="1119" y="1433" on="0"/>
        <pt x="1090" y="1404" on="0"/>
        <pt x="1051" y="1388" on="0"/>
        <pt x="1029" y="1388" on="1"/>
        <pt x="287" y="1388" on="1"/>
        <pt x="287" y="105" on="1"/>
        <pt x="287" y="84" on="0"/>
        <pt x="270" y="46" on="0"/>
        <pt x="241" y="17" on="0"/>
        <pt x="202" y="0" on="0"/>
        <pt x="181" y="0" on="1"/>
        <pt x="131" y="0" on="0"/>
        <pt x="74" y="67" on="0"/>
        <pt x="74" y="115" on="1"/>
        <pt x="74" y="116" on="0"/>
        <pt x="76" y="122" on="1"/>
      </contour>
    </TTGlyph>
    <TTGlyph name="afii10021" xMin="79" yMin="-308" xMax="1524" yMax="1600">
      <contour>
        <pt x="417" y="212" on="1"/>
        <pt x="1186" y="212" on="1"/>
        <pt x="802" y="1200" on="1"/>
      </contour>
      <contour>
        <pt x="1524" y="106" on="1"/>
        <pt x="1524" y="-202" on="1"/>
        <pt x="1524" y="-225" on="0"/>
        <pt x="1508" y="-263" on="0"/>
        <pt x="1479" y="-292" on="0"/>
        <pt x="1440" y="-308" on="0"/>
        <pt x="1418" y="-308" on="1"/>
        <pt x="1396" y="-308" on="0"/>
        <pt x="1358" y="-291" on="0"/>
        <pt x="1329" y="-263" on="0"/>
        <pt x="1312" y="-224" on="0"/>
        <pt x="1312" y="-202" on="1"/>
        <pt x="1312" y="0" on="1"/>
        <pt x="291" y="0" on="1"/>
        <pt x="291" y="-202" on="1"/>
        <pt x="291" y="-224" on="0"/>
        <pt x="274" y="-263" on="0"/>
        <pt x="245" y="-291" on="0"/>
        <pt x="207" y="-308" on="0"/>
        <pt x="185" y="-308" on="1"/>
        <pt x="162" y="-308" on="0"/>
        <pt x="124" y="-292" on="0"/>
        <pt x="95" y="-263" on="0"/>
        <pt x="79" y="-225" on="0"/>
        <pt x="79" y="-202" on="1"/>
        <pt x="79" y="106" on="1"/>
        <pt x="79" y="128" on="0"/>
        <pt x="95" y="167" on="0"/>
        <pt x="124" y="196" on="0"/>
        <pt x="162" y="212" on="0"/>
        <pt x="189" y="212" on="1"/>
        <pt x="700" y="1526" on="1"/>
        <pt x="716" y="1565" on="0"/>
        <pt x="770" y="1600" on="0"/>
        <pt x="802" y="1600" on="1"/>
        <pt x="844" y="1600" on="0"/>
        <pt x="892" y="1555" on="0"/>
        <pt x="903" y="1526" on="1"/>
        <pt x="1415" y="212" on="1"/>
        <pt x="1440" y="212" on="0"/>
        <pt x="1479" y="196" on="0"/>
        <pt x="1508" y="167" on="0"/>
        <pt x="1524" y="128" on="0"/>
      </contour>
    </TTGlyph>
    <TTGlyph name="afii10022" xMin="76" yMin="0" xMax="1213" yMax="1600">
      <component glyphName="E" x="0" y="0" flags="0x200"/>
    </TTGlyph>
    <TTGlyph name="afii10023" xMin="76" yMin="0" xMax="1213" yMax="1962">
      <component glyphName="E" x="0" y="0" flags="0x200"/>
      <component glyphName="dieresis" x="162" y="480" flags="0x0"/>
    </TTGlyph>
    <TTGlyph name="afii10024" xMin="83" yMin="0" xMax="1991" yMax="1600">
      <contour>
        <pt x="1143" y="902" on="1"/>
        <pt x="1808" y="1567" on="1"/>
        <pt x="1841" y="1600" on="0"/>
        <pt x="1885" y="1600" on="1"/>
        <pt x="1907" y="1600" on="0"/>
        <pt x="1946" y="1584" on="0"/>
        <pt x="1975" y="1555" on="0"/>
        <pt x="1991" y="1516" on="0"/>
        <pt x="1991" y="1494" on="1"/>
        <pt x="1990" y="1450" on="0"/>
        <pt x="1961" y="1419" on="1"/>
        <pt x="1436" y="894" on="1"/>
        <pt x="1971" y="169" on="1"/>
        <pt x="1991" y="137" on="0"/>
        <pt x="1991" y="101" on="1"/>
        <pt x="1991" y="59" on="0"/>
        <pt x="1929" y="0" on="0"/>
        <pt x="1882" y="0" on="1"/>
        <pt x="1831" y="0" on="0"/>
        <pt x="1799" y="43" on="1"/>
        <pt x="1284" y="742" on="1"/>
        <pt x="1143" y="601" on="1"/>
        <pt x="1143" y="106" on="1"/>
        <pt x="1143" y="83" on="0"/>
        <pt x="1127" y="45" on="0"/>
        <pt x="1098" y="16" on="0"/>
        <pt x="1059" y="0" on="0"/>
        <pt x="1037" y="0" on="1"/>
        <pt x="1014" y="0" on="0"/>
        <pt x="976" y="16" on="0"/>
        <pt x="947" y="45" on="0"/>
        <pt x="931" y="83" on="0"/>
        <pt x="931" y="106" on="1"/>
        <pt x="931" y="601" on="1"/>
        <pt x="790" y="743" on="1"/>
        <pt x="276" y="43" on="1"/>
        <pt x="244" y="0" on="0"/>
        <pt x="192" y="0" on="1"/>
        <pt x="155" y="0" on="0"/>
        <pt x="125" y="21" on="1"/>
        <pt x="84" y="49" on="0"/>
        <pt x="83" y="101" on="1"/>
        <pt x="83" y="139" on="0"/>
        <pt x="103" y="169" on="1"/>
        <pt x="638" y="894" on="1"/>
        <pt x="113" y="1419" on="1"/>
        <pt x="83" y="1449" on="0"/>
        <pt x="83" y="1494" on="1"/>
        <pt x="83" y="1516" on="0"/>
        <pt x="99" y="1555" on="0"/>
        <pt x="128" y="1584" on="0"/>
        <pt x="166" y="1600" on="0"/>
        <pt x="189" y="1600" on="1"/>
        <pt x="233" y="1600" on="0"/>
        <pt x="266" y="1567" on="1"/>
        <pt x="931" y="902" on="1"/>
        <pt x="931" y="1494" on="1"/>
        <pt x="931" y="1516" on="0"/>
        <pt x="947" y="1555" on="0"/>
        <pt x="976" y="1584" on="0"/>
        <pt x="1014" y="1600" on="0"/>
        <pt x="1037" y="1600" on="1"/>
        <pt x="1059" y="1600" on="0"/>
        <pt x="1098" y="1584" on="0"/>
        <pt x="1127" y="1555" on="0"/>
        <pt x="1143" y="1516" on="0"/>
        <pt x="1143" y="1494" on="1"/>
      </contour>
    </TTGlyph>
    <TTGlyph name="afii10025" xMin="74" yMin="0" xMax="1019" yMax="1600">
      <contour>
        <pt x="546" y="733" on="1"/>
        <pt x="523" y="733" on="0"/>
        <pt x="485" y="749" on="0"/>
        <pt x="456" y="778" on="0"/>
        <pt x="440" y="816" on="0"/>
        <pt x="440" y="839" on="1"/>
        <pt x="440" y="861" on="0"/>
        <pt x="457" y="899" on="0"/>
        <pt x="485" y="928" on="0"/>
        <pt x="524" y="945" on="0"/>
        <pt x="546" y="945" on="1"/>
        <pt x="592" y="945" on="0"/>
        <pt x="673" y="980" on="0"/>
        <pt x="733" y="1040" on="0"/>
        <pt x="768" y="1120" on="0"/>
        <pt x="768" y="1166" on="1"/>
        <pt x="768" y="1212" on="0"/>
        <pt x="733" y="1293" on="0"/>
        <pt x="673" y="1353" on="0"/>
        <pt x="592" y="1388" on="0"/>
        <pt x="546" y="1388" on="1"/>
        <pt x="500" y="1388" on="0"/>
        <pt x="420" y="1353" on="0"/>
        <pt x="360" y="1293" on="0"/>
        <pt x="325" y="1212" on="0"/>
        <pt x="325" y="1166" on="1"/>
        <pt x="325" y="1144" on="0"/>
        <pt x="308" y="1105" on="0"/>
        <pt x="279" y="1077" on="0"/>
        <pt x="241" y="1060" on="0"/>
        <pt x="219" y="1060" on="1"/>
        <pt x="196" y="1060" on="0"/>
        <pt x="158" y="1076" on="0"/>
        <pt x="129" y="1105" on="0"/>
        <pt x="113" y="1143" on="0"/>
        <pt x="113" y="1166" on="1"/>
        <pt x="113" y="1255" on="0"/>
        <pt x="182" y="1413" on="0"/>
        <pt x="300" y="1531" on="0"/>
        <pt x="457" y="1600" on="0"/>
        <pt x="546" y="1600" on="1"/>
        <pt x="635" y="1600" on="0"/>
        <pt x="793" y="1531" on="0"/>
        <pt x="911" y="1413" on="0"/>
        <pt x="980" y="1255" on="0"/>
        <pt x="980" y="1166" on="1"/>
        <pt x="980" y="980" on="0"/>
        <pt x="838" y="845" on="1"/>
        <pt x="884" y="812" on="0"/>
        <pt x="952" y="726" on="0"/>
        <pt x="997" y="630" on="0"/>
        <pt x="1019" y="525" on="0"/>
        <pt x="1019" y="472" on="1"/>
        <pt x="1019" y="376" on="0"/>
        <pt x="945" y="204" on="0"/>
        <pt x="816" y="75" on="0"/>
        <pt x="644" y="0" on="0"/>
        <pt x="546" y="0" on="1"/>
        <pt x="448" y="0" on="0"/>
        <pt x="277" y="74" on="0"/>
        <pt x="148" y="203" on="0"/>
        <pt x="74" y="374" on="0"/>
        <pt x="74" y="472" on="1"/>
        <pt x="74" y="494" on="0"/>
        <pt x="90" y="533" on="0"/>
        <pt x="119" y="562" on="0"/>
        <pt x="157" y="578" on="0"/>
        <pt x="180" y="578" on="1"/>
        <pt x="202" y="578" on="0"/>
        <pt x="241" y="562" on="0"/>
        <pt x="270" y="533" on="0"/>
        <pt x="286" y="494" on="0"/>
        <pt x="286" y="472" on="1"/>
        <pt x="286" y="418" on="0"/>
        <pt x="327" y="324" on="0"/>
        <pt x="398" y="253" on="0"/>
        <pt x="492" y="212" on="0"/>
        <pt x="546" y="212" on="1"/>
        <pt x="600" y="212" on="0"/>
        <pt x="694" y="253" on="0"/>
        <pt x="765" y="324" on="0"/>
        <pt x="806" y="418" on="0"/>
        <pt x="806" y="472" on="1"/>
        <pt x="806" y="526" on="0"/>
        <pt x="764" y="621" on="0"/>
        <pt x="693" y="692" on="0"/>
        <pt x="599" y="733" on="0"/>
      </contour>
    </TTGlyph>
    <TTGlyph name="afii10026" xMin="71" yMin="0" xMax="1363" yMax="1600">
      <component glyphName="N" x="1440" y="0" scalex="-0.999816894531" scaley="1.0" flags="0x0"/>
    </TTGlyph>
    <TTGlyph name="afii10027" xMin="71" yMin="0" xMax="1363" yMax="2080">
      <contour>
        <pt x="1257" y="0" on="1"/>
        <pt x="1213" y="0" on="0"/>
        <pt x="1151" y="62" on="0"/>
        <pt x="1151" y="106" on="1"/>
        <pt x="1151" y="1184" on="1"/>
        <pt x="258" y="37" on="1"/>
        <pt x="224" y="0" on="0"/>
        <pt x="177" y="0" on="1"/>
        <pt x="155" y="0" on="0"/>
        <pt x="116" y="16" on="0"/>
        <pt x="87" y="45" on="0"/>
        <pt x="71" y="83" on="0"/>
        <pt x="71" y="106" on="1"/>
        <pt x="71" y="1494" on="1"/>
        <pt x="71" y="1538" on="0"/>
        <pt x="133" y="1600" on="0"/>
        <pt x="177" y="1600" on="1"/>
        <pt x="221" y="1600" on="0"/>
        <pt x="283" y="1538" on="0"/>
        <pt x="283" y="1494" on="1"/>
        <pt x="283" y="414" on="1"/>
        <pt x="1175" y="1561" on="1"/>
        <pt x="1210" y="1600" on="0"/>
        <pt x="1257" y="1600" on="1"/>
        <pt x="1280" y="1600" on="0"/>
        <pt x="1318" y="1584" on="0"/>
        <pt x="1347" y="1555" on="0"/>
        <pt x="1363" y="1516" on="0"/>
        <pt x="1363" y="1494" on="1"/>
        <pt x="1363" y="106" on="1"/>
        <pt x="1363" y="62" on="0"/>
        <pt x="1301" y="0" on="0"/>
      </contour>
      <contour>
        <pt x="717" y="1719" on="1"/>
        <pt x="648" y="1719" on="0"/>
        <pt x="527" y="1758" on="0"/>
        <pt x="437" y="1827" on="0"/>
        <pt x="384" y="1921" on="0"/>
        <pt x="384" y="1975" on="1"/>
        <pt x="384" y="2019" on="0"/>
        <pt x="443" y="2080" on="0"/>
        <pt x="488" y="2080" on="1"/>
        <pt x="533" y="2080" on="0"/>
        <pt x="563" y="2050" on="1"/>
        <pt x="585" y="2027" on="0"/>
        <pt x="590" y="1996" on="1"/>
        <pt x="593" y="1968" on="0"/>
        <pt x="628" y="1949" on="1"/>
        <pt x="665" y="1928" on="0"/>
        <pt x="717" y="1928" on="1"/>
        <pt x="769" y="1928" on="0"/>
        <pt x="806" y="1949" on="1"/>
        <pt x="841" y="1968" on="0"/>
        <pt x="843" y="1996" on="1"/>
        <pt x="849" y="2027" on="0"/>
        <pt x="871" y="2050" on="1"/>
        <pt x="901" y="2080" on="0"/>
        <pt x="946" y="2080" on="1"/>
        <pt x="991" y="2080" on="0"/>
        <pt x="1050" y="2019" on="0"/>
        <pt x="1050" y="1975" on="1"/>
        <pt x="1050" y="1921" on="0"/>
        <pt x="997" y="1827" on="0"/>
        <pt x="907" y="1758" on="0"/>
        <pt x="786" y="1719" on="0"/>
      </contour>
    </TTGlyph>
    <TTGlyph name="afii10028" xMin="75" yMin="0" xMax="1135" yMax="1600">
      <component glyphName="K" x="0" y="0" flags="0x200"/>
    </TTGlyph>
    <TTGlyph name="afii10029" xMin="77" yMin="0" xMax="1369" yMax="1600">
      <component glyphName="Lambda" x="0" y="0" flags="0x200"/>
    </TTGlyph>
    <TTGlyph name="afii10030" xMin="82" yMin="0" xMax="1835" yMax="1600">
      <component glyphName="W" x="0" y="1600" scalex="1.0" scaley="-0.999816894531" flags="0x0"/>
    </TTGlyph>
    <TTGlyph name="afii10031" xMin="76" yMin="0" xMax="1213" yMax="1600">
      <component glyphName="H" x="0" y="0" flags="0x200"/>
    </TTGlyph>
    <TTGlyph name="afii10032" xMin="80" yMin="0" xMax="1680" yMax="1600">
      <component glyphName="O" x="0" y="0" flags="0x200"/>
    </TTGlyph>
    <TTGlyph name="afii10033" xMin="76" yMin="0" xMax="1213" yMax="1600">
      <contour>
        <pt x="1107" y="1600" on="1"/>
        <pt x="1129" y="1600" on="0"/>
        <pt x="1168" y="1584" on="0"/>
        <pt x="1197" y="1555" on="0"/>
        <pt x="1213" y="1516" on="0"/>
        <pt x="1213" y="1494" on="1"/>
        <pt x="1213" y="106" on="1"/>
        <pt x="1213" y="83" on="0"/>
        <pt x="1197" y="45" on="0"/>
        <pt x="1168" y="16" on="0"/>
        <pt x="1129" y="0" on="0"/>
        <pt x="1107" y="0" on="1"/>
        <pt x="1084" y="0" on="0"/>
        <pt x="1046" y="16" on="0"/>
        <pt x="1017" y="45" on="0"/>
        <pt x="1001" y="83" on="0"/>
        <pt x="1001" y="106" on="1"/>
        <pt x="1001" y="1388" on="1"/>
        <pt x="288" y="1388" on="1"/>
        <pt x="288" y="106" on="1"/>
        <pt x="288" y="83" on="0"/>
        <pt x="272" y="45" on="0"/>
        <pt x="243" y="16" on="0"/>
        <pt x="204" y="0" on="0"/>
        <pt x="182" y="0" on="1"/>
        <pt x="159" y="0" on="0"/>
        <pt x="121" y="16" on="0"/>
        <pt x="92" y="45" on="0"/>
        <pt x="76" y="83" on="0"/>
        <pt x="76" y="106" on="1"/>
        <pt x="76" y="1494" on="1"/>
        <pt x="76" y="1516" on="0"/>
        <pt x="92" y="1555" on="0"/>
        <pt x="121" y="1584" on="0"/>
        <pt x="159" y="1600" on="0"/>
        <pt x="182" y="1600" on="1"/>
      </contour>
    </TTGlyph>
    <TTGlyph name="afii10034" xMin="74" yMin="0" xMax="1019" yMax="1600">
      <component glyphName="P" x="0" y="0" flags="0x200"/>
    </TTGlyph>
    <TTGlyph name="afii10035" xMin="78" yMin="0" xMax="1419" yMax="1600">
      <component glyphName="C" x="0" y="0" flags="0x200"/>
    </TTGlyph>
    <TTGlyph name="afii10036" xMin="77" yMin="0" xMax="1291" yMax="1600">
      <component glyphName="T" x="0" y="0" flags="0x200"/>
    </TTGlyph>
    <TTGlyph name="afii10037" xMin="77" yMin="0" xMax="1369" yMax="1600">
      <contour>
        <pt x="723" y="715" on="1"/>
        <pt x="1171" y="1548" on="1"/>
        <pt x="1199" y="1600" on="0"/>
        <pt x="1263" y="1600" on="1"/>
        <pt x="1285" y="1600" on="0"/>
        <pt x="1324" y="1584" on="0"/>
        <pt x="1353" y="1555" on="0"/>
        <pt x="1369" y="1516" on="0"/>
        <pt x="1369" y="1494" on="1"/>
        <pt x="1369" y="1467" on="0"/>
        <pt x="1354" y="1440" on="1"/>
        <pt x="673" y="174" on="1"/>
        <pt x="620" y="86" on="0"/>
        <pt x="468" y="0" on="0"/>
        <pt x="376" y="0" on="1"/>
        <pt x="335" y="0" on="0"/>
        <pt x="248" y="20" on="0"/>
        <pt x="177" y="59" on="0"/>
        <pt x="132" y="115" on="0"/>
        <pt x="132" y="150" on="1"/>
        <pt x="132" y="172" on="0"/>
        <pt x="148" y="211" on="0"/>
        <pt x="177" y="240" on="0"/>
        <pt x="215" y="256" on="0"/>
        <pt x="238" y="256" on="1"/>
        <pt x="257" y="256" on="0"/>
        <pt x="290" y="242" on="0"/>
        <pt x="322" y="226" on="0"/>
        <pt x="356" y="212" on="0"/>
        <pt x="376" y="212" on="1"/>
        <pt x="411" y="212" on="0"/>
        <pt x="468" y="245" on="0"/>
        <pt x="488" y="280" on="1"/>
        <pt x="603" y="493" on="1"/>
        <pt x="92" y="1440" on="1"/>
        <pt x="77" y="1468" on="0"/>
        <pt x="77" y="1494" on="1"/>
        <pt x="77" y="1516" on="0"/>
        <pt x="93" y="1555" on="0"/>
        <pt x="122" y="1584" on="0"/>
        <pt x="160" y="1600" on="0"/>
        <pt x="183" y="1600" on="1"/>
        <pt x="243" y="1600" on="0"/>
        <pt x="274" y="1548" on="1"/>
      </contour>
    </TTGlyph>
    <TTGlyph name="afii10038" xMin="80" yMin="0" xMax="1680" yMax="1600">
      <component glyphName="Phi" x="0" y="0" flags="0x200"/>
    </TTGlyph>
    <TTGlyph name="afii10039" xMin="77" yMin="0" xMax="1370" yMax="1600">
      <component glyphName="X" x="1" y="0" flags="0x200"/>
    </TTGlyph>
    <TTGlyph name="afii10040" xMin="77" yMin="-308" xMax="1369" yMax="1600">
      <contour>
        <pt x="183" y="0" on="1"/>
        <pt x="160" y="0" on="0"/>
        <pt x="122" y="16" on="0"/>
        <pt x="93" y="45" on="0"/>
        <pt x="77" y="83" on="0"/>
        <pt x="77" y="106" on="1"/>
        <pt x="77" y="1494" on="1"/>
        <pt x="77" y="1516" on="0"/>
        <pt x="93" y="1555" on="0"/>
        <pt x="122" y="1584" on="0"/>
        <pt x="160" y="1600" on="0"/>
        <pt x="183" y="1600" on="1"/>
        <pt x="205" y="1600" on="0"/>
        <pt x="244" y="1584" on="0"/>
        <pt x="273" y="1555" on="0"/>
        <pt x="289" y="1516" on="0"/>
        <pt x="289" y="1494" on="1"/>
        <pt x="289" y="212" on="1"/>
        <pt x="1003" y="212" on="1"/>
        <pt x="1003" y="1494" on="1"/>
        <pt x="1003" y="1516" on="0"/>
        <pt x="1019" y="1555" on="0"/>
        <pt x="1048" y="1584" on="0"/>
        <pt x="1086" y="1600" on="0"/>
        <pt x="1109" y="1600" on="1"/>
        <pt x="1131" y="1600" on="0"/>
        <pt x="1169" y="1583" on="0"/>
        <pt x="1198" y="1555" on="0"/>
        <pt x="1215" y="1516" on="0"/>
        <pt x="1215" y="1494" on="1"/>
        <pt x="1215" y="212" on="1"/>
        <pt x="1263" y="212" on="1"/>
        <pt x="1285" y="212" on="0"/>
        <pt x="1324" y="196" on="0"/>
        <pt x="1353" y="167" on="0"/>
        <pt x="1369" y="128" on="0"/>
        <pt x="1369" y="106" on="1"/>
        <pt x="1369" y="-84" on="0"/>
        <pt x="1293" y="-240" on="1"/>
        <pt x="1280" y="-271" on="0"/>
        <pt x="1225" y="-308" on="0"/>
        <pt x="1193" y="-308" on="1"/>
        <pt x="1171" y="-308" on="0"/>
        <pt x="1133" y="-291" on="0"/>
        <pt x="1104" y="-263" on="0"/>
        <pt x="1087" y="-224" on="0"/>
        <pt x="1087" y="-202" on="1"/>
        <pt x="1087" y="-176" on="0"/>
        <pt x="1100" y="-152" on="1"/>
        <pt x="1137" y="-80" on="0"/>
        <pt x="1144" y="0" on="1"/>
      </contour>
    </TTGlyph>
    <TTGlyph name="afii10041" xMin="76" yMin="0" xMax="1213" yMax="1600">
      <contour>
        <pt x="1213" y="106" on="1"/>
        <pt x="1213" y="83" on="0"/>
        <pt x="1197" y="45" on="0"/>
        <pt x="1168" y="16" on="0"/>
        <pt x="1129" y="0" on="0"/>
        <pt x="1107" y="0" on="1"/>
        <pt x="1084" y="0" on="0"/>
        <pt x="1046" y="16" on="0"/>
        <pt x="1017" y="45" on="0"/>
        <pt x="1001" y="83" on="0"/>
        <pt x="1001" y="106" on="1"/>
        <pt x="1001" y="665" on="1"/>
        <pt x="851" y="540" on="0"/>
        <pt x="644" y="540" on="1"/>
        <pt x="527" y="540" on="0"/>
        <pt x="321" y="630" on="0"/>
        <pt x="166" y="785" on="0"/>
        <pt x="76" y="991" on="0"/>
        <pt x="76" y="1108" on="1"/>
        <pt x="76" y="1494" on="1"/>
        <pt x="76" y="1516" on="0"/>
        <pt x="92" y="1555" on="0"/>
        <pt x="121" y="1584" on="0"/>
        <pt x="159" y="1600" on="0"/>
        <pt x="182" y="1600" on="1"/>
        <pt x="204" y="1600" on="0"/>
        <pt x="243" y="1584" on="0"/>
        <pt x="272" y="1555" on="0"/>
        <pt x="288" y="1516" on="0"/>
        <pt x="288" y="1494" on="1"/>
        <pt x="288" y="1108" on="1"/>
        <pt x="288" y="1034" on="0"/>
        <pt x="344" y="905" on="0"/>
        <pt x="441" y="808" on="0"/>
        <pt x="570" y="752" on="0"/>
        <pt x="644" y="752" on="1"/>
        <pt x="717" y="752" on="0"/>
        <pt x="847" y="808" on="0"/>
        <pt x="945" y="904" on="0"/>
        <pt x="1001" y="1034" on="0"/>
        <pt x="1001" y="1108" on="1"/>
        <pt x="1001" y="1494" on="1"/>
        <pt x="1001" y="1516" on="0"/>
        <pt x="1017" y="1555" on="0"/>
        <pt x="1046" y="1584" on="0"/>
        <pt x="1084" y="1600" on="0"/>
        <pt x="1107" y="1600" on="1"/>
        <pt x="1129" y="1600" on="0"/>
        <pt x="1168" y="1584" on="0"/>
        <pt x="1197" y="1555" on="0"/>
        <pt x="1213" y="1516" on="0"/>
        <pt x="1213" y="1494" on="1"/>
      </contour>
    </TTGlyph>
    <TTGlyph name="afii10042" xMin="79" yMin="0" xMax="1524" yMax="1600">
      <contour>
        <pt x="79" y="1494" on="1"/>
        <pt x="79" y="1516" on="0"/>
        <pt x="95" y="1555" on="0"/>
        <pt x="124" y="1584" on="0"/>
        <pt x="162" y="1600" on="0"/>
        <pt x="185" y="1600" on="1"/>
        <pt x="207" y="1600" on="0"/>
        <pt x="245" y="1583" on="0"/>
        <pt x="274" y="1555" on="0"/>
        <pt x="291" y="1516" on="0"/>
        <pt x="291" y="1494" on="1"/>
        <pt x="291" y="212" on="1"/>
        <pt x="696" y="212" on="1"/>
        <pt x="696" y="1494" on="1"/>
        <pt x="696" y="1516" on="0"/>
        <pt x="712" y="1555" on="0"/>
        <pt x="741" y="1584" on="0"/>
        <pt x="779" y="1600" on="0"/>
        <pt x="802" y="1600" on="1"/>
        <pt x="824" y="1600" on="0"/>
        <pt x="862" y="1583" on="0"/>
        <pt x="891" y="1555" on="0"/>
        <pt x="908" y="1516" on="0"/>
        <pt x="908" y="1494" on="1"/>
        <pt x="908" y="212" on="1"/>
        <pt x="1312" y="212" on="1"/>
        <pt x="1312" y="1494" on="1"/>
        <pt x="1312" y="1516" on="0"/>
        <pt x="1329" y="1555" on="0"/>
        <pt x="1358" y="1583" on="0"/>
        <pt x="1396" y="1600" on="0"/>
        <pt x="1418" y="1600" on="1"/>
        <pt x="1440" y="1600" on="0"/>
        <pt x="1479" y="1584" on="0"/>
        <pt x="1508" y="1555" on="0"/>
        <pt x="1524" y="1516" on="0"/>
        <pt x="1524" y="1494" on="1"/>
        <pt x="1524" y="106" on="1"/>
        <pt x="1524" y="83" on="0"/>
        <pt x="1508" y="45" on="0"/>
        <pt x="1479" y="16" on="0"/>
        <pt x="1440" y="0" on="0"/>
        <pt x="1418" y="0" on="1"/>
        <pt x="185" y="0" on="1"/>
        <pt x="162" y="0" on="0"/>
        <pt x="124" y="16" on="0"/>
        <pt x="95" y="45" on="0"/>
        <pt x="79" y="83" on="0"/>
        <pt x="79" y="106" on="1"/>
      </contour>
    </TTGlyph>
    <TTGlyph name="afii10043" xMin="80" yMin="-308" xMax="1680" yMax="1600">
      <contour>
        <pt x="1455" y="0" on="1"/>
        <pt x="186" y="0" on="1"/>
        <pt x="163" y="0" on="0"/>
        <pt x="125" y="16" on="0"/>
        <pt x="96" y="45" on="0"/>
        <pt x="80" y="83" on="0"/>
        <pt x="80" y="106" on="1"/>
        <pt x="80" y="1494" on="1"/>
        <pt x="80" y="1516" on="0"/>
        <pt x="96" y="1555" on="0"/>
        <pt x="125" y="1584" on="0"/>
        <pt x="163" y="1600" on="0"/>
        <pt x="186" y="1600" on="1"/>
        <pt x="208" y="1600" on="0"/>
        <pt x="247" y="1584" on="0"/>
        <pt x="276" y="1555" on="0"/>
        <pt x="292" y="1516" on="0"/>
        <pt x="292" y="1494" on="1"/>
        <pt x="292" y="212" on="1"/>
        <pt x="697" y="212" on="1"/>
        <pt x="697" y="1494" on="1"/>
        <pt x="697" y="1516" on="0"/>
        <pt x="713" y="1555" on="0"/>
        <pt x="742" y="1584" on="0"/>
        <pt x="780" y="1600" on="0"/>
        <pt x="803" y="1600" on="1"/>
        <pt x="825" y="1600" on="0"/>
        <pt x="864" y="1584" on="0"/>
        <pt x="893" y="1555" on="0"/>
        <pt x="909" y="1516" on="0"/>
        <pt x="909" y="1494" on="1"/>
        <pt x="909" y="212" on="1"/>
        <pt x="1314" y="212" on="1"/>
        <pt x="1314" y="1494" on="1"/>
        <pt x="1314" y="1516" on="0"/>
        <pt x="1330" y="1555" on="0"/>
        <pt x="1359" y="1584" on="0"/>
        <pt x="1397" y="1600" on="0"/>
        <pt x="1420" y="1600" on="1"/>
        <pt x="1442" y="1600" on="0"/>
        <pt x="1481" y="1584" on="0"/>
        <pt x="1510" y="1555" on="0"/>
        <pt x="1526" y="1516" on="0"/>
        <pt x="1526" y="1494" on="1"/>
        <pt x="1526" y="212" on="1"/>
        <pt x="1574" y="212" on="1"/>
        <pt x="1596" y="212" on="0"/>
        <pt x="1635" y="196" on="0"/>
        <pt x="1664" y="167" on="0"/>
        <pt x="1680" y="128" on="0"/>
        <pt x="1680" y="106" on="1"/>
        <pt x="1680" y="-84" on="0"/>
        <pt x="1604" y="-240" on="1"/>
        <pt x="1591" y="-271" on="0"/>
        <pt x="1536" y="-308" on="0"/>
        <pt x="1504" y="-308" on="1"/>
        <pt x="1482" y="-308" on="0"/>
        <pt x="1444" y="-291" on="0"/>
        <pt x="1415" y="-263" on="0"/>
        <pt x="1398" y="-224" on="0"/>
        <pt x="1398" y="-202" on="1"/>
        <pt x="1398" y="-176" on="0"/>
        <pt x="1411" y="-152" on="1"/>
        <pt x="1448" y="-80" on="0"/>
      </contour>
    </TTGlyph>
    <TTGlyph name="afii10044" xMin="-1" yMin="0" xMax="1290" yMax="1600">
      <contour>
        <pt x="837" y="212" on="1"/>
        <pt x="887" y="212" on="0"/>
        <pt x="975" y="250" on="0"/>
        <pt x="1040" y="315" on="0"/>
        <pt x="1078" y="403" on="0"/>
        <pt x="1078" y="453" on="1"/>
        <pt x="1078" y="503" on="0"/>
        <pt x="1040" y="591" on="0"/>
        <pt x="975" y="656" on="0"/>
        <pt x="887" y="694" on="0"/>
        <pt x="837" y="694" on="1"/>
        <pt x="519" y="694" on="1"/>
        <pt x="519" y="212" on="1"/>
      </contour>
      <contour>
        <pt x="413" y="1600" on="1"/>
        <pt x="435" y="1600" on="0"/>
        <pt x="474" y="1584" on="0"/>
        <pt x="503" y="1555" on="0"/>
        <pt x="519" y="1516" on="0"/>
        <pt x="519" y="1494" on="1"/>
        <pt x="519" y="906" on="1"/>
        <pt x="837" y="906" on="1"/>
        <pt x="930" y="906" on="0"/>
        <pt x="1095" y="834" on="0"/>
        <pt x="1218" y="710" on="0"/>
        <pt x="1290" y="546" on="0"/>
        <pt x="1290" y="453" on="1"/>
        <pt x="1290" y="360" on="0"/>
        <pt x="1218" y="196" on="0"/>
        <pt x="1095" y="72" on="0"/>
        <pt x="930" y="0" on="0"/>
        <pt x="837" y="0" on="1"/>
        <pt x="413" y="0" on="1"/>
        <pt x="390" y="0" on="0"/>
        <pt x="352" y="16" on="0"/>
        <pt x="323" y="45" on="0"/>
        <pt x="307" y="83" on="0"/>
        <pt x="307" y="106" on="1"/>
        <pt x="307" y="1388" on="1"/>
        <pt x="105" y="1388" on="1"/>
        <pt x="82" y="1388" on="0"/>
        <pt x="44" y="1404" on="0"/>
        <pt x="15" y="1433" on="0"/>
        <pt x="-1" y="1471" on="0"/>
        <pt x="-1" y="1494" on="1"/>
        <pt x="-1" y="1516" on="0"/>
        <pt x="15" y="1555" on="0"/>
        <pt x="44" y="1584" on="0"/>
        <pt x="82" y="1600" on="0"/>
        <pt x="105" y="1600" on="1"/>
      </contour>
    </TTGlyph>
    <TTGlyph name="afii10045" xMin="77" yMin="0" xMax="1369" yMax="1600">
      <contour>
        <pt x="607" y="212" on="1"/>
        <pt x="657" y="212" on="0"/>
        <pt x="745" y="250" on="0"/>
        <pt x="810" y="315" on="0"/>
        <pt x="848" y="403" on="0"/>
        <pt x="848" y="453" on="1"/>
        <pt x="848" y="503" on="0"/>
        <pt x="810" y="591" on="0"/>
        <pt x="745" y="656" on="0"/>
        <pt x="657" y="694" on="0"/>
        <pt x="607" y="694" on="1"/>
        <pt x="289" y="694" on="1"/>
        <pt x="289" y="212" on="1"/>
      </contour>
      <contour>
        <pt x="289" y="906" on="1"/>
        <pt x="607" y="906" on="1"/>
        <pt x="700" y="906" on="0"/>
        <pt x="865" y="834" on="0"/>
        <pt x="988" y="710" on="0"/>
        <pt x="1060" y="546" on="0"/>
        <pt x="1060" y="453" on="1"/>
        <pt x="1060" y="360" on="0"/>
        <pt x="988" y="196" on="0"/>
        <pt x="865" y="72" on="0"/>
        <pt x="700" y="0" on="0"/>
        <pt x="607" y="0" on="1"/>
        <pt x="183" y="0" on="1"/>
        <pt x="160" y="0" on="0"/>
        <pt x="122" y="16" on="0"/>
        <pt x="93" y="45" on="0"/>
        <pt x="77" y="83" on="0"/>
        <pt x="77" y="106" on="1"/>
        <pt x="77" y="1494" on="1"/>
        <pt x="77" y="1516" on="0"/>
        <pt x="93" y="1555" on="0"/>
        <pt x="122" y="1584" on="0"/>
        <pt x="160" y="1600" on="0"/>
        <pt x="183" y="1600" on="1"/>
        <pt x="205" y="1600" on="0"/>
        <pt x="244" y="1584" on="0"/>
        <pt x="273" y="1555" on="0"/>
        <pt x="289" y="1516" on="0"/>
        <pt x="289" y="1494" on="1"/>
      </contour>
      <contour>
        <pt x="1157" y="1494" on="1"/>
        <pt x="1157" y="1516" on="0"/>
        <pt x="1173" y="1555" on="0"/>
        <pt x="1202" y="1584" on="0"/>
        <pt x="1240" y="1600" on="0"/>
        <pt x="1263" y="1600" on="1"/>
        <pt x="1285" y="1600" on="0"/>
        <pt x="1324" y="1584" on="0"/>
        <pt x="1353" y="1555" on="0"/>
        <pt x="1369" y="1516" on="0"/>
        <pt x="1369" y="1494" on="1"/>
        <pt x="1369" y="106" on="1"/>
        <pt x="1369" y="83" on="0"/>
        <pt x="1353" y="45" on="0"/>
        <pt x="1324" y="16" on="0"/>
        <pt x="1285" y="0" on="0"/>
        <pt x="1263" y="0" on="1"/>
        <pt x="1240" y="0" on="0"/>
        <pt x="1202" y="16" on="0"/>
        <pt x="1173" y="45" on="0"/>
        <pt x="1157" y="83" on="0"/>
        <pt x="1157" y="106" on="1"/>
      </contour>
    </TTGlyph>
    <TTGlyph name="afii10046" xMin="74" yMin="0" xMax="1057" yMax="1600">
      <contour>
        <pt x="604" y="212" on="1"/>
        <pt x="654" y="212" on="0"/>
        <pt x="742" y="250" on="0"/>
        <pt x="807" y="315" on="0"/>
        <pt x="845" y="403" on="0"/>
        <pt x="845" y="453" on="1"/>
        <pt x="845" y="503" on="0"/>
        <pt x="807" y="591" on="0"/>
        <pt x="742" y="656" on="0"/>
        <pt x="654" y="694" on="0"/>
        <pt x="604" y="694" on="1"/>
        <pt x="286" y="694" on="1"/>
        <pt x="286" y="212" on="1"/>
      </contour>
      <contour>
        <pt x="286" y="906" on="1"/>
        <pt x="604" y="906" on="1"/>
        <pt x="697" y="906" on="0"/>
        <pt x="862" y="834" on="0"/>
        <pt x="985" y="710" on="0"/>
        <pt x="1057" y="546" on="0"/>
        <pt x="1057" y="453" on="1"/>
        <pt x="1057" y="360" on="0"/>
        <pt x="985" y="196" on="0"/>
        <pt x="862" y="72" on="0"/>
        <pt x="697" y="0" on="0"/>
        <pt x="604" y="0" on="1"/>
        <pt x="180" y="0" on="1"/>
        <pt x="158" y="0" on="0"/>
        <pt x="120" y="17" on="0"/>
        <pt x="91" y="45" on="0"/>
        <pt x="74" y="84" on="0"/>
        <pt x="74" y="106" on="1"/>
        <pt x="74" y="1494" on="1"/>
        <pt x="74" y="1516" on="0"/>
        <pt x="91" y="1555" on="0"/>
        <pt x="120" y="1583" on="0"/>
        <pt x="158" y="1600" on="0"/>
        <pt x="180" y="1600" on="1"/>
        <pt x="202" y="1600" on="0"/>
        <pt x="241" y="1584" on="0"/>
        <pt x="270" y="1555" on="0"/>
        <pt x="286" y="1516" on="0"/>
        <pt x="286" y="1494" on="1"/>
      </contour>
    </TTGlyph>
    <TTGlyph name="afii10047" xMin="73" yMin="0" xMax="1414" yMax="1600">
      <component glyphName="afii10053" x="1492" y="0" scalex="-0.999816894531" scaley="1.0" flags="0x0"/>
    </TTGlyph>
    <TTGlyph name="afii10048" xMin="83" yMin="0" xMax="1991" yMax="1600">
      <contour>
        <pt x="1191" y="1388" on="1"/>
        <pt x="948" y="1388" on="0"/>
        <pt x="775" y="1215" on="1"/>
        <pt x="603" y="1044" on="0"/>
        <pt x="603" y="800" on="1"/>
        <pt x="603" y="555" on="0"/>
        <pt x="775" y="384" on="1"/>
        <pt x="947" y="212" on="0"/>
        <pt x="1191" y="212" on="1"/>
        <pt x="1435" y="212" on="0"/>
        <pt x="1607" y="384" on="1"/>
        <pt x="1779" y="555" on="0"/>
        <pt x="1779" y="800" on="1"/>
        <pt x="1779" y="1044" on="0"/>
        <pt x="1607" y="1215" on="1"/>
        <pt x="1434" y="1388" on="0"/>
      </contour>
      <contour>
        <pt x="398" y="906" on="1"/>
        <pt x="429" y="1168" on="0"/>
        <pt x="627" y="1366" on="1"/>
        <pt x="861" y="1600" on="0"/>
        <pt x="1191" y="1600" on="1"/>
        <pt x="1521" y="1600" on="0"/>
        <pt x="1756" y="1365" on="1"/>
        <pt x="1874" y="1247" on="0"/>
        <pt x="1991" y="968" on="0"/>
        <pt x="1991" y="800" on="1"/>
        <pt x="1991" y="469" on="0"/>
        <pt x="1756" y="234" on="1"/>
        <pt x="1522" y="0" on="0"/>
        <pt x="1191" y="0" on="1"/>
        <pt x="861" y="0" on="0"/>
        <pt x="627" y="235" on="1"/>
        <pt x="429" y="433" on="0"/>
        <pt x="398" y="694" on="1"/>
        <pt x="295" y="694" on="1"/>
        <pt x="295" y="106" on="1"/>
        <pt x="295" y="83" on="0"/>
        <pt x="279" y="45" on="0"/>
        <pt x="250" y="16" on="0"/>
        <pt x="211" y="0" on="0"/>
        <pt x="189" y="0" on="1"/>
        <pt x="166" y="0" on="0"/>
        <pt x="128" y="16" on="0"/>
        <pt x="99" y="45" on="0"/>
        <pt x="83" y="83" on="0"/>
        <pt x="83" y="106" on="1"/>
        <pt x="83" y="1494" on="1"/>
        <pt x="83" y="1516" on="0"/>
        <pt x="99" y="1555" on="0"/>
        <pt x="128" y="1584" on="0"/>
        <pt x="166" y="1600" on="0"/>
        <pt x="189" y="1600" on="1"/>
        <pt x="211" y="1600" on="0"/>
        <pt x="250" y="1584" on="0"/>
        <pt x="279" y="1555" on="0"/>
        <pt x="295" y="1516" on="0"/>
        <pt x="295" y="1494" on="1"/>
        <pt x="295" y="906" on="1"/>
      </contour>
    </TTGlyph>
    <TTGlyph name="afii10049" xMin="65" yMin="0" xMax="1125" yMax="1600">
      <component glyphName="R" x="1200" y="0" scalex="-0.999816894531" scaley="1.0" flags="0x0"/>
    </TTGlyph>
    <TTGlyph name="afii10050" xMin="75" yMin="0" xMax="1135" yMax="1908">
      <contour>
        <pt x="915" y="1600" on="1"/>
        <pt x="907" y="1660" on="0"/>
        <pt x="866" y="1752" on="1"/>
        <pt x="854" y="1776" on="0"/>
        <pt x="854" y="1802" on="1"/>
        <pt x="854" y="1824" on="0"/>
        <pt x="870" y="1863" on="0"/>
        <pt x="899" y="1892" on="0"/>
        <pt x="937" y="1908" on="0"/>
        <pt x="960" y="1908" on="1"/>
        <pt x="1028" y="1908" on="0"/>
        <pt x="1059" y="1840" on="1"/>
        <pt x="1135" y="1684" on="0"/>
        <pt x="1135" y="1494" on="1"/>
        <pt x="1135" y="1471" on="0"/>
        <pt x="1119" y="1433" on="0"/>
        <pt x="1090" y="1404" on="0"/>
        <pt x="1051" y="1388" on="0"/>
        <pt x="1029" y="1388" on="1"/>
        <pt x="287" y="1388" on="1"/>
        <pt x="287" y="106" on="1"/>
        <pt x="287" y="85" on="0"/>
        <pt x="270" y="46" on="0"/>
        <pt x="241" y="17" on="0"/>
        <pt x="202" y="0" on="0"/>
        <pt x="181" y="0" on="1"/>
        <pt x="158" y="0" on="0"/>
        <pt x="120" y="16" on="0"/>
        <pt x="91" y="45" on="0"/>
        <pt x="75" y="83" on="0"/>
        <pt x="75" y="106" on="1"/>
        <pt x="75" y="1494" on="1"/>
        <pt x="75" y="1516" on="0"/>
        <pt x="92" y="1554" on="0"/>
        <pt x="121" y="1583" on="0"/>
        <pt x="160" y="1600" on="0"/>
        <pt x="182" y="1600" on="1"/>
      </contour>
    </TTGlyph>
    <TTGlyph name="afii10051" xMin="79" yMin="0" xMax="1563" yMax="1600">
      <contour>
        <pt x="580" y="1388" on="1"/>
        <pt x="185" y="1388" on="1"/>
        <pt x="162" y="1388" on="0"/>
        <pt x="124" y="1404" on="0"/>
        <pt x="95" y="1433" on="0"/>
        <pt x="79" y="1471" on="0"/>
        <pt x="79" y="1494" on="1"/>
        <pt x="79" y="1516" on="0"/>
        <pt x="95" y="1555" on="0"/>
        <pt x="124" y="1584" on="0"/>
        <pt x="162" y="1600" on="0"/>
        <pt x="185" y="1600" on="1"/>
        <pt x="1187" y="1600" on="1"/>
        <pt x="1209" y="1600" on="0"/>
        <pt x="1248" y="1584" on="0"/>
        <pt x="1277" y="1555" on="0"/>
        <pt x="1293" y="1516" on="0"/>
        <pt x="1293" y="1494" on="1"/>
        <pt x="1293" y="1471" on="0"/>
        <pt x="1277" y="1433" on="0"/>
        <pt x="1248" y="1404" on="0"/>
        <pt x="1209" y="1388" on="0"/>
        <pt x="1187" y="1388" on="1"/>
        <pt x="792" y="1388" on="1"/>
        <pt x="792" y="896" on="1"/>
        <pt x="913" y="983" on="0"/>
        <pt x="1072" y="983" on="1"/>
        <pt x="1174" y="983" on="0"/>
        <pt x="1352" y="905" on="0"/>
        <pt x="1486" y="771" on="0"/>
        <pt x="1563" y="592" on="0"/>
        <pt x="1563" y="492" on="1"/>
        <pt x="1563" y="391" on="0"/>
        <pt x="1485" y="212" on="0"/>
        <pt x="1352" y="78" on="0"/>
        <pt x="1173" y="0" on="0"/>
        <pt x="1072" y="0" on="1"/>
        <pt x="1049" y="0" on="0"/>
        <pt x="1011" y="16" on="0"/>
        <pt x="982" y="45" on="0"/>
        <pt x="966" y="83" on="0"/>
        <pt x="966" y="106" on="1"/>
        <pt x="966" y="128" on="0"/>
        <pt x="982" y="167" on="0"/>
        <pt x="1011" y="196" on="0"/>
        <pt x="1049" y="212" on="0"/>
        <pt x="1072" y="212" on="1"/>
        <pt x="1130" y="212" on="0"/>
        <pt x="1232" y="256" on="0"/>
        <pt x="1307" y="332" on="0"/>
        <pt x="1351" y="434" on="0"/>
        <pt x="1351" y="492" on="1"/>
        <pt x="1351" y="549" on="0"/>
        <pt x="1307" y="651" on="0"/>
        <pt x="1231" y="727" on="0"/>
        <pt x="1129" y="771" on="0"/>
        <pt x="1072" y="771" on="1"/>
        <pt x="1013" y="771" on="0"/>
        <pt x="911" y="727" on="0"/>
        <pt x="835" y="651" on="0"/>
        <pt x="792" y="550" on="0"/>
        <pt x="792" y="493" on="1"/>
        <pt x="792" y="106" on="1"/>
        <pt x="792" y="83" on="0"/>
        <pt x="776" y="45" on="0"/>
        <pt x="747" y="16" on="0"/>
        <pt x="708" y="0" on="0"/>
        <pt x="686" y="0" on="1"/>
        <pt x="663" y="0" on="0"/>
        <pt x="625" y="16" on="0"/>
        <pt x="596" y="45" on="0"/>
        <pt x="580" y="83" on="0"/>
        <pt x="580" y="106" on="1"/>
      </contour>
    </TTGlyph>
    <TTGlyph name="afii10052" xMin="74" yMin="0" xMax="1135" yMax="2079">
      <component glyphName="afii10020" x="0" y="0" flags="0x200"/>
      <component glyphName="acute" x="427" y="480" flags="0x0"/>
    </TTGlyph>
    <TTGlyph name="afii10053" xMin="78" yMin="0" xMax="1419" yMax="1600">
      <contour>
        <pt x="298" y="694" on="1"/>
        <pt x="316" y="591" on="0"/>
        <pt x="424" y="414" on="0"/>
        <pt x="580" y="285" on="0"/>
        <pt x="773" y="212" on="0"/>
        <pt x="878" y="212" on="1"/>
        <pt x="1087" y="212" on="0"/>
        <pt x="1246" y="341" on="1"/>
        <pt x="1273" y="360" on="0"/>
        <pt x="1308" y="360" on="1"/>
        <pt x="1330" y="360" on="0"/>
        <pt x="1368" y="343" on="0"/>
        <pt x="1397" y="315" on="0"/>
        <pt x="1414" y="276" on="0"/>
        <pt x="1414" y="254" on="1"/>
        <pt x="1414" y="207" on="0"/>
        <pt x="1381" y="178" on="1"/>
        <pt x="1158" y="0" on="0"/>
        <pt x="878" y="0" on="1"/>
        <pt x="546" y="0" on="0"/>
        <pt x="312" y="234" on="1"/>
        <pt x="78" y="468" on="0"/>
        <pt x="78" y="800" on="1"/>
        <pt x="78" y="1131" on="0"/>
        <pt x="312" y="1365" on="1"/>
        <pt x="547" y="1600" on="0"/>
        <pt x="878" y="1600" on="1"/>
        <pt x="1162" y="1600" on="0"/>
        <pt x="1391" y="1413" on="1"/>
        <pt x="1419" y="1387" on="0"/>
        <pt x="1419" y="1340" on="1"/>
        <pt x="1419" y="1317" on="0"/>
        <pt x="1403" y="1279" on="0"/>
        <pt x="1374" y="1250" on="0"/>
        <pt x="1335" y="1234" on="0"/>
        <pt x="1313" y="1234" on="1"/>
        <pt x="1276" y="1234" on="0"/>
        <pt x="1240" y="1264" on="1"/>
        <pt x="1164" y="1324" on="0"/>
        <pt x="981" y="1388" on="0"/>
        <pt x="878" y="1388" on="1"/>
        <pt x="773" y="1388" on="0"/>
        <pt x="579" y="1315" on="0"/>
        <pt x="423" y="1186" on="0"/>
        <pt x="316" y="1010" on="0"/>
        <pt x="298" y="906" on="1"/>
        <pt x="955" y="906" on="1"/>
        <pt x="1000" y="906" on="0"/>
        <pt x="1061" y="845" on="0"/>
        <pt x="1061" y="800" on="1"/>
        <pt x="1061" y="777" on="0"/>
        <pt x="1045" y="739" on="0"/>
        <pt x="1016" y="710" on="0"/>
        <pt x="977" y="694" on="0"/>
        <pt x="955" y="694" on="1"/>
      </contour>
    </TTGlyph>
    <TTGlyph name="afii10054" xMin="74" yMin="0" xMax="999" yMax="1600">
      <component glyphName="S" x="0" y="0" flags="0x200"/>
    </TTGlyph>
    <TTGlyph name="afii10055" xMin="146" yMin="0" xMax="358" yMax="1600">
      <component glyphName="I" x="0" y="0" flags="0x200"/>
    </TTGlyph>
    <TTGlyph name="afii10056" xMin="-104" yMin="0" xMax="597" yMax="1962">
      <component glyphName="I" x="0" y="0" flags="0x200"/>
      <component glyphName="dieresis" x="-236" y="480" flags="0x0"/>
    </TTGlyph>
    <TTGlyph name="afii10057" xMin="74" yMin="0" xMax="1057" yMax="1600">
      <component glyphName="J" x="0" y="0" flags="0x200"/>
    </TTGlyph>
    <TTGlyph name="afii10058" xMin="83" yMin="0" xMax="1991" yMax="1600">
      <contour>
        <pt x="1154" y="694" on="1"/>
        <pt x="1342" y="212" on="1"/>
        <pt x="1538" y="212" on="1"/>
        <pt x="1588" y="212" on="0"/>
        <pt x="1676" y="250" on="0"/>
        <pt x="1741" y="315" on="0"/>
        <pt x="1779" y="403" on="0"/>
        <pt x="1779" y="453" on="1"/>
        <pt x="1779" y="503" on="0"/>
        <pt x="1741" y="591" on="0"/>
        <pt x="1676" y="656" on="0"/>
        <pt x="1588" y="694" on="0"/>
        <pt x="1538" y="694" on="1"/>
      </contour>
      <contour>
        <pt x="1269" y="0" on="1"/>
        <pt x="1237" y="0" on="0"/>
        <pt x="1187" y="30" on="0"/>
        <pt x="1170" y="65" on="1"/>
        <pt x="729" y="1201" on="1"/>
        <pt x="286" y="65" on="1"/>
        <pt x="274" y="34" on="0"/>
        <pt x="219" y="0" on="0"/>
        <pt x="189" y="0" on="1"/>
        <pt x="166" y="0" on="0"/>
        <pt x="128" y="16" on="0"/>
        <pt x="99" y="45" on="0"/>
        <pt x="83" y="83" on="0"/>
        <pt x="83" y="106" on="1"/>
        <pt x="83" y="128" on="0"/>
        <pt x="92" y="149" on="1"/>
        <pt x="628" y="1526" on="1"/>
        <pt x="638" y="1560" on="0"/>
        <pt x="697" y="1600" on="0"/>
        <pt x="729" y="1600" on="1"/>
        <pt x="768" y="1600" on="0"/>
        <pt x="817" y="1560" on="0"/>
        <pt x="830" y="1526" on="1"/>
        <pt x="1072" y="906" on="1"/>
        <pt x="1538" y="906" on="1"/>
        <pt x="1631" y="906" on="0"/>
        <pt x="1796" y="834" on="0"/>
        <pt x="1919" y="710" on="0"/>
        <pt x="1991" y="546" on="0"/>
        <pt x="1991" y="453" on="1"/>
        <pt x="1991" y="360" on="0"/>
        <pt x="1919" y="196" on="0"/>
        <pt x="1796" y="72" on="0"/>
        <pt x="1631" y="0" on="0"/>
        <pt x="1538" y="0" on="1"/>
      </contour>
    </TTGlyph>
    <TTGlyph name="afii10059" xMin="82" yMin="0" xMax="1836" yMax="1600">
      <contour>
        <pt x="1383" y="212" on="1"/>
        <pt x="1432" y="212" on="0"/>
        <pt x="1520" y="250" on="0"/>
        <pt x="1586" y="315" on="0"/>
        <pt x="1624" y="403" on="0"/>
        <pt x="1624" y="453" on="1"/>
        <pt x="1624" y="502" on="0"/>
        <pt x="1586" y="590" on="0"/>
        <pt x="1520" y="656" on="0"/>
        <pt x="1432" y="694" on="0"/>
        <pt x="1383" y="694" on="1"/>
        <pt x="1065" y="694" on="1"/>
        <pt x="1065" y="212" on="1"/>
      </contour>
      <contour>
        <pt x="1383" y="906" on="1"/>
        <pt x="1476" y="906" on="0"/>
        <pt x="1641" y="833" on="0"/>
        <pt x="1764" y="709" on="0"/>
        <pt x="1836" y="544" on="0"/>
        <pt x="1836" y="453" on="1"/>
        <pt x="1836" y="361" on="0"/>
        <pt x="1764" y="197" on="0"/>
        <pt x="1641" y="73" on="0"/>
        <pt x="1476" y="0" on="0"/>
        <pt x="1383" y="0" on="1"/>
        <pt x="959" y="0" on="1"/>
        <pt x="936" y="0" on="0"/>
        <pt x="898" y="16" on="0"/>
        <pt x="869" y="45" on="0"/>
        <pt x="853" y="83" on="0"/>
        <pt x="853" y="106" on="1"/>
        <pt x="853" y="694" on="1"/>
        <pt x="294" y="694" on="1"/>
        <pt x="294" y="106" on="1"/>
        <pt x="294" y="84" on="0"/>
        <pt x="277" y="45" on="0"/>
        <pt x="248" y="17" on="0"/>
        <pt x="210" y="0" on="0"/>
        <pt x="188" y="0" on="1"/>
        <pt x="165" y="0" on="0"/>
        <pt x="127" y="16" on="0"/>
        <pt x="98" y="45" on="0"/>
        <pt x="82" y="83" on="0"/>
        <pt x="82" y="106" on="1"/>
        <pt x="82" y="1494" on="1"/>
        <pt x="82" y="1516" on="0"/>
        <pt x="98" y="1555" on="0"/>
        <pt x="127" y="1584" on="0"/>
        <pt x="165" y="1600" on="0"/>
        <pt x="188" y="1600" on="1"/>
        <pt x="210" y="1600" on="0"/>
        <pt x="248" y="1583" on="0"/>
        <pt x="277" y="1555" on="0"/>
        <pt x="294" y="1516" on="0"/>
        <pt x="294" y="1494" on="1"/>
        <pt x="294" y="906" on="1"/>
        <pt x="853" y="906" on="1"/>
        <pt x="853" y="1494" on="1"/>
        <pt x="853" y="1516" on="0"/>
        <pt x="869" y="1555" on="0"/>
        <pt x="898" y="1584" on="0"/>
        <pt x="936" y="1600" on="0"/>
        <pt x="959" y="1600" on="1"/>
        <pt x="981" y="1600" on="0"/>
        <pt x="1019" y="1583" on="0"/>
        <pt x="1048" y="1555" on="0"/>
        <pt x="1065" y="1516" on="0"/>
        <pt x="1065" y="1494" on="1"/>
        <pt x="1065" y="906" on="1"/>
      </contour>
    </TTGlyph>
    <TTGlyph name="afii10060" xMin="79" yMin="0" xMax="1563" yMax="1600">
      <contour>
        <pt x="1351" y="492" on="1"/>
        <pt x="1351" y="549" on="0"/>
        <pt x="1307" y="651" on="0"/>
        <pt x="1231" y="727" on="0"/>
        <pt x="1129" y="771" on="0"/>
        <pt x="1072" y="771" on="1"/>
        <pt x="1013" y="771" on="0"/>
        <pt x="911" y="727" on="0"/>
        <pt x="835" y="651" on="0"/>
        <pt x="792" y="550" on="0"/>
        <pt x="792" y="493" on="1"/>
        <pt x="792" y="106" on="1"/>
        <pt x="792" y="83" on="0"/>
        <pt x="776" y="45" on="0"/>
        <pt x="747" y="16" on="0"/>
        <pt x="708" y="0" on="0"/>
        <pt x="686" y="0" on="1"/>
        <pt x="663" y="0" on="0"/>
        <pt x="625" y="16" on="0"/>
        <pt x="596" y="45" on="0"/>
        <pt x="580" y="83" on="0"/>
        <pt x="580" y="106" on="1"/>
        <pt x="580" y="1388" on="1"/>
        <pt x="185" y="1388" on="1"/>
        <pt x="162" y="1388" on="0"/>
        <pt x="124" y="1404" on="0"/>
        <pt x="95" y="1433" on="0"/>
        <pt x="79" y="1471" on="0"/>
        <pt x="79" y="1494" on="1"/>
        <pt x="79" y="1516" on="0"/>
        <pt x="95" y="1555" on="0"/>
        <pt x="124" y="1584" on="0"/>
        <pt x="162" y="1600" on="0"/>
        <pt x="185" y="1600" on="1"/>
        <pt x="1187" y="1600" on="1"/>
        <pt x="1209" y="1600" on="0"/>
        <pt x="1248" y="1584" on="0"/>
        <pt x="1277" y="1555" on="0"/>
        <pt x="1293" y="1516" on="0"/>
        <pt x="1293" y="1494" on="1"/>
        <pt x="1293" y="1471" on="0"/>
        <pt x="1277" y="1433" on="0"/>
        <pt x="1248" y="1404" on="0"/>
        <pt x="1209" y="1388" on="0"/>
        <pt x="1187" y="1388" on="1"/>
        <pt x="792" y="1388" on="1"/>
        <pt x="792" y="896" on="1"/>
        <pt x="913" y="983" on="0"/>
        <pt x="1072" y="983" on="1"/>
        <pt x="1174" y="983" on="0"/>
        <pt x="1352" y="905" on="0"/>
        <pt x="1486" y="771" on="0"/>
        <pt x="1563" y="592" on="0"/>
        <pt x="1563" y="492" on="1"/>
        <pt x="1563" y="106" on="1"/>
        <pt x="1563" y="83" on="0"/>
        <pt x="1547" y="45" on="0"/>
        <pt x="1518" y="16" on="0"/>
        <pt x="1479" y="0" on="0"/>
        <pt x="1457" y="0" on="1"/>
        <pt x="1435" y="0" on="0"/>
        <pt x="1397" y="17" on="0"/>
        <pt x="1368" y="45" on="0"/>
        <pt x="1351" y="84" on="0"/>
        <pt x="1351" y="106" on="1"/>
      </contour>
    </TTGlyph>
    <TTGlyph name="afii10061" xMin="75" yMin="0" xMax="1135" yMax="2063">
      <contour>
        <pt x="75" y="1494" on="1"/>
        <pt x="75" y="1516" on="0"/>
        <pt x="91" y="1555" on="0"/>
        <pt x="120" y="1584" on="0"/>
        <pt x="158" y="1600" on="0"/>
        <pt x="181" y="1600" on="1"/>
        <pt x="203" y="1600" on="0"/>
        <pt x="242" y="1584" on="0"/>
        <pt x="271" y="1555" on="0"/>
        <pt x="287" y="1516" on="0"/>
        <pt x="287" y="1494" on="1"/>
        <pt x="287" y="902" on="1"/>
        <pt x="952" y="1567" on="1"/>
        <pt x="985" y="1600" on="0"/>
        <pt x="1029" y="1600" on="1"/>
        <pt x="1051" y="1600" on="0"/>
        <pt x="1090" y="1584" on="0"/>
        <pt x="1119" y="1555" on="0"/>
        <pt x="1135" y="1516" on="0"/>
        <pt x="1135" y="1494" on="1"/>
        <pt x="1135" y="1450" on="0"/>
        <pt x="1104" y="1419" on="1"/>
        <pt x="580" y="894" on="1"/>
        <pt x="715" y="711" on="0"/>
        <pt x="980" y="352" on="0"/>
        <pt x="1115" y="169" on="1"/>
        <pt x="1135" y="141" on="0"/>
        <pt x="1135" y="109" on="1"/>
        <pt x="1135" y="88" on="0"/>
        <pt x="1119" y="48" on="0"/>
        <pt x="1091" y="18" on="0"/>
        <pt x="1053" y="0" on="0"/>
        <pt x="1031" y="0" on="1"/>
        <pt x="972" y="0" on="0"/>
        <pt x="942" y="45" on="1"/>
        <pt x="943" y="44" on="1"/>
        <pt x="876" y="134" on="0"/>
        <pt x="748" y="307" on="0"/>
        <pt x="621" y="479" on="0"/>
        <pt x="494" y="652" on="0"/>
        <pt x="428" y="742" on="1"/>
        <pt x="287" y="601" on="1"/>
        <pt x="287" y="106" on="1"/>
        <pt x="287" y="83" on="0"/>
        <pt x="271" y="45" on="0"/>
        <pt x="242" y="16" on="0"/>
        <pt x="203" y="0" on="0"/>
        <pt x="181" y="0" on="1"/>
        <pt x="158" y="0" on="0"/>
        <pt x="120" y="16" on="0"/>
        <pt x="91" y="45" on="0"/>
        <pt x="75" y="83" on="0"/>
        <pt x="75" y="106" on="1"/>
      </contour>
      <contour>
        <pt x="568" y="1647" on="1"/>
        <pt x="537" y="1619" on="0"/>
        <pt x="495" y="1619" on="1"/>
        <pt x="473" y="1619" on="0"/>
        <pt x="434" y="1636" on="0"/>
        <pt x="406" y="1665" on="0"/>
        <pt x="389" y="1703" on="0"/>
        <pt x="389" y="1725" on="1"/>
        <pt x="389" y="1764" on="0"/>
        <pt x="416" y="1797" on="1"/>
        <pt x="651" y="2032" on="1"/>
        <pt x="685" y="2063" on="0"/>
        <pt x="727" y="2063" on="1"/>
        <pt x="749" y="2063" on="0"/>
        <pt x="787" y="2046" on="0"/>
        <pt x="816" y="2017" on="0"/>
        <pt x="833" y="1979" on="0"/>
        <pt x="833" y="1957" on="1"/>
        <pt x="833" y="1916" on="0"/>
        <pt x="803" y="1882" on="1"/>
      </contour>
    </TTGlyph>
    <TTGlyph name="afii10062" xMin="77" yMin="0" xMax="1369" yMax="2080">
      <component glyphName="afii10037" x="0" y="0" flags="0x200"/>
      <component glyphName="breve" x="326" y="480" flags="0x0"/>
    </TTGlyph>
    <TTGlyph name="afii10065" xMin="80" yMin="0" xMax="1200" yMax="1120">
      <component glyphName="a" x="0" y="0" flags="0x200"/>
    </TTGlyph>
    <TTGlyph name="afii10066" xMin="80" yMin="0" xMax="1200" yMax="1576">
      <contour>
        <pt x="991" y="560" on="1"/>
        <pt x="991" y="632" on="0"/>
        <pt x="936" y="759" on="0"/>
        <pt x="841" y="855" on="0"/>
        <pt x="713" y="911" on="0"/>
        <pt x="640" y="911" on="1"/>
        <pt x="566" y="911" on="0"/>
        <pt x="438" y="855" on="0"/>
        <pt x="344" y="760" on="0"/>
        <pt x="289" y="632" on="0"/>
        <pt x="289" y="560" on="1"/>
        <pt x="289" y="488" on="0"/>
        <pt x="344" y="360" on="0"/>
        <pt x="438" y="265" on="0"/>
        <pt x="566" y="209" on="0"/>
        <pt x="640" y="209" on="1"/>
        <pt x="713" y="209" on="0"/>
        <pt x="841" y="265" on="0"/>
        <pt x="936" y="361" on="0"/>
        <pt x="991" y="488" on="0"/>
      </contour>
      <contour>
        <pt x="391" y="1188" on="1"/>
        <pt x="311" y="1108" on="0"/>
        <pt x="293" y="1000" on="1"/>
        <pt x="441" y="1120" on="0"/>
        <pt x="640" y="1120" on="1"/>
        <pt x="870" y="1120" on="0"/>
        <pt x="1036" y="956" on="1"/>
        <pt x="1118" y="875" on="0"/>
        <pt x="1200" y="676" on="0"/>
        <pt x="1200" y="560" on="1"/>
        <pt x="1200" y="326" on="0"/>
        <pt x="1036" y="164" on="1"/>
        <pt x="870" y="0" on="0"/>
        <pt x="640" y="0" on="1"/>
        <pt x="408" y="0" on="0"/>
        <pt x="244" y="164" on="1"/>
        <pt x="80" y="328" on="0"/>
        <pt x="80" y="560" on="1"/>
        <pt x="80" y="940" on="1"/>
        <pt x="80" y="1055" on="0"/>
        <pt x="169" y="1258" on="0"/>
        <pt x="322" y="1411" on="0"/>
        <pt x="525" y="1500" on="0"/>
        <pt x="640" y="1500" on="1"/>
        <pt x="683" y="1500" on="1"/>
        <pt x="843" y="1500" on="0"/>
        <pt x="973" y="1565" on="1"/>
        <pt x="995" y="1576" on="0"/>
        <pt x="1019" y="1576" on="1"/>
        <pt x="1041" y="1576" on="0"/>
        <pt x="1079" y="1559" on="0"/>
        <pt x="1107" y="1531" on="0"/>
        <pt x="1124" y="1493" on="0"/>
        <pt x="1124" y="1471" on="1"/>
        <pt x="1124" y="1438" on="0"/>
        <pt x="1082" y="1387" on="0"/>
        <pt x="1011" y="1347" on="0"/>
        <pt x="920" y="1318" on="0"/>
        <pt x="822" y="1300" on="0"/>
        <pt x="725" y="1291" on="0"/>
        <pt x="683" y="1291" on="1"/>
        <pt x="640" y="1291" on="1"/>
        <pt x="493" y="1291" on="0"/>
      </contour>
    </TTGlyph>
    <TTGlyph name="afii10067" xMin="77" yMin="0" xMax="969" yMax="1120">
      <contour>
        <pt x="561" y="664" on="1"/>
        <pt x="585" y="664" on="0"/>
        <pt x="630" y="683" on="0"/>
        <pt x="664" y="716" on="0"/>
        <pt x="684" y="761" on="0"/>
        <pt x="684" y="788" on="1"/>
        <pt x="684" y="813" on="0"/>
        <pt x="664" y="858" on="0"/>
        <pt x="631" y="891" on="0"/>
        <pt x="586" y="911" on="0"/>
        <pt x="561" y="911" on="1"/>
        <pt x="285" y="911" on="1"/>
        <pt x="285" y="664" on="1"/>
      </contour>
      <contour>
        <pt x="637" y="209" on="1"/>
        <pt x="662" y="209" on="0"/>
        <pt x="707" y="228" on="0"/>
        <pt x="740" y="262" on="0"/>
        <pt x="760" y="306" on="0"/>
        <pt x="760" y="332" on="1"/>
        <pt x="760" y="358" on="0"/>
        <pt x="740" y="404" on="0"/>
        <pt x="706" y="437" on="0"/>
        <pt x="661" y="456" on="0"/>
        <pt x="637" y="456" on="1"/>
        <pt x="285" y="456" on="1"/>
        <pt x="285" y="209" on="1"/>
      </contour>
      <contour>
        <pt x="561" y="1120" on="1"/>
        <pt x="629" y="1120" on="0"/>
        <pt x="750" y="1067" on="0"/>
        <pt x="840" y="977" on="0"/>
        <pt x="893" y="856" on="0"/>
        <pt x="893" y="788" on="1"/>
        <pt x="893" y="681" on="0"/>
        <pt x="836" y="600" on="1"/>
        <pt x="869" y="570" on="0"/>
        <pt x="919" y="510" on="0"/>
        <pt x="952" y="446" on="0"/>
        <pt x="969" y="375" on="0"/>
        <pt x="969" y="332" on="1"/>
        <pt x="969" y="264" on="0"/>
        <pt x="917" y="143" on="0"/>
        <pt x="827" y="53" on="0"/>
        <pt x="706" y="0" on="0"/>
        <pt x="637" y="0" on="1"/>
        <pt x="181" y="0" on="1"/>
        <pt x="159" y="0" on="0"/>
        <pt x="121" y="16" on="0"/>
        <pt x="93" y="45" on="0"/>
        <pt x="77" y="83" on="0"/>
        <pt x="77" y="104" on="1"/>
        <pt x="77" y="1016" on="1"/>
        <pt x="77" y="1037" on="0"/>
        <pt x="93" y="1075" on="0"/>
        <pt x="121" y="1104" on="0"/>
        <pt x="159" y="1120" on="0"/>
        <pt x="181" y="1120" on="1"/>
      </contour>
    </TTGlyph>
    <TTGlyph name="afii10068" xMin="75" yMin="0" xMax="815" yMax="1120">
      <contour>
        <pt x="283" y="104" on="1"/>
        <pt x="283" y="83" on="0"/>
        <pt x="267" y="45" on="0"/>
        <pt x="239" y="16" on="0"/>
        <pt x="201" y="0" on="0"/>
        <pt x="179" y="0" on="1"/>
        <pt x="157" y="0" on="0"/>
        <pt x="119" y="16" on="0"/>
        <pt x="91" y="45" on="0"/>
        <pt x="75" y="83" on="0"/>
        <pt x="75" y="104" on="1"/>
        <pt x="75" y="788" on="1"/>
        <pt x="75" y="857" on="0"/>
        <pt x="128" y="978" on="0"/>
        <pt x="218" y="1068" on="0"/>
        <pt x="339" y="1120" on="0"/>
        <pt x="407" y="1120" on="1"/>
        <pt x="711" y="1120" on="1"/>
        <pt x="732" y="1120" on="0"/>
        <pt x="770" y="1104" on="0"/>
        <pt x="799" y="1075" on="0"/>
        <pt x="815" y="1037" on="0"/>
        <pt x="815" y="1016" on="1"/>
        <pt x="815" y="994" on="0"/>
        <pt x="799" y="956" on="0"/>
        <pt x="770" y="927" on="0"/>
        <pt x="732" y="911" on="0"/>
        <pt x="711" y="911" on="1"/>
        <pt x="407" y="911" on="1"/>
        <pt x="380" y="911" on="0"/>
        <pt x="334" y="890" on="0"/>
        <pt x="301" y="855" on="0"/>
        <pt x="283" y="811" on="0"/>
        <pt x="283" y="788" on="1"/>
      </contour>
    </TTGlyph>
    <TTGlyph name="afii10069" xMin="80" yMin="-480" xMax="1200" yMax="1120">
      <component glyphName="g" x="0" y="0" flags="0x200"/>
    </TTGlyph>
    <TTGlyph name="afii10070" xMin="80" yMin="0" xMax="1200" yMax="1120">
      <component glyphName="e" x="0" y="0" flags="0x200"/>
    </TTGlyph>
    <TTGlyph name="afii10071" xMin="80" yMin="0" xMax="1200" yMax="1482">
      <component glyphName="e" x="0" y="0" flags="0x200"/>
      <component glyphName="dieresis" x="161" y="0" flags="0x0"/>
    </TTGlyph>
    <TTGlyph name="afii10072" xMin="86" yMin="0" xMax="1661" yMax="1120">
      <contour>
        <pt x="769" y="662" on="1"/>
        <pt x="769" y="1016" on="1"/>
        <pt x="769" y="1037" on="0"/>
        <pt x="785" y="1075" on="0"/>
        <pt x="814" y="1104" on="0"/>
        <pt x="852" y="1120" on="0"/>
        <pt x="874" y="1120" on="1"/>
        <pt x="896" y="1120" on="0"/>
        <pt x="934" y="1104" on="0"/>
        <pt x="962" y="1075" on="0"/>
        <pt x="978" y="1037" on="0"/>
        <pt x="978" y="1016" on="1"/>
        <pt x="978" y="662" on="1"/>
        <pt x="1488" y="1094" on="1"/>
        <pt x="1517" y="1120" on="0"/>
        <pt x="1557" y="1120" on="1"/>
        <pt x="1579" y="1120" on="0"/>
        <pt x="1617" y="1104" on="0"/>
        <pt x="1645" y="1075" on="0"/>
        <pt x="1661" y="1037" on="0"/>
        <pt x="1661" y="1016" on="1"/>
        <pt x="1661" y="971" on="0"/>
        <pt x="1630" y="942" on="1"/>
        <pt x="1183" y="563" on="1"/>
        <pt x="1631" y="179" on="1"/>
        <pt x="1661" y="149" on="0"/>
        <pt x="1661" y="104" on="1"/>
        <pt x="1661" y="83" on="0"/>
        <pt x="1645" y="45" on="0"/>
        <pt x="1617" y="16" on="0"/>
        <pt x="1579" y="0" on="0"/>
        <pt x="1557" y="0" on="1"/>
        <pt x="1518" y="0" on="0"/>
        <pt x="1489" y="25" on="1"/>
        <pt x="1021" y="425" on="1"/>
        <pt x="978" y="388" on="1"/>
        <pt x="978" y="104" on="1"/>
        <pt x="978" y="83" on="0"/>
        <pt x="962" y="45" on="0"/>
        <pt x="934" y="16" on="0"/>
        <pt x="896" y="0" on="0"/>
        <pt x="874" y="0" on="1"/>
        <pt x="852" y="0" on="0"/>
        <pt x="814" y="16" on="0"/>
        <pt x="785" y="45" on="0"/>
        <pt x="769" y="83" on="0"/>
        <pt x="769" y="104" on="1"/>
        <pt x="769" y="388" on="1"/>
        <pt x="727" y="425" on="1"/>
        <pt x="259" y="25" on="1"/>
        <pt x="230" y="0" on="0"/>
        <pt x="190" y="0" on="1"/>
        <pt x="168" y="0" on="0"/>
        <pt x="130" y="16" on="0"/>
        <pt x="102" y="45" on="0"/>
        <pt x="86" y="83" on="0"/>
        <pt x="86" y="104" on="1"/>
        <pt x="86" y="151" on="0"/>
        <pt x="116" y="179" on="1"/>
        <pt x="564" y="563" on="1"/>
        <pt x="118" y="941" on="1"/>
        <pt x="86" y="969" on="0"/>
        <pt x="86" y="1016" on="1"/>
        <pt x="86" y="1037" on="0"/>
        <pt x="102" y="1075" on="0"/>
        <pt x="130" y="1104" on="0"/>
        <pt x="168" y="1120" on="0"/>
        <pt x="190" y="1120" on="1"/>
        <pt x="231" y="1120" on="0"/>
        <pt x="260" y="1094" on="1"/>
      </contour>
    </TTGlyph>
    <TTGlyph name="afii10073" xMin="92" yMin="0" xMax="880" yMax="1119">
      <contour>
        <pt x="282" y="294" on="1"/>
        <pt x="310" y="260" on="0"/>
        <pt x="328" y="249" on="1"/>
        <pt x="387" y="209" on="0"/>
        <pt x="472" y="209" on="1"/>
        <pt x="557" y="209" on="0"/>
        <pt x="671" y="293" on="0"/>
        <pt x="671" y="341" on="1"/>
        <pt x="671" y="400" on="0"/>
        <pt x="556" y="493" on="0"/>
        <pt x="472" y="493" on="1"/>
        <pt x="429" y="493" on="0"/>
        <pt x="368" y="554" on="0"/>
        <pt x="368" y="597" on="1"/>
        <pt x="368" y="641" on="0"/>
        <pt x="429" y="702" on="0"/>
        <pt x="472" y="702" on="1"/>
        <pt x="559" y="702" on="0"/>
        <pt x="671" y="761" on="0"/>
        <pt x="671" y="797" on="1"/>
        <pt x="671" y="843" on="0"/>
        <pt x="558" y="910" on="0"/>
        <pt x="472" y="910" on="1"/>
        <pt x="387" y="910" on="0"/>
        <pt x="328" y="871" on="1"/>
        <pt x="304" y="854" on="0"/>
        <pt x="286" y="828" on="1"/>
        <pt x="279" y="819" on="0"/>
        <pt x="270" y="810" on="1"/>
        <pt x="239" y="779" on="0"/>
        <pt x="196" y="779" on="1"/>
        <pt x="153" y="779" on="0"/>
        <pt x="92" y="840" on="0"/>
        <pt x="92" y="883" on="1"/>
        <pt x="92" y="914" on="0"/>
        <pt x="108" y="939" on="1"/>
        <pt x="137" y="985" on="0"/>
        <pt x="186" y="1025" on="1"/>
        <pt x="305" y="1119" on="0"/>
        <pt x="472" y="1119" on="1"/>
        <pt x="639" y="1119" on="0"/>
        <pt x="880" y="937" on="0"/>
        <pt x="880" y="797" on="1"/>
        <pt x="880" y="654" on="0"/>
        <pt x="773" y="593" on="1"/>
        <pt x="880" y="499" on="0"/>
        <pt x="880" y="341" on="1"/>
        <pt x="880" y="202" on="0"/>
        <pt x="640" y="0" on="0"/>
        <pt x="472" y="0" on="1"/>
        <pt x="305" y="0" on="0"/>
        <pt x="186" y="95" on="1"/>
        <pt x="142" y="130" on="0"/>
        <pt x="114" y="170" on="1"/>
        <pt x="94" y="197" on="0"/>
        <pt x="94" y="232" on="1"/>
        <pt x="94" y="275" on="0"/>
        <pt x="155" y="337" on="0"/>
        <pt x="198" y="337" on="1"/>
        <pt x="252" y="337" on="0"/>
      </contour>
    </TTGlyph>
    <TTGlyph name="afii10074" xMin="79" yMin="0" xMax="1123" yMax="1120">
      <component glyphName="u" x="0" y="0" flags="0x200"/>
    </TTGlyph>
</ttFont>
